%TF.GenerationSoftware,KiCad,Pcbnew,7.0.11-7.0.11~ubuntu20.04.1*%
%TF.CreationDate,2024-08-15T08:53:24+02:00*%
%TF.ProjectId,diyBMS_CurrentVoltage_ADS1115,64697942-4d53-45f4-9375-7272656e7456,rev?*%
%TF.SameCoordinates,Original*%
%TF.FileFunction,Legend,Top*%
%TF.FilePolarity,Positive*%
%FSLAX46Y46*%
G04 Gerber Fmt 4.6, Leading zero omitted, Abs format (unit mm)*
G04 Created by KiCad (PCBNEW 7.0.11-7.0.11~ubuntu20.04.1) date 2024-08-15 08:53:24*
%MOMM*%
%LPD*%
G01*
G04 APERTURE LIST*
G04 Aperture macros list*
%AMRoundRect*
0 Rectangle with rounded corners*
0 $1 Rounding radius*
0 $2 $3 $4 $5 $6 $7 $8 $9 X,Y pos of 4 corners*
0 Add a 4 corners polygon primitive as box body*
4,1,4,$2,$3,$4,$5,$6,$7,$8,$9,$2,$3,0*
0 Add four circle primitives for the rounded corners*
1,1,$1+$1,$2,$3*
1,1,$1+$1,$4,$5*
1,1,$1+$1,$6,$7*
1,1,$1+$1,$8,$9*
0 Add four rect primitives between the rounded corners*
20,1,$1+$1,$2,$3,$4,$5,0*
20,1,$1+$1,$4,$5,$6,$7,0*
20,1,$1+$1,$6,$7,$8,$9,0*
20,1,$1+$1,$8,$9,$2,$3,0*%
%AMHorizOval*
0 Thick line with rounded ends*
0 $1 width*
0 $2 $3 position (X,Y) of the first rounded end (center of the circle)*
0 $4 $5 position (X,Y) of the second rounded end (center of the circle)*
0 Add line between two ends*
20,1,$1,$2,$3,$4,$5,0*
0 Add two circle primitives to create the rounded ends*
1,1,$1,$2,$3*
1,1,$1,$4,$5*%
G04 Aperture macros list end*
%ADD10C,0.150000*%
%ADD11C,0.120000*%
%ADD12C,0.200000*%
%ADD13R,2.600000X2.484000*%
%ADD14RoundRect,0.150000X-0.150000X0.875000X-0.150000X-0.875000X0.150000X-0.875000X0.150000X0.875000X0*%
%ADD15R,1.400000X1.400000*%
%ADD16C,1.400000*%
%ADD17R,1.700000X1.700000*%
%ADD18O,1.700000X1.700000*%
%ADD19RoundRect,0.250000X0.475000X-0.250000X0.475000X0.250000X-0.475000X0.250000X-0.475000X-0.250000X0*%
%ADD20C,3.200000*%
%ADD21RoundRect,0.250000X-0.250000X-0.475000X0.250000X-0.475000X0.250000X0.475000X-0.250000X0.475000X0*%
%ADD22RoundRect,0.250000X0.250000X0.475000X-0.250000X0.475000X-0.250000X-0.475000X0.250000X-0.475000X0*%
%ADD23RoundRect,0.250000X-0.475000X0.250000X-0.475000X-0.250000X0.475000X-0.250000X0.475000X0.250000X0*%
%ADD24RoundRect,0.250000X-0.262500X-0.450000X0.262500X-0.450000X0.262500X0.450000X-0.262500X0.450000X0*%
%ADD25RoundRect,0.250000X1.000000X0.650000X-1.000000X0.650000X-1.000000X-0.650000X1.000000X-0.650000X0*%
%ADD26RoundRect,0.250000X0.450000X-0.262500X0.450000X0.262500X-0.450000X0.262500X-0.450000X-0.262500X0*%
%ADD27R,2.484000X2.600000*%
%ADD28R,2.600000X2.600000*%
%ADD29C,2.600000*%
%ADD30R,1.905000X0.640000*%
%ADD31R,0.250000X1.100000*%
%ADD32R,1.500000X1.500000*%
%ADD33C,1.500000*%
%ADD34HorizOval,0.800000X0.000000X0.000000X0.000000X0.000000X0*%
%ADD35HorizOval,0.800000X0.000000X0.000000X0.000000X0.000000X0*%
%ADD36C,0.800000*%
%ADD37O,9.000000X6.000000*%
%ADD38RoundRect,0.250000X0.262500X0.450000X-0.262500X0.450000X-0.262500X-0.450000X0.262500X-0.450000X0*%
%ADD39RoundRect,0.243750X-0.243750X-0.456250X0.243750X-0.456250X0.243750X0.456250X-0.243750X0.456250X0*%
%ADD40R,1.000000X1.500000*%
%ADD41RoundRect,0.250000X-0.450000X0.262500X-0.450000X-0.262500X0.450000X-0.262500X0.450000X0.262500X0*%
%ADD42R,3.000000X3.000000*%
%ADD43C,3.000000*%
%ADD44RoundRect,0.150000X-0.825000X-0.150000X0.825000X-0.150000X0.825000X0.150000X-0.825000X0.150000X0*%
%ADD45C,1.440000*%
%ADD46R,1.750000X2.250000*%
%ADD47O,1.750000X2.250000*%
G04 APERTURE END LIST*
D10*
X38452588Y-55749819D02*
X37881160Y-55749819D01*
X38166874Y-55749819D02*
X38166874Y-54749819D01*
X38166874Y-54749819D02*
X38071636Y-54892676D01*
X38071636Y-54892676D02*
X37976398Y-54987914D01*
X37976398Y-54987914D02*
X37881160Y-55035533D01*
X36420588Y-32889819D02*
X35849160Y-32889819D01*
X36134874Y-32889819D02*
X36134874Y-31889819D01*
X36134874Y-31889819D02*
X36039636Y-32032676D01*
X36039636Y-32032676D02*
X35944398Y-32127914D01*
X35944398Y-32127914D02*
X35849160Y-32175533D01*
X62709588Y-38223819D02*
X62138160Y-38223819D01*
X62423874Y-38223819D02*
X62423874Y-37223819D01*
X62423874Y-37223819D02*
X62328636Y-37366676D01*
X62328636Y-37366676D02*
X62233398Y-37461914D01*
X62233398Y-37461914D02*
X62138160Y-37509533D01*
X71980588Y-76069819D02*
X71409160Y-76069819D01*
X71694874Y-76069819D02*
X71694874Y-75069819D01*
X71694874Y-75069819D02*
X71599636Y-75212676D01*
X71599636Y-75212676D02*
X71504398Y-75307914D01*
X71504398Y-75307914D02*
X71409160Y-75355533D01*
X60550588Y-61464819D02*
X59979160Y-61464819D01*
X60264874Y-61464819D02*
X60264874Y-60464819D01*
X60264874Y-60464819D02*
X60169636Y-60607676D01*
X60169636Y-60607676D02*
X60074398Y-60702914D01*
X60074398Y-60702914D02*
X59979160Y-60750533D01*
X42654319Y-71176166D02*
X42178128Y-71509499D01*
X42654319Y-71747594D02*
X41654319Y-71747594D01*
X41654319Y-71747594D02*
X41654319Y-71366642D01*
X41654319Y-71366642D02*
X41701938Y-71271404D01*
X41701938Y-71271404D02*
X41749557Y-71223785D01*
X41749557Y-71223785D02*
X41844795Y-71176166D01*
X41844795Y-71176166D02*
X41987652Y-71176166D01*
X41987652Y-71176166D02*
X42082890Y-71223785D01*
X42082890Y-71223785D02*
X42130509Y-71271404D01*
X42130509Y-71271404D02*
X42178128Y-71366642D01*
X42178128Y-71366642D02*
X42178128Y-71747594D01*
X41654319Y-70271404D02*
X41654319Y-70747594D01*
X41654319Y-70747594D02*
X42130509Y-70795213D01*
X42130509Y-70795213D02*
X42082890Y-70747594D01*
X42082890Y-70747594D02*
X42035271Y-70652356D01*
X42035271Y-70652356D02*
X42035271Y-70414261D01*
X42035271Y-70414261D02*
X42082890Y-70319023D01*
X42082890Y-70319023D02*
X42130509Y-70271404D01*
X42130509Y-70271404D02*
X42225747Y-70223785D01*
X42225747Y-70223785D02*
X42463842Y-70223785D01*
X42463842Y-70223785D02*
X42559080Y-70271404D01*
X42559080Y-70271404D02*
X42606700Y-70319023D01*
X42606700Y-70319023D02*
X42654319Y-70414261D01*
X42654319Y-70414261D02*
X42654319Y-70652356D01*
X42654319Y-70652356D02*
X42606700Y-70747594D01*
X42606700Y-70747594D02*
X42559080Y-70795213D01*
X71213819Y-82471904D02*
X72023342Y-82471904D01*
X72023342Y-82471904D02*
X72118580Y-82424285D01*
X72118580Y-82424285D02*
X72166200Y-82376666D01*
X72166200Y-82376666D02*
X72213819Y-82281428D01*
X72213819Y-82281428D02*
X72213819Y-82090952D01*
X72213819Y-82090952D02*
X72166200Y-81995714D01*
X72166200Y-81995714D02*
X72118580Y-81948095D01*
X72118580Y-81948095D02*
X72023342Y-81900476D01*
X72023342Y-81900476D02*
X71213819Y-81900476D01*
X71213819Y-80948095D02*
X71213819Y-81424285D01*
X71213819Y-81424285D02*
X71690009Y-81471904D01*
X71690009Y-81471904D02*
X71642390Y-81424285D01*
X71642390Y-81424285D02*
X71594771Y-81329047D01*
X71594771Y-81329047D02*
X71594771Y-81090952D01*
X71594771Y-81090952D02*
X71642390Y-80995714D01*
X71642390Y-80995714D02*
X71690009Y-80948095D01*
X71690009Y-80948095D02*
X71785247Y-80900476D01*
X71785247Y-80900476D02*
X72023342Y-80900476D01*
X72023342Y-80900476D02*
X72118580Y-80948095D01*
X72118580Y-80948095D02*
X72166200Y-80995714D01*
X72166200Y-80995714D02*
X72213819Y-81090952D01*
X72213819Y-81090952D02*
X72213819Y-81329047D01*
X72213819Y-81329047D02*
X72166200Y-81424285D01*
X72166200Y-81424285D02*
X72118580Y-81471904D01*
X62575666Y-91644819D02*
X62575666Y-92359104D01*
X62575666Y-92359104D02*
X62528047Y-92501961D01*
X62528047Y-92501961D02*
X62432809Y-92597200D01*
X62432809Y-92597200D02*
X62289952Y-92644819D01*
X62289952Y-92644819D02*
X62194714Y-92644819D01*
X62956619Y-91644819D02*
X63575666Y-91644819D01*
X63575666Y-91644819D02*
X63242333Y-92025771D01*
X63242333Y-92025771D02*
X63385190Y-92025771D01*
X63385190Y-92025771D02*
X63480428Y-92073390D01*
X63480428Y-92073390D02*
X63528047Y-92121009D01*
X63528047Y-92121009D02*
X63575666Y-92216247D01*
X63575666Y-92216247D02*
X63575666Y-92454342D01*
X63575666Y-92454342D02*
X63528047Y-92549580D01*
X63528047Y-92549580D02*
X63480428Y-92597200D01*
X63480428Y-92597200D02*
X63385190Y-92644819D01*
X63385190Y-92644819D02*
X63099476Y-92644819D01*
X63099476Y-92644819D02*
X63004238Y-92597200D01*
X63004238Y-92597200D02*
X62956619Y-92549580D01*
X71380819Y-36528333D02*
X72095104Y-36528333D01*
X72095104Y-36528333D02*
X72237961Y-36575952D01*
X72237961Y-36575952D02*
X72333200Y-36671190D01*
X72333200Y-36671190D02*
X72380819Y-36814047D01*
X72380819Y-36814047D02*
X72380819Y-36909285D01*
X71809390Y-35909285D02*
X71761771Y-36004523D01*
X71761771Y-36004523D02*
X71714152Y-36052142D01*
X71714152Y-36052142D02*
X71618914Y-36099761D01*
X71618914Y-36099761D02*
X71571295Y-36099761D01*
X71571295Y-36099761D02*
X71476057Y-36052142D01*
X71476057Y-36052142D02*
X71428438Y-36004523D01*
X71428438Y-36004523D02*
X71380819Y-35909285D01*
X71380819Y-35909285D02*
X71380819Y-35718809D01*
X71380819Y-35718809D02*
X71428438Y-35623571D01*
X71428438Y-35623571D02*
X71476057Y-35575952D01*
X71476057Y-35575952D02*
X71571295Y-35528333D01*
X71571295Y-35528333D02*
X71618914Y-35528333D01*
X71618914Y-35528333D02*
X71714152Y-35575952D01*
X71714152Y-35575952D02*
X71761771Y-35623571D01*
X71761771Y-35623571D02*
X71809390Y-35718809D01*
X71809390Y-35718809D02*
X71809390Y-35909285D01*
X71809390Y-35909285D02*
X71857009Y-36004523D01*
X71857009Y-36004523D02*
X71904628Y-36052142D01*
X71904628Y-36052142D02*
X71999866Y-36099761D01*
X71999866Y-36099761D02*
X72190342Y-36099761D01*
X72190342Y-36099761D02*
X72285580Y-36052142D01*
X72285580Y-36052142D02*
X72333200Y-36004523D01*
X72333200Y-36004523D02*
X72380819Y-35909285D01*
X72380819Y-35909285D02*
X72380819Y-35718809D01*
X72380819Y-35718809D02*
X72333200Y-35623571D01*
X72333200Y-35623571D02*
X72285580Y-35575952D01*
X72285580Y-35575952D02*
X72190342Y-35528333D01*
X72190342Y-35528333D02*
X71999866Y-35528333D01*
X71999866Y-35528333D02*
X71904628Y-35575952D01*
X71904628Y-35575952D02*
X71857009Y-35623571D01*
X71857009Y-35623571D02*
X71809390Y-35718809D01*
X68177580Y-64015857D02*
X68225200Y-64063476D01*
X68225200Y-64063476D02*
X68272819Y-64206333D01*
X68272819Y-64206333D02*
X68272819Y-64301571D01*
X68272819Y-64301571D02*
X68225200Y-64444428D01*
X68225200Y-64444428D02*
X68129961Y-64539666D01*
X68129961Y-64539666D02*
X68034723Y-64587285D01*
X68034723Y-64587285D02*
X67844247Y-64634904D01*
X67844247Y-64634904D02*
X67701390Y-64634904D01*
X67701390Y-64634904D02*
X67510914Y-64587285D01*
X67510914Y-64587285D02*
X67415676Y-64539666D01*
X67415676Y-64539666D02*
X67320438Y-64444428D01*
X67320438Y-64444428D02*
X67272819Y-64301571D01*
X67272819Y-64301571D02*
X67272819Y-64206333D01*
X67272819Y-64206333D02*
X67320438Y-64063476D01*
X67320438Y-64063476D02*
X67368057Y-64015857D01*
X68272819Y-63063476D02*
X68272819Y-63634904D01*
X68272819Y-63349190D02*
X67272819Y-63349190D01*
X67272819Y-63349190D02*
X67415676Y-63444428D01*
X67415676Y-63444428D02*
X67510914Y-63539666D01*
X67510914Y-63539666D02*
X67558533Y-63634904D01*
X67272819Y-62206333D02*
X67272819Y-62396809D01*
X67272819Y-62396809D02*
X67320438Y-62492047D01*
X67320438Y-62492047D02*
X67368057Y-62539666D01*
X67368057Y-62539666D02*
X67510914Y-62634904D01*
X67510914Y-62634904D02*
X67701390Y-62682523D01*
X67701390Y-62682523D02*
X68082342Y-62682523D01*
X68082342Y-62682523D02*
X68177580Y-62634904D01*
X68177580Y-62634904D02*
X68225200Y-62587285D01*
X68225200Y-62587285D02*
X68272819Y-62492047D01*
X68272819Y-62492047D02*
X68272819Y-62301571D01*
X68272819Y-62301571D02*
X68225200Y-62206333D01*
X68225200Y-62206333D02*
X68177580Y-62158714D01*
X68177580Y-62158714D02*
X68082342Y-62111095D01*
X68082342Y-62111095D02*
X67844247Y-62111095D01*
X67844247Y-62111095D02*
X67749009Y-62158714D01*
X67749009Y-62158714D02*
X67701390Y-62206333D01*
X67701390Y-62206333D02*
X67653771Y-62301571D01*
X67653771Y-62301571D02*
X67653771Y-62492047D01*
X67653771Y-62492047D02*
X67701390Y-62587285D01*
X67701390Y-62587285D02*
X67749009Y-62634904D01*
X67749009Y-62634904D02*
X67844247Y-62682523D01*
X52302580Y-50900666D02*
X52350200Y-50948285D01*
X52350200Y-50948285D02*
X52397819Y-51091142D01*
X52397819Y-51091142D02*
X52397819Y-51186380D01*
X52397819Y-51186380D02*
X52350200Y-51329237D01*
X52350200Y-51329237D02*
X52254961Y-51424475D01*
X52254961Y-51424475D02*
X52159723Y-51472094D01*
X52159723Y-51472094D02*
X51969247Y-51519713D01*
X51969247Y-51519713D02*
X51826390Y-51519713D01*
X51826390Y-51519713D02*
X51635914Y-51472094D01*
X51635914Y-51472094D02*
X51540676Y-51424475D01*
X51540676Y-51424475D02*
X51445438Y-51329237D01*
X51445438Y-51329237D02*
X51397819Y-51186380D01*
X51397819Y-51186380D02*
X51397819Y-51091142D01*
X51397819Y-51091142D02*
X51445438Y-50948285D01*
X51445438Y-50948285D02*
X51493057Y-50900666D01*
X51397819Y-50567332D02*
X51397819Y-49948285D01*
X51397819Y-49948285D02*
X51778771Y-50281618D01*
X51778771Y-50281618D02*
X51778771Y-50138761D01*
X51778771Y-50138761D02*
X51826390Y-50043523D01*
X51826390Y-50043523D02*
X51874009Y-49995904D01*
X51874009Y-49995904D02*
X51969247Y-49948285D01*
X51969247Y-49948285D02*
X52207342Y-49948285D01*
X52207342Y-49948285D02*
X52302580Y-49995904D01*
X52302580Y-49995904D02*
X52350200Y-50043523D01*
X52350200Y-50043523D02*
X52397819Y-50138761D01*
X52397819Y-50138761D02*
X52397819Y-50424475D01*
X52397819Y-50424475D02*
X52350200Y-50519713D01*
X52350200Y-50519713D02*
X52302580Y-50567332D01*
X21679819Y-8588333D02*
X22394104Y-8588333D01*
X22394104Y-8588333D02*
X22536961Y-8635952D01*
X22536961Y-8635952D02*
X22632200Y-8731190D01*
X22632200Y-8731190D02*
X22679819Y-8874047D01*
X22679819Y-8874047D02*
X22679819Y-8969285D01*
X21679819Y-7635952D02*
X21679819Y-8112142D01*
X21679819Y-8112142D02*
X22156009Y-8159761D01*
X22156009Y-8159761D02*
X22108390Y-8112142D01*
X22108390Y-8112142D02*
X22060771Y-8016904D01*
X22060771Y-8016904D02*
X22060771Y-7778809D01*
X22060771Y-7778809D02*
X22108390Y-7683571D01*
X22108390Y-7683571D02*
X22156009Y-7635952D01*
X22156009Y-7635952D02*
X22251247Y-7588333D01*
X22251247Y-7588333D02*
X22489342Y-7588333D01*
X22489342Y-7588333D02*
X22584580Y-7635952D01*
X22584580Y-7635952D02*
X22632200Y-7683571D01*
X22632200Y-7683571D02*
X22679819Y-7778809D01*
X22679819Y-7778809D02*
X22679819Y-8016904D01*
X22679819Y-8016904D02*
X22632200Y-8112142D01*
X22632200Y-8112142D02*
X22584580Y-8159761D01*
X68936142Y-91418580D02*
X68888523Y-91466200D01*
X68888523Y-91466200D02*
X68745666Y-91513819D01*
X68745666Y-91513819D02*
X68650428Y-91513819D01*
X68650428Y-91513819D02*
X68507571Y-91466200D01*
X68507571Y-91466200D02*
X68412333Y-91370961D01*
X68412333Y-91370961D02*
X68364714Y-91275723D01*
X68364714Y-91275723D02*
X68317095Y-91085247D01*
X68317095Y-91085247D02*
X68317095Y-90942390D01*
X68317095Y-90942390D02*
X68364714Y-90751914D01*
X68364714Y-90751914D02*
X68412333Y-90656676D01*
X68412333Y-90656676D02*
X68507571Y-90561438D01*
X68507571Y-90561438D02*
X68650428Y-90513819D01*
X68650428Y-90513819D02*
X68745666Y-90513819D01*
X68745666Y-90513819D02*
X68888523Y-90561438D01*
X68888523Y-90561438D02*
X68936142Y-90609057D01*
X69888523Y-91513819D02*
X69317095Y-91513819D01*
X69602809Y-91513819D02*
X69602809Y-90513819D01*
X69602809Y-90513819D02*
X69507571Y-90656676D01*
X69507571Y-90656676D02*
X69412333Y-90751914D01*
X69412333Y-90751914D02*
X69317095Y-90799533D01*
X70507571Y-90513819D02*
X70602809Y-90513819D01*
X70602809Y-90513819D02*
X70698047Y-90561438D01*
X70698047Y-90561438D02*
X70745666Y-90609057D01*
X70745666Y-90609057D02*
X70793285Y-90704295D01*
X70793285Y-90704295D02*
X70840904Y-90894771D01*
X70840904Y-90894771D02*
X70840904Y-91132866D01*
X70840904Y-91132866D02*
X70793285Y-91323342D01*
X70793285Y-91323342D02*
X70745666Y-91418580D01*
X70745666Y-91418580D02*
X70698047Y-91466200D01*
X70698047Y-91466200D02*
X70602809Y-91513819D01*
X70602809Y-91513819D02*
X70507571Y-91513819D01*
X70507571Y-91513819D02*
X70412333Y-91466200D01*
X70412333Y-91466200D02*
X70364714Y-91418580D01*
X70364714Y-91418580D02*
X70317095Y-91323342D01*
X70317095Y-91323342D02*
X70269476Y-91132866D01*
X70269476Y-91132866D02*
X70269476Y-90894771D01*
X70269476Y-90894771D02*
X70317095Y-90704295D01*
X70317095Y-90704295D02*
X70364714Y-90609057D01*
X70364714Y-90609057D02*
X70412333Y-90561438D01*
X70412333Y-90561438D02*
X70507571Y-90513819D01*
X45825580Y-54014666D02*
X45873200Y-54062285D01*
X45873200Y-54062285D02*
X45920819Y-54205142D01*
X45920819Y-54205142D02*
X45920819Y-54300380D01*
X45920819Y-54300380D02*
X45873200Y-54443237D01*
X45873200Y-54443237D02*
X45777961Y-54538475D01*
X45777961Y-54538475D02*
X45682723Y-54586094D01*
X45682723Y-54586094D02*
X45492247Y-54633713D01*
X45492247Y-54633713D02*
X45349390Y-54633713D01*
X45349390Y-54633713D02*
X45158914Y-54586094D01*
X45158914Y-54586094D02*
X45063676Y-54538475D01*
X45063676Y-54538475D02*
X44968438Y-54443237D01*
X44968438Y-54443237D02*
X44920819Y-54300380D01*
X44920819Y-54300380D02*
X44920819Y-54205142D01*
X44920819Y-54205142D02*
X44968438Y-54062285D01*
X44968438Y-54062285D02*
X45016057Y-54014666D01*
X45349390Y-53443237D02*
X45301771Y-53538475D01*
X45301771Y-53538475D02*
X45254152Y-53586094D01*
X45254152Y-53586094D02*
X45158914Y-53633713D01*
X45158914Y-53633713D02*
X45111295Y-53633713D01*
X45111295Y-53633713D02*
X45016057Y-53586094D01*
X45016057Y-53586094D02*
X44968438Y-53538475D01*
X44968438Y-53538475D02*
X44920819Y-53443237D01*
X44920819Y-53443237D02*
X44920819Y-53252761D01*
X44920819Y-53252761D02*
X44968438Y-53157523D01*
X44968438Y-53157523D02*
X45016057Y-53109904D01*
X45016057Y-53109904D02*
X45111295Y-53062285D01*
X45111295Y-53062285D02*
X45158914Y-53062285D01*
X45158914Y-53062285D02*
X45254152Y-53109904D01*
X45254152Y-53109904D02*
X45301771Y-53157523D01*
X45301771Y-53157523D02*
X45349390Y-53252761D01*
X45349390Y-53252761D02*
X45349390Y-53443237D01*
X45349390Y-53443237D02*
X45397009Y-53538475D01*
X45397009Y-53538475D02*
X45444628Y-53586094D01*
X45444628Y-53586094D02*
X45539866Y-53633713D01*
X45539866Y-53633713D02*
X45730342Y-53633713D01*
X45730342Y-53633713D02*
X45825580Y-53586094D01*
X45825580Y-53586094D02*
X45873200Y-53538475D01*
X45873200Y-53538475D02*
X45920819Y-53443237D01*
X45920819Y-53443237D02*
X45920819Y-53252761D01*
X45920819Y-53252761D02*
X45873200Y-53157523D01*
X45873200Y-53157523D02*
X45825580Y-53109904D01*
X45825580Y-53109904D02*
X45730342Y-53062285D01*
X45730342Y-53062285D02*
X45539866Y-53062285D01*
X45539866Y-53062285D02*
X45444628Y-53109904D01*
X45444628Y-53109904D02*
X45397009Y-53157523D01*
X45397009Y-53157523D02*
X45349390Y-53252761D01*
X33145333Y-78369080D02*
X33097714Y-78416700D01*
X33097714Y-78416700D02*
X32954857Y-78464319D01*
X32954857Y-78464319D02*
X32859619Y-78464319D01*
X32859619Y-78464319D02*
X32716762Y-78416700D01*
X32716762Y-78416700D02*
X32621524Y-78321461D01*
X32621524Y-78321461D02*
X32573905Y-78226223D01*
X32573905Y-78226223D02*
X32526286Y-78035747D01*
X32526286Y-78035747D02*
X32526286Y-77892890D01*
X32526286Y-77892890D02*
X32573905Y-77702414D01*
X32573905Y-77702414D02*
X32621524Y-77607176D01*
X32621524Y-77607176D02*
X32716762Y-77511938D01*
X32716762Y-77511938D02*
X32859619Y-77464319D01*
X32859619Y-77464319D02*
X32954857Y-77464319D01*
X32954857Y-77464319D02*
X33097714Y-77511938D01*
X33097714Y-77511938D02*
X33145333Y-77559557D01*
X34002476Y-77464319D02*
X33812000Y-77464319D01*
X33812000Y-77464319D02*
X33716762Y-77511938D01*
X33716762Y-77511938D02*
X33669143Y-77559557D01*
X33669143Y-77559557D02*
X33573905Y-77702414D01*
X33573905Y-77702414D02*
X33526286Y-77892890D01*
X33526286Y-77892890D02*
X33526286Y-78273842D01*
X33526286Y-78273842D02*
X33573905Y-78369080D01*
X33573905Y-78369080D02*
X33621524Y-78416700D01*
X33621524Y-78416700D02*
X33716762Y-78464319D01*
X33716762Y-78464319D02*
X33907238Y-78464319D01*
X33907238Y-78464319D02*
X34002476Y-78416700D01*
X34002476Y-78416700D02*
X34050095Y-78369080D01*
X34050095Y-78369080D02*
X34097714Y-78273842D01*
X34097714Y-78273842D02*
X34097714Y-78035747D01*
X34097714Y-78035747D02*
X34050095Y-77940509D01*
X34050095Y-77940509D02*
X34002476Y-77892890D01*
X34002476Y-77892890D02*
X33907238Y-77845271D01*
X33907238Y-77845271D02*
X33716762Y-77845271D01*
X33716762Y-77845271D02*
X33621524Y-77892890D01*
X33621524Y-77892890D02*
X33573905Y-77940509D01*
X33573905Y-77940509D02*
X33526286Y-78035747D01*
X43289319Y-88003166D02*
X42813128Y-88336499D01*
X43289319Y-88574594D02*
X42289319Y-88574594D01*
X42289319Y-88574594D02*
X42289319Y-88193642D01*
X42289319Y-88193642D02*
X42336938Y-88098404D01*
X42336938Y-88098404D02*
X42384557Y-88050785D01*
X42384557Y-88050785D02*
X42479795Y-88003166D01*
X42479795Y-88003166D02*
X42622652Y-88003166D01*
X42622652Y-88003166D02*
X42717890Y-88050785D01*
X42717890Y-88050785D02*
X42765509Y-88098404D01*
X42765509Y-88098404D02*
X42813128Y-88193642D01*
X42813128Y-88193642D02*
X42813128Y-88574594D01*
X42289319Y-87669832D02*
X42289319Y-87050785D01*
X42289319Y-87050785D02*
X42670271Y-87384118D01*
X42670271Y-87384118D02*
X42670271Y-87241261D01*
X42670271Y-87241261D02*
X42717890Y-87146023D01*
X42717890Y-87146023D02*
X42765509Y-87098404D01*
X42765509Y-87098404D02*
X42860747Y-87050785D01*
X42860747Y-87050785D02*
X43098842Y-87050785D01*
X43098842Y-87050785D02*
X43194080Y-87098404D01*
X43194080Y-87098404D02*
X43241700Y-87146023D01*
X43241700Y-87146023D02*
X43289319Y-87241261D01*
X43289319Y-87241261D02*
X43289319Y-87526975D01*
X43289319Y-87526975D02*
X43241700Y-87622213D01*
X43241700Y-87622213D02*
X43194080Y-87669832D01*
X67698580Y-83178666D02*
X67746200Y-83226285D01*
X67746200Y-83226285D02*
X67793819Y-83369142D01*
X67793819Y-83369142D02*
X67793819Y-83464380D01*
X67793819Y-83464380D02*
X67746200Y-83607237D01*
X67746200Y-83607237D02*
X67650961Y-83702475D01*
X67650961Y-83702475D02*
X67555723Y-83750094D01*
X67555723Y-83750094D02*
X67365247Y-83797713D01*
X67365247Y-83797713D02*
X67222390Y-83797713D01*
X67222390Y-83797713D02*
X67031914Y-83750094D01*
X67031914Y-83750094D02*
X66936676Y-83702475D01*
X66936676Y-83702475D02*
X66841438Y-83607237D01*
X66841438Y-83607237D02*
X66793819Y-83464380D01*
X66793819Y-83464380D02*
X66793819Y-83369142D01*
X66793819Y-83369142D02*
X66841438Y-83226285D01*
X66841438Y-83226285D02*
X66889057Y-83178666D01*
X67793819Y-82702475D02*
X67793819Y-82511999D01*
X67793819Y-82511999D02*
X67746200Y-82416761D01*
X67746200Y-82416761D02*
X67698580Y-82369142D01*
X67698580Y-82369142D02*
X67555723Y-82273904D01*
X67555723Y-82273904D02*
X67365247Y-82226285D01*
X67365247Y-82226285D02*
X66984295Y-82226285D01*
X66984295Y-82226285D02*
X66889057Y-82273904D01*
X66889057Y-82273904D02*
X66841438Y-82321523D01*
X66841438Y-82321523D02*
X66793819Y-82416761D01*
X66793819Y-82416761D02*
X66793819Y-82607237D01*
X66793819Y-82607237D02*
X66841438Y-82702475D01*
X66841438Y-82702475D02*
X66889057Y-82750094D01*
X66889057Y-82750094D02*
X66984295Y-82797713D01*
X66984295Y-82797713D02*
X67222390Y-82797713D01*
X67222390Y-82797713D02*
X67317628Y-82750094D01*
X67317628Y-82750094D02*
X67365247Y-82702475D01*
X67365247Y-82702475D02*
X67412866Y-82607237D01*
X67412866Y-82607237D02*
X67412866Y-82416761D01*
X67412866Y-82416761D02*
X67365247Y-82321523D01*
X67365247Y-82321523D02*
X67317628Y-82273904D01*
X67317628Y-82273904D02*
X67222390Y-82226285D01*
X70053580Y-73306666D02*
X70101200Y-73354285D01*
X70101200Y-73354285D02*
X70148819Y-73497142D01*
X70148819Y-73497142D02*
X70148819Y-73592380D01*
X70148819Y-73592380D02*
X70101200Y-73735237D01*
X70101200Y-73735237D02*
X70005961Y-73830475D01*
X70005961Y-73830475D02*
X69910723Y-73878094D01*
X69910723Y-73878094D02*
X69720247Y-73925713D01*
X69720247Y-73925713D02*
X69577390Y-73925713D01*
X69577390Y-73925713D02*
X69386914Y-73878094D01*
X69386914Y-73878094D02*
X69291676Y-73830475D01*
X69291676Y-73830475D02*
X69196438Y-73735237D01*
X69196438Y-73735237D02*
X69148819Y-73592380D01*
X69148819Y-73592380D02*
X69148819Y-73497142D01*
X69148819Y-73497142D02*
X69196438Y-73354285D01*
X69196438Y-73354285D02*
X69244057Y-73306666D01*
X69148819Y-72401904D02*
X69148819Y-72878094D01*
X69148819Y-72878094D02*
X69625009Y-72925713D01*
X69625009Y-72925713D02*
X69577390Y-72878094D01*
X69577390Y-72878094D02*
X69529771Y-72782856D01*
X69529771Y-72782856D02*
X69529771Y-72544761D01*
X69529771Y-72544761D02*
X69577390Y-72449523D01*
X69577390Y-72449523D02*
X69625009Y-72401904D01*
X69625009Y-72401904D02*
X69720247Y-72354285D01*
X69720247Y-72354285D02*
X69958342Y-72354285D01*
X69958342Y-72354285D02*
X70053580Y-72401904D01*
X70053580Y-72401904D02*
X70101200Y-72449523D01*
X70101200Y-72449523D02*
X70148819Y-72544761D01*
X70148819Y-72544761D02*
X70148819Y-72782856D01*
X70148819Y-72782856D02*
X70101200Y-72878094D01*
X70101200Y-72878094D02*
X70053580Y-72925713D01*
X52072080Y-61475857D02*
X52119700Y-61523476D01*
X52119700Y-61523476D02*
X52167319Y-61666333D01*
X52167319Y-61666333D02*
X52167319Y-61761571D01*
X52167319Y-61761571D02*
X52119700Y-61904428D01*
X52119700Y-61904428D02*
X52024461Y-61999666D01*
X52024461Y-61999666D02*
X51929223Y-62047285D01*
X51929223Y-62047285D02*
X51738747Y-62094904D01*
X51738747Y-62094904D02*
X51595890Y-62094904D01*
X51595890Y-62094904D02*
X51405414Y-62047285D01*
X51405414Y-62047285D02*
X51310176Y-61999666D01*
X51310176Y-61999666D02*
X51214938Y-61904428D01*
X51214938Y-61904428D02*
X51167319Y-61761571D01*
X51167319Y-61761571D02*
X51167319Y-61666333D01*
X51167319Y-61666333D02*
X51214938Y-61523476D01*
X51214938Y-61523476D02*
X51262557Y-61475857D01*
X52167319Y-60523476D02*
X52167319Y-61094904D01*
X52167319Y-60809190D02*
X51167319Y-60809190D01*
X51167319Y-60809190D02*
X51310176Y-60904428D01*
X51310176Y-60904428D02*
X51405414Y-60999666D01*
X51405414Y-60999666D02*
X51453033Y-61094904D01*
X51167319Y-60190142D02*
X51167319Y-59571095D01*
X51167319Y-59571095D02*
X51548271Y-59904428D01*
X51548271Y-59904428D02*
X51548271Y-59761571D01*
X51548271Y-59761571D02*
X51595890Y-59666333D01*
X51595890Y-59666333D02*
X51643509Y-59618714D01*
X51643509Y-59618714D02*
X51738747Y-59571095D01*
X51738747Y-59571095D02*
X51976842Y-59571095D01*
X51976842Y-59571095D02*
X52072080Y-59618714D01*
X52072080Y-59618714D02*
X52119700Y-59666333D01*
X52119700Y-59666333D02*
X52167319Y-59761571D01*
X52167319Y-59761571D02*
X52167319Y-60047285D01*
X52167319Y-60047285D02*
X52119700Y-60142523D01*
X52119700Y-60142523D02*
X52072080Y-60190142D01*
X49268142Y-42015580D02*
X49220523Y-42063200D01*
X49220523Y-42063200D02*
X49077666Y-42110819D01*
X49077666Y-42110819D02*
X48982428Y-42110819D01*
X48982428Y-42110819D02*
X48839571Y-42063200D01*
X48839571Y-42063200D02*
X48744333Y-41967961D01*
X48744333Y-41967961D02*
X48696714Y-41872723D01*
X48696714Y-41872723D02*
X48649095Y-41682247D01*
X48649095Y-41682247D02*
X48649095Y-41539390D01*
X48649095Y-41539390D02*
X48696714Y-41348914D01*
X48696714Y-41348914D02*
X48744333Y-41253676D01*
X48744333Y-41253676D02*
X48839571Y-41158438D01*
X48839571Y-41158438D02*
X48982428Y-41110819D01*
X48982428Y-41110819D02*
X49077666Y-41110819D01*
X49077666Y-41110819D02*
X49220523Y-41158438D01*
X49220523Y-41158438D02*
X49268142Y-41206057D01*
X50220523Y-42110819D02*
X49649095Y-42110819D01*
X49934809Y-42110819D02*
X49934809Y-41110819D01*
X49934809Y-41110819D02*
X49839571Y-41253676D01*
X49839571Y-41253676D02*
X49744333Y-41348914D01*
X49744333Y-41348914D02*
X49649095Y-41396533D01*
X51172904Y-42110819D02*
X50601476Y-42110819D01*
X50887190Y-42110819D02*
X50887190Y-41110819D01*
X50887190Y-41110819D02*
X50791952Y-41253676D01*
X50791952Y-41253676D02*
X50696714Y-41348914D01*
X50696714Y-41348914D02*
X50601476Y-41396533D01*
X49640833Y-68780819D02*
X49307500Y-68304628D01*
X49069405Y-68780819D02*
X49069405Y-67780819D01*
X49069405Y-67780819D02*
X49450357Y-67780819D01*
X49450357Y-67780819D02*
X49545595Y-67828438D01*
X49545595Y-67828438D02*
X49593214Y-67876057D01*
X49593214Y-67876057D02*
X49640833Y-67971295D01*
X49640833Y-67971295D02*
X49640833Y-68114152D01*
X49640833Y-68114152D02*
X49593214Y-68209390D01*
X49593214Y-68209390D02*
X49545595Y-68257009D01*
X49545595Y-68257009D02*
X49450357Y-68304628D01*
X49450357Y-68304628D02*
X49069405Y-68304628D01*
X50212262Y-68209390D02*
X50117024Y-68161771D01*
X50117024Y-68161771D02*
X50069405Y-68114152D01*
X50069405Y-68114152D02*
X50021786Y-68018914D01*
X50021786Y-68018914D02*
X50021786Y-67971295D01*
X50021786Y-67971295D02*
X50069405Y-67876057D01*
X50069405Y-67876057D02*
X50117024Y-67828438D01*
X50117024Y-67828438D02*
X50212262Y-67780819D01*
X50212262Y-67780819D02*
X50402738Y-67780819D01*
X50402738Y-67780819D02*
X50497976Y-67828438D01*
X50497976Y-67828438D02*
X50545595Y-67876057D01*
X50545595Y-67876057D02*
X50593214Y-67971295D01*
X50593214Y-67971295D02*
X50593214Y-68018914D01*
X50593214Y-68018914D02*
X50545595Y-68114152D01*
X50545595Y-68114152D02*
X50497976Y-68161771D01*
X50497976Y-68161771D02*
X50402738Y-68209390D01*
X50402738Y-68209390D02*
X50212262Y-68209390D01*
X50212262Y-68209390D02*
X50117024Y-68257009D01*
X50117024Y-68257009D02*
X50069405Y-68304628D01*
X50069405Y-68304628D02*
X50021786Y-68399866D01*
X50021786Y-68399866D02*
X50021786Y-68590342D01*
X50021786Y-68590342D02*
X50069405Y-68685580D01*
X50069405Y-68685580D02*
X50117024Y-68733200D01*
X50117024Y-68733200D02*
X50212262Y-68780819D01*
X50212262Y-68780819D02*
X50402738Y-68780819D01*
X50402738Y-68780819D02*
X50497976Y-68733200D01*
X50497976Y-68733200D02*
X50545595Y-68685580D01*
X50545595Y-68685580D02*
X50593214Y-68590342D01*
X50593214Y-68590342D02*
X50593214Y-68399866D01*
X50593214Y-68399866D02*
X50545595Y-68304628D01*
X50545595Y-68304628D02*
X50497976Y-68257009D01*
X50497976Y-68257009D02*
X50402738Y-68209390D01*
X32573905Y-75284319D02*
X32573905Y-74284319D01*
X32573905Y-74284319D02*
X32812000Y-74284319D01*
X32812000Y-74284319D02*
X32954857Y-74331938D01*
X32954857Y-74331938D02*
X33050095Y-74427176D01*
X33050095Y-74427176D02*
X33097714Y-74522414D01*
X33097714Y-74522414D02*
X33145333Y-74712890D01*
X33145333Y-74712890D02*
X33145333Y-74855747D01*
X33145333Y-74855747D02*
X33097714Y-75046223D01*
X33097714Y-75046223D02*
X33050095Y-75141461D01*
X33050095Y-75141461D02*
X32954857Y-75236700D01*
X32954857Y-75236700D02*
X32812000Y-75284319D01*
X32812000Y-75284319D02*
X32573905Y-75284319D01*
X34097714Y-75284319D02*
X33526286Y-75284319D01*
X33812000Y-75284319D02*
X33812000Y-74284319D01*
X33812000Y-74284319D02*
X33716762Y-74427176D01*
X33716762Y-74427176D02*
X33621524Y-74522414D01*
X33621524Y-74522414D02*
X33526286Y-74570033D01*
X41362333Y-43510580D02*
X41314714Y-43558200D01*
X41314714Y-43558200D02*
X41171857Y-43605819D01*
X41171857Y-43605819D02*
X41076619Y-43605819D01*
X41076619Y-43605819D02*
X40933762Y-43558200D01*
X40933762Y-43558200D02*
X40838524Y-43462961D01*
X40838524Y-43462961D02*
X40790905Y-43367723D01*
X40790905Y-43367723D02*
X40743286Y-43177247D01*
X40743286Y-43177247D02*
X40743286Y-43034390D01*
X40743286Y-43034390D02*
X40790905Y-42843914D01*
X40790905Y-42843914D02*
X40838524Y-42748676D01*
X40838524Y-42748676D02*
X40933762Y-42653438D01*
X40933762Y-42653438D02*
X41076619Y-42605819D01*
X41076619Y-42605819D02*
X41171857Y-42605819D01*
X41171857Y-42605819D02*
X41314714Y-42653438D01*
X41314714Y-42653438D02*
X41362333Y-42701057D01*
X42314714Y-43605819D02*
X41743286Y-43605819D01*
X42029000Y-43605819D02*
X42029000Y-42605819D01*
X42029000Y-42605819D02*
X41933762Y-42748676D01*
X41933762Y-42748676D02*
X41838524Y-42843914D01*
X41838524Y-42843914D02*
X41743286Y-42891533D01*
X52778819Y-45092857D02*
X52302628Y-45426190D01*
X52778819Y-45664285D02*
X51778819Y-45664285D01*
X51778819Y-45664285D02*
X51778819Y-45283333D01*
X51778819Y-45283333D02*
X51826438Y-45188095D01*
X51826438Y-45188095D02*
X51874057Y-45140476D01*
X51874057Y-45140476D02*
X51969295Y-45092857D01*
X51969295Y-45092857D02*
X52112152Y-45092857D01*
X52112152Y-45092857D02*
X52207390Y-45140476D01*
X52207390Y-45140476D02*
X52255009Y-45188095D01*
X52255009Y-45188095D02*
X52302628Y-45283333D01*
X52302628Y-45283333D02*
X52302628Y-45664285D01*
X52778819Y-44140476D02*
X52778819Y-44711904D01*
X52778819Y-44426190D02*
X51778819Y-44426190D01*
X51778819Y-44426190D02*
X51921676Y-44521428D01*
X51921676Y-44521428D02*
X52016914Y-44616666D01*
X52016914Y-44616666D02*
X52064533Y-44711904D01*
X51778819Y-43807142D02*
X51778819Y-43140476D01*
X51778819Y-43140476D02*
X52778819Y-43569047D01*
X42654319Y-80256166D02*
X42178128Y-80589499D01*
X42654319Y-80827594D02*
X41654319Y-80827594D01*
X41654319Y-80827594D02*
X41654319Y-80446642D01*
X41654319Y-80446642D02*
X41701938Y-80351404D01*
X41701938Y-80351404D02*
X41749557Y-80303785D01*
X41749557Y-80303785D02*
X41844795Y-80256166D01*
X41844795Y-80256166D02*
X41987652Y-80256166D01*
X41987652Y-80256166D02*
X42082890Y-80303785D01*
X42082890Y-80303785D02*
X42130509Y-80351404D01*
X42130509Y-80351404D02*
X42178128Y-80446642D01*
X42178128Y-80446642D02*
X42178128Y-80827594D01*
X41987652Y-79399023D02*
X42654319Y-79399023D01*
X41606700Y-79637118D02*
X42320985Y-79875213D01*
X42320985Y-79875213D02*
X42320985Y-79256166D01*
X46569333Y-43510580D02*
X46521714Y-43558200D01*
X46521714Y-43558200D02*
X46378857Y-43605819D01*
X46378857Y-43605819D02*
X46283619Y-43605819D01*
X46283619Y-43605819D02*
X46140762Y-43558200D01*
X46140762Y-43558200D02*
X46045524Y-43462961D01*
X46045524Y-43462961D02*
X45997905Y-43367723D01*
X45997905Y-43367723D02*
X45950286Y-43177247D01*
X45950286Y-43177247D02*
X45950286Y-43034390D01*
X45950286Y-43034390D02*
X45997905Y-42843914D01*
X45997905Y-42843914D02*
X46045524Y-42748676D01*
X46045524Y-42748676D02*
X46140762Y-42653438D01*
X46140762Y-42653438D02*
X46283619Y-42605819D01*
X46283619Y-42605819D02*
X46378857Y-42605819D01*
X46378857Y-42605819D02*
X46521714Y-42653438D01*
X46521714Y-42653438D02*
X46569333Y-42701057D01*
X47426476Y-42939152D02*
X47426476Y-43605819D01*
X47188381Y-42558200D02*
X46950286Y-43272485D01*
X46950286Y-43272485D02*
X47569333Y-43272485D01*
X81032819Y-50371333D02*
X81747104Y-50371333D01*
X81747104Y-50371333D02*
X81889961Y-50418952D01*
X81889961Y-50418952D02*
X81985200Y-50514190D01*
X81985200Y-50514190D02*
X82032819Y-50657047D01*
X82032819Y-50657047D02*
X82032819Y-50752285D01*
X81128057Y-49942761D02*
X81080438Y-49895142D01*
X81080438Y-49895142D02*
X81032819Y-49799904D01*
X81032819Y-49799904D02*
X81032819Y-49561809D01*
X81032819Y-49561809D02*
X81080438Y-49466571D01*
X81080438Y-49466571D02*
X81128057Y-49418952D01*
X81128057Y-49418952D02*
X81223295Y-49371333D01*
X81223295Y-49371333D02*
X81318533Y-49371333D01*
X81318533Y-49371333D02*
X81461390Y-49418952D01*
X81461390Y-49418952D02*
X82032819Y-49990380D01*
X82032819Y-49990380D02*
X82032819Y-49371333D01*
X51437080Y-72016857D02*
X51484700Y-72064476D01*
X51484700Y-72064476D02*
X51532319Y-72207333D01*
X51532319Y-72207333D02*
X51532319Y-72302571D01*
X51532319Y-72302571D02*
X51484700Y-72445428D01*
X51484700Y-72445428D02*
X51389461Y-72540666D01*
X51389461Y-72540666D02*
X51294223Y-72588285D01*
X51294223Y-72588285D02*
X51103747Y-72635904D01*
X51103747Y-72635904D02*
X50960890Y-72635904D01*
X50960890Y-72635904D02*
X50770414Y-72588285D01*
X50770414Y-72588285D02*
X50675176Y-72540666D01*
X50675176Y-72540666D02*
X50579938Y-72445428D01*
X50579938Y-72445428D02*
X50532319Y-72302571D01*
X50532319Y-72302571D02*
X50532319Y-72207333D01*
X50532319Y-72207333D02*
X50579938Y-72064476D01*
X50579938Y-72064476D02*
X50627557Y-72016857D01*
X51532319Y-71064476D02*
X51532319Y-71635904D01*
X51532319Y-71350190D02*
X50532319Y-71350190D01*
X50532319Y-71350190D02*
X50675176Y-71445428D01*
X50675176Y-71445428D02*
X50770414Y-71540666D01*
X50770414Y-71540666D02*
X50818033Y-71635904D01*
X50865652Y-70207333D02*
X51532319Y-70207333D01*
X50484700Y-70445428D02*
X51198985Y-70683523D01*
X51198985Y-70683523D02*
X51198985Y-70064476D01*
X73076319Y-47124857D02*
X72600128Y-47458190D01*
X73076319Y-47696285D02*
X72076319Y-47696285D01*
X72076319Y-47696285D02*
X72076319Y-47315333D01*
X72076319Y-47315333D02*
X72123938Y-47220095D01*
X72123938Y-47220095D02*
X72171557Y-47172476D01*
X72171557Y-47172476D02*
X72266795Y-47124857D01*
X72266795Y-47124857D02*
X72409652Y-47124857D01*
X72409652Y-47124857D02*
X72504890Y-47172476D01*
X72504890Y-47172476D02*
X72552509Y-47220095D01*
X72552509Y-47220095D02*
X72600128Y-47315333D01*
X72600128Y-47315333D02*
X72600128Y-47696285D01*
X73076319Y-46172476D02*
X73076319Y-46743904D01*
X73076319Y-46458190D02*
X72076319Y-46458190D01*
X72076319Y-46458190D02*
X72219176Y-46553428D01*
X72219176Y-46553428D02*
X72314414Y-46648666D01*
X72314414Y-46648666D02*
X72362033Y-46743904D01*
X72409652Y-45315333D02*
X73076319Y-45315333D01*
X72028700Y-45553428D02*
X72742985Y-45791523D01*
X72742985Y-45791523D02*
X72742985Y-45172476D01*
X38222833Y-103200319D02*
X37889500Y-102724128D01*
X37651405Y-103200319D02*
X37651405Y-102200319D01*
X37651405Y-102200319D02*
X38032357Y-102200319D01*
X38032357Y-102200319D02*
X38127595Y-102247938D01*
X38127595Y-102247938D02*
X38175214Y-102295557D01*
X38175214Y-102295557D02*
X38222833Y-102390795D01*
X38222833Y-102390795D02*
X38222833Y-102533652D01*
X38222833Y-102533652D02*
X38175214Y-102628890D01*
X38175214Y-102628890D02*
X38127595Y-102676509D01*
X38127595Y-102676509D02*
X38032357Y-102724128D01*
X38032357Y-102724128D02*
X37651405Y-102724128D01*
X39175214Y-103200319D02*
X38603786Y-103200319D01*
X38889500Y-103200319D02*
X38889500Y-102200319D01*
X38889500Y-102200319D02*
X38794262Y-102343176D01*
X38794262Y-102343176D02*
X38699024Y-102438414D01*
X38699024Y-102438414D02*
X38603786Y-102486033D01*
X77176333Y-44015819D02*
X76843000Y-43539628D01*
X76604905Y-44015819D02*
X76604905Y-43015819D01*
X76604905Y-43015819D02*
X76985857Y-43015819D01*
X76985857Y-43015819D02*
X77081095Y-43063438D01*
X77081095Y-43063438D02*
X77128714Y-43111057D01*
X77128714Y-43111057D02*
X77176333Y-43206295D01*
X77176333Y-43206295D02*
X77176333Y-43349152D01*
X77176333Y-43349152D02*
X77128714Y-43444390D01*
X77128714Y-43444390D02*
X77081095Y-43492009D01*
X77081095Y-43492009D02*
X76985857Y-43539628D01*
X76985857Y-43539628D02*
X76604905Y-43539628D01*
X77652524Y-44015819D02*
X77843000Y-44015819D01*
X77843000Y-44015819D02*
X77938238Y-43968200D01*
X77938238Y-43968200D02*
X77985857Y-43920580D01*
X77985857Y-43920580D02*
X78081095Y-43777723D01*
X78081095Y-43777723D02*
X78128714Y-43587247D01*
X78128714Y-43587247D02*
X78128714Y-43206295D01*
X78128714Y-43206295D02*
X78081095Y-43111057D01*
X78081095Y-43111057D02*
X78033476Y-43063438D01*
X78033476Y-43063438D02*
X77938238Y-43015819D01*
X77938238Y-43015819D02*
X77747762Y-43015819D01*
X77747762Y-43015819D02*
X77652524Y-43063438D01*
X77652524Y-43063438D02*
X77604905Y-43111057D01*
X77604905Y-43111057D02*
X77557286Y-43206295D01*
X77557286Y-43206295D02*
X77557286Y-43444390D01*
X77557286Y-43444390D02*
X77604905Y-43539628D01*
X77604905Y-43539628D02*
X77652524Y-43587247D01*
X77652524Y-43587247D02*
X77747762Y-43634866D01*
X77747762Y-43634866D02*
X77938238Y-43634866D01*
X77938238Y-43634866D02*
X78033476Y-43587247D01*
X78033476Y-43587247D02*
X78081095Y-43539628D01*
X78081095Y-43539628D02*
X78128714Y-43444390D01*
X59023642Y-43101071D02*
X58690309Y-42624880D01*
X58452214Y-43101071D02*
X58452214Y-42101071D01*
X58452214Y-42101071D02*
X58833166Y-42101071D01*
X58833166Y-42101071D02*
X58928404Y-42148690D01*
X58928404Y-42148690D02*
X58976023Y-42196309D01*
X58976023Y-42196309D02*
X59023642Y-42291547D01*
X59023642Y-42291547D02*
X59023642Y-42434404D01*
X59023642Y-42434404D02*
X58976023Y-42529642D01*
X58976023Y-42529642D02*
X58928404Y-42577261D01*
X58928404Y-42577261D02*
X58833166Y-42624880D01*
X58833166Y-42624880D02*
X58452214Y-42624880D01*
X59976023Y-43101071D02*
X59404595Y-43101071D01*
X59690309Y-43101071D02*
X59690309Y-42101071D01*
X59690309Y-42101071D02*
X59595071Y-42243928D01*
X59595071Y-42243928D02*
X59499833Y-42339166D01*
X59499833Y-42339166D02*
X59404595Y-42386785D01*
X60356976Y-42196309D02*
X60404595Y-42148690D01*
X60404595Y-42148690D02*
X60499833Y-42101071D01*
X60499833Y-42101071D02*
X60737928Y-42101071D01*
X60737928Y-42101071D02*
X60833166Y-42148690D01*
X60833166Y-42148690D02*
X60880785Y-42196309D01*
X60880785Y-42196309D02*
X60928404Y-42291547D01*
X60928404Y-42291547D02*
X60928404Y-42386785D01*
X60928404Y-42386785D02*
X60880785Y-42529642D01*
X60880785Y-42529642D02*
X60309357Y-43101071D01*
X60309357Y-43101071D02*
X60928404Y-43101071D01*
X59023642Y-39545071D02*
X58690309Y-39068880D01*
X58452214Y-39545071D02*
X58452214Y-38545071D01*
X58452214Y-38545071D02*
X58833166Y-38545071D01*
X58833166Y-38545071D02*
X58928404Y-38592690D01*
X58928404Y-38592690D02*
X58976023Y-38640309D01*
X58976023Y-38640309D02*
X59023642Y-38735547D01*
X59023642Y-38735547D02*
X59023642Y-38878404D01*
X59023642Y-38878404D02*
X58976023Y-38973642D01*
X58976023Y-38973642D02*
X58928404Y-39021261D01*
X58928404Y-39021261D02*
X58833166Y-39068880D01*
X58833166Y-39068880D02*
X58452214Y-39068880D01*
X59976023Y-39545071D02*
X59404595Y-39545071D01*
X59690309Y-39545071D02*
X59690309Y-38545071D01*
X59690309Y-38545071D02*
X59595071Y-38687928D01*
X59595071Y-38687928D02*
X59499833Y-38783166D01*
X59499833Y-38783166D02*
X59404595Y-38830785D01*
X60309357Y-38545071D02*
X60928404Y-38545071D01*
X60928404Y-38545071D02*
X60595071Y-38926023D01*
X60595071Y-38926023D02*
X60737928Y-38926023D01*
X60737928Y-38926023D02*
X60833166Y-38973642D01*
X60833166Y-38973642D02*
X60880785Y-39021261D01*
X60880785Y-39021261D02*
X60928404Y-39116499D01*
X60928404Y-39116499D02*
X60928404Y-39354594D01*
X60928404Y-39354594D02*
X60880785Y-39449832D01*
X60880785Y-39449832D02*
X60833166Y-39497452D01*
X60833166Y-39497452D02*
X60737928Y-39545071D01*
X60737928Y-39545071D02*
X60452214Y-39545071D01*
X60452214Y-39545071D02*
X60356976Y-39497452D01*
X60356976Y-39497452D02*
X60309357Y-39449832D01*
X24382319Y-77551833D02*
X25096604Y-77551833D01*
X25096604Y-77551833D02*
X25239461Y-77599452D01*
X25239461Y-77599452D02*
X25334700Y-77694690D01*
X25334700Y-77694690D02*
X25382319Y-77837547D01*
X25382319Y-77837547D02*
X25382319Y-77932785D01*
X24382319Y-77170880D02*
X24382319Y-76504214D01*
X24382319Y-76504214D02*
X25382319Y-76932785D01*
X44030595Y-57874819D02*
X44030595Y-58684342D01*
X44030595Y-58684342D02*
X44078214Y-58779580D01*
X44078214Y-58779580D02*
X44125833Y-58827200D01*
X44125833Y-58827200D02*
X44221071Y-58874819D01*
X44221071Y-58874819D02*
X44411547Y-58874819D01*
X44411547Y-58874819D02*
X44506785Y-58827200D01*
X44506785Y-58827200D02*
X44554404Y-58779580D01*
X44554404Y-58779580D02*
X44602023Y-58684342D01*
X44602023Y-58684342D02*
X44602023Y-57874819D01*
X45602023Y-58874819D02*
X45030595Y-58874819D01*
X45316309Y-58874819D02*
X45316309Y-57874819D01*
X45316309Y-57874819D02*
X45221071Y-58017676D01*
X45221071Y-58017676D02*
X45125833Y-58112914D01*
X45125833Y-58112914D02*
X45030595Y-58160533D01*
X64224819Y-62991904D02*
X65034342Y-62991904D01*
X65034342Y-62991904D02*
X65129580Y-62944285D01*
X65129580Y-62944285D02*
X65177200Y-62896666D01*
X65177200Y-62896666D02*
X65224819Y-62801428D01*
X65224819Y-62801428D02*
X65224819Y-62610952D01*
X65224819Y-62610952D02*
X65177200Y-62515714D01*
X65177200Y-62515714D02*
X65129580Y-62468095D01*
X65129580Y-62468095D02*
X65034342Y-62420476D01*
X65034342Y-62420476D02*
X64224819Y-62420476D01*
X64320057Y-61991904D02*
X64272438Y-61944285D01*
X64272438Y-61944285D02*
X64224819Y-61849047D01*
X64224819Y-61849047D02*
X64224819Y-61610952D01*
X64224819Y-61610952D02*
X64272438Y-61515714D01*
X64272438Y-61515714D02*
X64320057Y-61468095D01*
X64320057Y-61468095D02*
X64415295Y-61420476D01*
X64415295Y-61420476D02*
X64510533Y-61420476D01*
X64510533Y-61420476D02*
X64653390Y-61468095D01*
X64653390Y-61468095D02*
X65224819Y-62039523D01*
X65224819Y-62039523D02*
X65224819Y-61420476D01*
X41874319Y-93173166D02*
X41398128Y-93506499D01*
X41874319Y-93744594D02*
X40874319Y-93744594D01*
X40874319Y-93744594D02*
X40874319Y-93363642D01*
X40874319Y-93363642D02*
X40921938Y-93268404D01*
X40921938Y-93268404D02*
X40969557Y-93220785D01*
X40969557Y-93220785D02*
X41064795Y-93173166D01*
X41064795Y-93173166D02*
X41207652Y-93173166D01*
X41207652Y-93173166D02*
X41302890Y-93220785D01*
X41302890Y-93220785D02*
X41350509Y-93268404D01*
X41350509Y-93268404D02*
X41398128Y-93363642D01*
X41398128Y-93363642D02*
X41398128Y-93744594D01*
X40969557Y-92792213D02*
X40921938Y-92744594D01*
X40921938Y-92744594D02*
X40874319Y-92649356D01*
X40874319Y-92649356D02*
X40874319Y-92411261D01*
X40874319Y-92411261D02*
X40921938Y-92316023D01*
X40921938Y-92316023D02*
X40969557Y-92268404D01*
X40969557Y-92268404D02*
X41064795Y-92220785D01*
X41064795Y-92220785D02*
X41160033Y-92220785D01*
X41160033Y-92220785D02*
X41302890Y-92268404D01*
X41302890Y-92268404D02*
X41874319Y-92839832D01*
X41874319Y-92839832D02*
X41874319Y-92220785D01*
X47254095Y-22132819D02*
X47254095Y-22942342D01*
X47254095Y-22942342D02*
X47301714Y-23037580D01*
X47301714Y-23037580D02*
X47349333Y-23085200D01*
X47349333Y-23085200D02*
X47444571Y-23132819D01*
X47444571Y-23132819D02*
X47635047Y-23132819D01*
X47635047Y-23132819D02*
X47730285Y-23085200D01*
X47730285Y-23085200D02*
X47777904Y-23037580D01*
X47777904Y-23037580D02*
X47825523Y-22942342D01*
X47825523Y-22942342D02*
X47825523Y-22132819D01*
X48206476Y-22132819D02*
X48825523Y-22132819D01*
X48825523Y-22132819D02*
X48492190Y-22513771D01*
X48492190Y-22513771D02*
X48635047Y-22513771D01*
X48635047Y-22513771D02*
X48730285Y-22561390D01*
X48730285Y-22561390D02*
X48777904Y-22609009D01*
X48777904Y-22609009D02*
X48825523Y-22704247D01*
X48825523Y-22704247D02*
X48825523Y-22942342D01*
X48825523Y-22942342D02*
X48777904Y-23037580D01*
X48777904Y-23037580D02*
X48730285Y-23085200D01*
X48730285Y-23085200D02*
X48635047Y-23132819D01*
X48635047Y-23132819D02*
X48349333Y-23132819D01*
X48349333Y-23132819D02*
X48254095Y-23085200D01*
X48254095Y-23085200D02*
X48206476Y-23037580D01*
X77208142Y-40078819D02*
X76874809Y-39602628D01*
X76636714Y-40078819D02*
X76636714Y-39078819D01*
X76636714Y-39078819D02*
X77017666Y-39078819D01*
X77017666Y-39078819D02*
X77112904Y-39126438D01*
X77112904Y-39126438D02*
X77160523Y-39174057D01*
X77160523Y-39174057D02*
X77208142Y-39269295D01*
X77208142Y-39269295D02*
X77208142Y-39412152D01*
X77208142Y-39412152D02*
X77160523Y-39507390D01*
X77160523Y-39507390D02*
X77112904Y-39555009D01*
X77112904Y-39555009D02*
X77017666Y-39602628D01*
X77017666Y-39602628D02*
X76636714Y-39602628D01*
X78160523Y-40078819D02*
X77589095Y-40078819D01*
X77874809Y-40078819D02*
X77874809Y-39078819D01*
X77874809Y-39078819D02*
X77779571Y-39221676D01*
X77779571Y-39221676D02*
X77684333Y-39316914D01*
X77684333Y-39316914D02*
X77589095Y-39364533D01*
X78779571Y-39078819D02*
X78874809Y-39078819D01*
X78874809Y-39078819D02*
X78970047Y-39126438D01*
X78970047Y-39126438D02*
X79017666Y-39174057D01*
X79017666Y-39174057D02*
X79065285Y-39269295D01*
X79065285Y-39269295D02*
X79112904Y-39459771D01*
X79112904Y-39459771D02*
X79112904Y-39697866D01*
X79112904Y-39697866D02*
X79065285Y-39888342D01*
X79065285Y-39888342D02*
X79017666Y-39983580D01*
X79017666Y-39983580D02*
X78970047Y-40031200D01*
X78970047Y-40031200D02*
X78874809Y-40078819D01*
X78874809Y-40078819D02*
X78779571Y-40078819D01*
X78779571Y-40078819D02*
X78684333Y-40031200D01*
X78684333Y-40031200D02*
X78636714Y-39983580D01*
X78636714Y-39983580D02*
X78589095Y-39888342D01*
X78589095Y-39888342D02*
X78541476Y-39697866D01*
X78541476Y-39697866D02*
X78541476Y-39459771D01*
X78541476Y-39459771D02*
X78589095Y-39269295D01*
X78589095Y-39269295D02*
X78636714Y-39174057D01*
X78636714Y-39174057D02*
X78684333Y-39126438D01*
X78684333Y-39126438D02*
X78779571Y-39078819D01*
X55141905Y-43000819D02*
X55141905Y-42000819D01*
X55141905Y-42000819D02*
X55380000Y-42000819D01*
X55380000Y-42000819D02*
X55522857Y-42048438D01*
X55522857Y-42048438D02*
X55618095Y-42143676D01*
X55618095Y-42143676D02*
X55665714Y-42238914D01*
X55665714Y-42238914D02*
X55713333Y-42429390D01*
X55713333Y-42429390D02*
X55713333Y-42572247D01*
X55713333Y-42572247D02*
X55665714Y-42762723D01*
X55665714Y-42762723D02*
X55618095Y-42857961D01*
X55618095Y-42857961D02*
X55522857Y-42953200D01*
X55522857Y-42953200D02*
X55380000Y-43000819D01*
X55380000Y-43000819D02*
X55141905Y-43000819D01*
X56094286Y-42096057D02*
X56141905Y-42048438D01*
X56141905Y-42048438D02*
X56237143Y-42000819D01*
X56237143Y-42000819D02*
X56475238Y-42000819D01*
X56475238Y-42000819D02*
X56570476Y-42048438D01*
X56570476Y-42048438D02*
X56618095Y-42096057D01*
X56618095Y-42096057D02*
X56665714Y-42191295D01*
X56665714Y-42191295D02*
X56665714Y-42286533D01*
X56665714Y-42286533D02*
X56618095Y-42429390D01*
X56618095Y-42429390D02*
X56046667Y-43000819D01*
X56046667Y-43000819D02*
X56665714Y-43000819D01*
X49640833Y-66240819D02*
X49307500Y-65764628D01*
X49069405Y-66240819D02*
X49069405Y-65240819D01*
X49069405Y-65240819D02*
X49450357Y-65240819D01*
X49450357Y-65240819D02*
X49545595Y-65288438D01*
X49545595Y-65288438D02*
X49593214Y-65336057D01*
X49593214Y-65336057D02*
X49640833Y-65431295D01*
X49640833Y-65431295D02*
X49640833Y-65574152D01*
X49640833Y-65574152D02*
X49593214Y-65669390D01*
X49593214Y-65669390D02*
X49545595Y-65717009D01*
X49545595Y-65717009D02*
X49450357Y-65764628D01*
X49450357Y-65764628D02*
X49069405Y-65764628D01*
X49974167Y-65240819D02*
X50640833Y-65240819D01*
X50640833Y-65240819D02*
X50212262Y-66240819D01*
X64615666Y-88254819D02*
X64615666Y-88969104D01*
X64615666Y-88969104D02*
X64568047Y-89111961D01*
X64568047Y-89111961D02*
X64472809Y-89207200D01*
X64472809Y-89207200D02*
X64329952Y-89254819D01*
X64329952Y-89254819D02*
X64234714Y-89254819D01*
X65091857Y-89254819D02*
X65091857Y-88254819D01*
X65091857Y-88254819D02*
X65472809Y-88254819D01*
X65472809Y-88254819D02*
X65568047Y-88302438D01*
X65568047Y-88302438D02*
X65615666Y-88350057D01*
X65615666Y-88350057D02*
X65663285Y-88445295D01*
X65663285Y-88445295D02*
X65663285Y-88588152D01*
X65663285Y-88588152D02*
X65615666Y-88683390D01*
X65615666Y-88683390D02*
X65568047Y-88731009D01*
X65568047Y-88731009D02*
X65472809Y-88778628D01*
X65472809Y-88778628D02*
X65091857Y-88778628D01*
X66615666Y-89254819D02*
X66044238Y-89254819D01*
X66329952Y-89254819D02*
X66329952Y-88254819D01*
X66329952Y-88254819D02*
X66234714Y-88397676D01*
X66234714Y-88397676D02*
X66139476Y-88492914D01*
X66139476Y-88492914D02*
X66044238Y-88540533D01*
X33095333Y-70389319D02*
X32762000Y-69913128D01*
X32523905Y-70389319D02*
X32523905Y-69389319D01*
X32523905Y-69389319D02*
X32904857Y-69389319D01*
X32904857Y-69389319D02*
X33000095Y-69436938D01*
X33000095Y-69436938D02*
X33047714Y-69484557D01*
X33047714Y-69484557D02*
X33095333Y-69579795D01*
X33095333Y-69579795D02*
X33095333Y-69722652D01*
X33095333Y-69722652D02*
X33047714Y-69817890D01*
X33047714Y-69817890D02*
X33000095Y-69865509D01*
X33000095Y-69865509D02*
X32904857Y-69913128D01*
X32904857Y-69913128D02*
X32523905Y-69913128D01*
X33952476Y-69389319D02*
X33762000Y-69389319D01*
X33762000Y-69389319D02*
X33666762Y-69436938D01*
X33666762Y-69436938D02*
X33619143Y-69484557D01*
X33619143Y-69484557D02*
X33523905Y-69627414D01*
X33523905Y-69627414D02*
X33476286Y-69817890D01*
X33476286Y-69817890D02*
X33476286Y-70198842D01*
X33476286Y-70198842D02*
X33523905Y-70294080D01*
X33523905Y-70294080D02*
X33571524Y-70341700D01*
X33571524Y-70341700D02*
X33666762Y-70389319D01*
X33666762Y-70389319D02*
X33857238Y-70389319D01*
X33857238Y-70389319D02*
X33952476Y-70341700D01*
X33952476Y-70341700D02*
X34000095Y-70294080D01*
X34000095Y-70294080D02*
X34047714Y-70198842D01*
X34047714Y-70198842D02*
X34047714Y-69960747D01*
X34047714Y-69960747D02*
X34000095Y-69865509D01*
X34000095Y-69865509D02*
X33952476Y-69817890D01*
X33952476Y-69817890D02*
X33857238Y-69770271D01*
X33857238Y-69770271D02*
X33666762Y-69770271D01*
X33666762Y-69770271D02*
X33571524Y-69817890D01*
X33571524Y-69817890D02*
X33523905Y-69865509D01*
X33523905Y-69865509D02*
X33476286Y-69960747D01*
X59639580Y-36676666D02*
X59687200Y-36724285D01*
X59687200Y-36724285D02*
X59734819Y-36867142D01*
X59734819Y-36867142D02*
X59734819Y-36962380D01*
X59734819Y-36962380D02*
X59687200Y-37105237D01*
X59687200Y-37105237D02*
X59591961Y-37200475D01*
X59591961Y-37200475D02*
X59496723Y-37248094D01*
X59496723Y-37248094D02*
X59306247Y-37295713D01*
X59306247Y-37295713D02*
X59163390Y-37295713D01*
X59163390Y-37295713D02*
X58972914Y-37248094D01*
X58972914Y-37248094D02*
X58877676Y-37200475D01*
X58877676Y-37200475D02*
X58782438Y-37105237D01*
X58782438Y-37105237D02*
X58734819Y-36962380D01*
X58734819Y-36962380D02*
X58734819Y-36867142D01*
X58734819Y-36867142D02*
X58782438Y-36724285D01*
X58782438Y-36724285D02*
X58830057Y-36676666D01*
X58734819Y-36343332D02*
X58734819Y-35676666D01*
X58734819Y-35676666D02*
X59734819Y-36105237D01*
X64588819Y-74048857D02*
X64112628Y-74382190D01*
X64588819Y-74620285D02*
X63588819Y-74620285D01*
X63588819Y-74620285D02*
X63588819Y-74239333D01*
X63588819Y-74239333D02*
X63636438Y-74144095D01*
X63636438Y-74144095D02*
X63684057Y-74096476D01*
X63684057Y-74096476D02*
X63779295Y-74048857D01*
X63779295Y-74048857D02*
X63922152Y-74048857D01*
X63922152Y-74048857D02*
X64017390Y-74096476D01*
X64017390Y-74096476D02*
X64065009Y-74144095D01*
X64065009Y-74144095D02*
X64112628Y-74239333D01*
X64112628Y-74239333D02*
X64112628Y-74620285D01*
X64588819Y-73096476D02*
X64588819Y-73667904D01*
X64588819Y-73382190D02*
X63588819Y-73382190D01*
X63588819Y-73382190D02*
X63731676Y-73477428D01*
X63731676Y-73477428D02*
X63826914Y-73572666D01*
X63826914Y-73572666D02*
X63874533Y-73667904D01*
X63588819Y-72191714D02*
X63588819Y-72667904D01*
X63588819Y-72667904D02*
X64065009Y-72715523D01*
X64065009Y-72715523D02*
X64017390Y-72667904D01*
X64017390Y-72667904D02*
X63969771Y-72572666D01*
X63969771Y-72572666D02*
X63969771Y-72334571D01*
X63969771Y-72334571D02*
X64017390Y-72239333D01*
X64017390Y-72239333D02*
X64065009Y-72191714D01*
X64065009Y-72191714D02*
X64160247Y-72144095D01*
X64160247Y-72144095D02*
X64398342Y-72144095D01*
X64398342Y-72144095D02*
X64493580Y-72191714D01*
X64493580Y-72191714D02*
X64541200Y-72239333D01*
X64541200Y-72239333D02*
X64588819Y-72334571D01*
X64588819Y-72334571D02*
X64588819Y-72572666D01*
X64588819Y-72572666D02*
X64541200Y-72667904D01*
X64541200Y-72667904D02*
X64493580Y-72715523D01*
X63097580Y-64843857D02*
X63145200Y-64891476D01*
X63145200Y-64891476D02*
X63192819Y-65034333D01*
X63192819Y-65034333D02*
X63192819Y-65129571D01*
X63192819Y-65129571D02*
X63145200Y-65272428D01*
X63145200Y-65272428D02*
X63049961Y-65367666D01*
X63049961Y-65367666D02*
X62954723Y-65415285D01*
X62954723Y-65415285D02*
X62764247Y-65462904D01*
X62764247Y-65462904D02*
X62621390Y-65462904D01*
X62621390Y-65462904D02*
X62430914Y-65415285D01*
X62430914Y-65415285D02*
X62335676Y-65367666D01*
X62335676Y-65367666D02*
X62240438Y-65272428D01*
X62240438Y-65272428D02*
X62192819Y-65129571D01*
X62192819Y-65129571D02*
X62192819Y-65034333D01*
X62192819Y-65034333D02*
X62240438Y-64891476D01*
X62240438Y-64891476D02*
X62288057Y-64843857D01*
X63192819Y-63891476D02*
X63192819Y-64462904D01*
X63192819Y-64177190D02*
X62192819Y-64177190D01*
X62192819Y-64177190D02*
X62335676Y-64272428D01*
X62335676Y-64272428D02*
X62430914Y-64367666D01*
X62430914Y-64367666D02*
X62478533Y-64462904D01*
X62192819Y-62986714D02*
X62192819Y-63462904D01*
X62192819Y-63462904D02*
X62669009Y-63510523D01*
X62669009Y-63510523D02*
X62621390Y-63462904D01*
X62621390Y-63462904D02*
X62573771Y-63367666D01*
X62573771Y-63367666D02*
X62573771Y-63129571D01*
X62573771Y-63129571D02*
X62621390Y-63034333D01*
X62621390Y-63034333D02*
X62669009Y-62986714D01*
X62669009Y-62986714D02*
X62764247Y-62939095D01*
X62764247Y-62939095D02*
X63002342Y-62939095D01*
X63002342Y-62939095D02*
X63097580Y-62986714D01*
X63097580Y-62986714D02*
X63145200Y-63034333D01*
X63145200Y-63034333D02*
X63192819Y-63129571D01*
X63192819Y-63129571D02*
X63192819Y-63367666D01*
X63192819Y-63367666D02*
X63145200Y-63462904D01*
X63145200Y-63462904D02*
X63097580Y-63510523D01*
X71463819Y-58626333D02*
X72178104Y-58626333D01*
X72178104Y-58626333D02*
X72320961Y-58673952D01*
X72320961Y-58673952D02*
X72416200Y-58769190D01*
X72416200Y-58769190D02*
X72463819Y-58912047D01*
X72463819Y-58912047D02*
X72463819Y-59007285D01*
X71463819Y-57721571D02*
X71463819Y-57912047D01*
X71463819Y-57912047D02*
X71511438Y-58007285D01*
X71511438Y-58007285D02*
X71559057Y-58054904D01*
X71559057Y-58054904D02*
X71701914Y-58150142D01*
X71701914Y-58150142D02*
X71892390Y-58197761D01*
X71892390Y-58197761D02*
X72273342Y-58197761D01*
X72273342Y-58197761D02*
X72368580Y-58150142D01*
X72368580Y-58150142D02*
X72416200Y-58102523D01*
X72416200Y-58102523D02*
X72463819Y-58007285D01*
X72463819Y-58007285D02*
X72463819Y-57816809D01*
X72463819Y-57816809D02*
X72416200Y-57721571D01*
X72416200Y-57721571D02*
X72368580Y-57673952D01*
X72368580Y-57673952D02*
X72273342Y-57626333D01*
X72273342Y-57626333D02*
X72035247Y-57626333D01*
X72035247Y-57626333D02*
X71940009Y-57673952D01*
X71940009Y-57673952D02*
X71892390Y-57721571D01*
X71892390Y-57721571D02*
X71844771Y-57816809D01*
X71844771Y-57816809D02*
X71844771Y-58007285D01*
X71844771Y-58007285D02*
X71892390Y-58102523D01*
X71892390Y-58102523D02*
X71940009Y-58150142D01*
X71940009Y-58150142D02*
X72035247Y-58197761D01*
X38314333Y-53953580D02*
X38266714Y-54001200D01*
X38266714Y-54001200D02*
X38123857Y-54048819D01*
X38123857Y-54048819D02*
X38028619Y-54048819D01*
X38028619Y-54048819D02*
X37885762Y-54001200D01*
X37885762Y-54001200D02*
X37790524Y-53905961D01*
X37790524Y-53905961D02*
X37742905Y-53810723D01*
X37742905Y-53810723D02*
X37695286Y-53620247D01*
X37695286Y-53620247D02*
X37695286Y-53477390D01*
X37695286Y-53477390D02*
X37742905Y-53286914D01*
X37742905Y-53286914D02*
X37790524Y-53191676D01*
X37790524Y-53191676D02*
X37885762Y-53096438D01*
X37885762Y-53096438D02*
X38028619Y-53048819D01*
X38028619Y-53048819D02*
X38123857Y-53048819D01*
X38123857Y-53048819D02*
X38266714Y-53096438D01*
X38266714Y-53096438D02*
X38314333Y-53144057D01*
X38695286Y-53144057D02*
X38742905Y-53096438D01*
X38742905Y-53096438D02*
X38838143Y-53048819D01*
X38838143Y-53048819D02*
X39076238Y-53048819D01*
X39076238Y-53048819D02*
X39171476Y-53096438D01*
X39171476Y-53096438D02*
X39219095Y-53144057D01*
X39219095Y-53144057D02*
X39266714Y-53239295D01*
X39266714Y-53239295D02*
X39266714Y-53334533D01*
X39266714Y-53334533D02*
X39219095Y-53477390D01*
X39219095Y-53477390D02*
X38647667Y-54048819D01*
X38647667Y-54048819D02*
X39266714Y-54048819D01*
X69850095Y-38443819D02*
X69850095Y-39253342D01*
X69850095Y-39253342D02*
X69897714Y-39348580D01*
X69897714Y-39348580D02*
X69945333Y-39396200D01*
X69945333Y-39396200D02*
X70040571Y-39443819D01*
X70040571Y-39443819D02*
X70231047Y-39443819D01*
X70231047Y-39443819D02*
X70326285Y-39396200D01*
X70326285Y-39396200D02*
X70373904Y-39348580D01*
X70373904Y-39348580D02*
X70421523Y-39253342D01*
X70421523Y-39253342D02*
X70421523Y-38443819D01*
X71326285Y-38777152D02*
X71326285Y-39443819D01*
X71088190Y-38396200D02*
X70850095Y-39110485D01*
X70850095Y-39110485D02*
X71469142Y-39110485D01*
X53700819Y-58751238D02*
X53224628Y-59084571D01*
X53700819Y-59322666D02*
X52700819Y-59322666D01*
X52700819Y-59322666D02*
X52700819Y-58941714D01*
X52700819Y-58941714D02*
X52748438Y-58846476D01*
X52748438Y-58846476D02*
X52796057Y-58798857D01*
X52796057Y-58798857D02*
X52891295Y-58751238D01*
X52891295Y-58751238D02*
X53034152Y-58751238D01*
X53034152Y-58751238D02*
X53129390Y-58798857D01*
X53129390Y-58798857D02*
X53177009Y-58846476D01*
X53177009Y-58846476D02*
X53224628Y-58941714D01*
X53224628Y-58941714D02*
X53224628Y-59322666D01*
X52700819Y-58465523D02*
X53700819Y-58132190D01*
X53700819Y-58132190D02*
X52700819Y-57798857D01*
X53700819Y-56941714D02*
X53700819Y-57513142D01*
X53700819Y-57227428D02*
X52700819Y-57227428D01*
X52700819Y-57227428D02*
X52843676Y-57322666D01*
X52843676Y-57322666D02*
X52938914Y-57417904D01*
X52938914Y-57417904D02*
X52986533Y-57513142D01*
X77208142Y-42110819D02*
X76874809Y-41634628D01*
X76636714Y-42110819D02*
X76636714Y-41110819D01*
X76636714Y-41110819D02*
X77017666Y-41110819D01*
X77017666Y-41110819D02*
X77112904Y-41158438D01*
X77112904Y-41158438D02*
X77160523Y-41206057D01*
X77160523Y-41206057D02*
X77208142Y-41301295D01*
X77208142Y-41301295D02*
X77208142Y-41444152D01*
X77208142Y-41444152D02*
X77160523Y-41539390D01*
X77160523Y-41539390D02*
X77112904Y-41587009D01*
X77112904Y-41587009D02*
X77017666Y-41634628D01*
X77017666Y-41634628D02*
X76636714Y-41634628D01*
X78160523Y-42110819D02*
X77589095Y-42110819D01*
X77874809Y-42110819D02*
X77874809Y-41110819D01*
X77874809Y-41110819D02*
X77779571Y-41253676D01*
X77779571Y-41253676D02*
X77684333Y-41348914D01*
X77684333Y-41348914D02*
X77589095Y-41396533D01*
X79112904Y-42110819D02*
X78541476Y-42110819D01*
X78827190Y-42110819D02*
X78827190Y-41110819D01*
X78827190Y-41110819D02*
X78731952Y-41253676D01*
X78731952Y-41253676D02*
X78636714Y-41348914D01*
X78636714Y-41348914D02*
X78541476Y-41396533D01*
X58539142Y-89481819D02*
X58205809Y-89005628D01*
X57967714Y-89481819D02*
X57967714Y-88481819D01*
X57967714Y-88481819D02*
X58348666Y-88481819D01*
X58348666Y-88481819D02*
X58443904Y-88529438D01*
X58443904Y-88529438D02*
X58491523Y-88577057D01*
X58491523Y-88577057D02*
X58539142Y-88672295D01*
X58539142Y-88672295D02*
X58539142Y-88815152D01*
X58539142Y-88815152D02*
X58491523Y-88910390D01*
X58491523Y-88910390D02*
X58443904Y-88958009D01*
X58443904Y-88958009D02*
X58348666Y-89005628D01*
X58348666Y-89005628D02*
X57967714Y-89005628D01*
X59491523Y-89481819D02*
X58920095Y-89481819D01*
X59205809Y-89481819D02*
X59205809Y-88481819D01*
X59205809Y-88481819D02*
X59110571Y-88624676D01*
X59110571Y-88624676D02*
X59015333Y-88719914D01*
X59015333Y-88719914D02*
X58920095Y-88767533D01*
X60348666Y-88481819D02*
X60158190Y-88481819D01*
X60158190Y-88481819D02*
X60062952Y-88529438D01*
X60062952Y-88529438D02*
X60015333Y-88577057D01*
X60015333Y-88577057D02*
X59920095Y-88719914D01*
X59920095Y-88719914D02*
X59872476Y-88910390D01*
X59872476Y-88910390D02*
X59872476Y-89291342D01*
X59872476Y-89291342D02*
X59920095Y-89386580D01*
X59920095Y-89386580D02*
X59967714Y-89434200D01*
X59967714Y-89434200D02*
X60062952Y-89481819D01*
X60062952Y-89481819D02*
X60253428Y-89481819D01*
X60253428Y-89481819D02*
X60348666Y-89434200D01*
X60348666Y-89434200D02*
X60396285Y-89386580D01*
X60396285Y-89386580D02*
X60443904Y-89291342D01*
X60443904Y-89291342D02*
X60443904Y-89053247D01*
X60443904Y-89053247D02*
X60396285Y-88958009D01*
X60396285Y-88958009D02*
X60348666Y-88910390D01*
X60348666Y-88910390D02*
X60253428Y-88862771D01*
X60253428Y-88862771D02*
X60062952Y-88862771D01*
X60062952Y-88862771D02*
X59967714Y-88910390D01*
X59967714Y-88910390D02*
X59920095Y-88958009D01*
X59920095Y-88958009D02*
X59872476Y-89053247D01*
X55141905Y-39444819D02*
X55141905Y-38444819D01*
X55141905Y-38444819D02*
X55380000Y-38444819D01*
X55380000Y-38444819D02*
X55522857Y-38492438D01*
X55522857Y-38492438D02*
X55618095Y-38587676D01*
X55618095Y-38587676D02*
X55665714Y-38682914D01*
X55665714Y-38682914D02*
X55713333Y-38873390D01*
X55713333Y-38873390D02*
X55713333Y-39016247D01*
X55713333Y-39016247D02*
X55665714Y-39206723D01*
X55665714Y-39206723D02*
X55618095Y-39301961D01*
X55618095Y-39301961D02*
X55522857Y-39397200D01*
X55522857Y-39397200D02*
X55380000Y-39444819D01*
X55380000Y-39444819D02*
X55141905Y-39444819D01*
X56046667Y-38444819D02*
X56665714Y-38444819D01*
X56665714Y-38444819D02*
X56332381Y-38825771D01*
X56332381Y-38825771D02*
X56475238Y-38825771D01*
X56475238Y-38825771D02*
X56570476Y-38873390D01*
X56570476Y-38873390D02*
X56618095Y-38921009D01*
X56618095Y-38921009D02*
X56665714Y-39016247D01*
X56665714Y-39016247D02*
X56665714Y-39254342D01*
X56665714Y-39254342D02*
X56618095Y-39349580D01*
X56618095Y-39349580D02*
X56570476Y-39397200D01*
X56570476Y-39397200D02*
X56475238Y-39444819D01*
X56475238Y-39444819D02*
X56189524Y-39444819D01*
X56189524Y-39444819D02*
X56094286Y-39397200D01*
X56094286Y-39397200D02*
X56046667Y-39349580D01*
X71480819Y-14551333D02*
X72195104Y-14551333D01*
X72195104Y-14551333D02*
X72337961Y-14598952D01*
X72337961Y-14598952D02*
X72433200Y-14694190D01*
X72433200Y-14694190D02*
X72480819Y-14837047D01*
X72480819Y-14837047D02*
X72480819Y-14932285D01*
X71814152Y-13646571D02*
X72480819Y-13646571D01*
X71433200Y-13884666D02*
X72147485Y-14122761D01*
X72147485Y-14122761D02*
X72147485Y-13503714D01*
X50492819Y-45283285D02*
X49492819Y-45283285D01*
X49492819Y-45283285D02*
X49492819Y-44902333D01*
X49492819Y-44902333D02*
X49540438Y-44807095D01*
X49540438Y-44807095D02*
X49588057Y-44759476D01*
X49588057Y-44759476D02*
X49683295Y-44711857D01*
X49683295Y-44711857D02*
X49826152Y-44711857D01*
X49826152Y-44711857D02*
X49921390Y-44759476D01*
X49921390Y-44759476D02*
X49969009Y-44807095D01*
X49969009Y-44807095D02*
X50016628Y-44902333D01*
X50016628Y-44902333D02*
X50016628Y-45283285D01*
X50445200Y-44330904D02*
X50492819Y-44188047D01*
X50492819Y-44188047D02*
X50492819Y-43949952D01*
X50492819Y-43949952D02*
X50445200Y-43854714D01*
X50445200Y-43854714D02*
X50397580Y-43807095D01*
X50397580Y-43807095D02*
X50302342Y-43759476D01*
X50302342Y-43759476D02*
X50207104Y-43759476D01*
X50207104Y-43759476D02*
X50111866Y-43807095D01*
X50111866Y-43807095D02*
X50064247Y-43854714D01*
X50064247Y-43854714D02*
X50016628Y-43949952D01*
X50016628Y-43949952D02*
X49969009Y-44140428D01*
X49969009Y-44140428D02*
X49921390Y-44235666D01*
X49921390Y-44235666D02*
X49873771Y-44283285D01*
X49873771Y-44283285D02*
X49778533Y-44330904D01*
X49778533Y-44330904D02*
X49683295Y-44330904D01*
X49683295Y-44330904D02*
X49588057Y-44283285D01*
X49588057Y-44283285D02*
X49540438Y-44235666D01*
X49540438Y-44235666D02*
X49492819Y-44140428D01*
X49492819Y-44140428D02*
X49492819Y-43902333D01*
X49492819Y-43902333D02*
X49540438Y-43759476D01*
X50492819Y-42807095D02*
X50492819Y-43378523D01*
X50492819Y-43092809D02*
X49492819Y-43092809D01*
X49492819Y-43092809D02*
X49635676Y-43188047D01*
X49635676Y-43188047D02*
X49730914Y-43283285D01*
X49730914Y-43283285D02*
X49778533Y-43378523D01*
X56747580Y-48271357D02*
X56795200Y-48318976D01*
X56795200Y-48318976D02*
X56842819Y-48461833D01*
X56842819Y-48461833D02*
X56842819Y-48557071D01*
X56842819Y-48557071D02*
X56795200Y-48699928D01*
X56795200Y-48699928D02*
X56699961Y-48795166D01*
X56699961Y-48795166D02*
X56604723Y-48842785D01*
X56604723Y-48842785D02*
X56414247Y-48890404D01*
X56414247Y-48890404D02*
X56271390Y-48890404D01*
X56271390Y-48890404D02*
X56080914Y-48842785D01*
X56080914Y-48842785D02*
X55985676Y-48795166D01*
X55985676Y-48795166D02*
X55890438Y-48699928D01*
X55890438Y-48699928D02*
X55842819Y-48557071D01*
X55842819Y-48557071D02*
X55842819Y-48461833D01*
X55842819Y-48461833D02*
X55890438Y-48318976D01*
X55890438Y-48318976D02*
X55938057Y-48271357D01*
X56842819Y-47318976D02*
X56842819Y-47890404D01*
X56842819Y-47604690D02*
X55842819Y-47604690D01*
X55842819Y-47604690D02*
X55985676Y-47699928D01*
X55985676Y-47699928D02*
X56080914Y-47795166D01*
X56080914Y-47795166D02*
X56128533Y-47890404D01*
X55938057Y-46938023D02*
X55890438Y-46890404D01*
X55890438Y-46890404D02*
X55842819Y-46795166D01*
X55842819Y-46795166D02*
X55842819Y-46557071D01*
X55842819Y-46557071D02*
X55890438Y-46461833D01*
X55890438Y-46461833D02*
X55938057Y-46414214D01*
X55938057Y-46414214D02*
X56033295Y-46366595D01*
X56033295Y-46366595D02*
X56128533Y-46366595D01*
X56128533Y-46366595D02*
X56271390Y-46414214D01*
X56271390Y-46414214D02*
X56842819Y-46985642D01*
X56842819Y-46985642D02*
X56842819Y-46366595D01*
X59541580Y-63761857D02*
X59589200Y-63809476D01*
X59589200Y-63809476D02*
X59636819Y-63952333D01*
X59636819Y-63952333D02*
X59636819Y-64047571D01*
X59636819Y-64047571D02*
X59589200Y-64190428D01*
X59589200Y-64190428D02*
X59493961Y-64285666D01*
X59493961Y-64285666D02*
X59398723Y-64333285D01*
X59398723Y-64333285D02*
X59208247Y-64380904D01*
X59208247Y-64380904D02*
X59065390Y-64380904D01*
X59065390Y-64380904D02*
X58874914Y-64333285D01*
X58874914Y-64333285D02*
X58779676Y-64285666D01*
X58779676Y-64285666D02*
X58684438Y-64190428D01*
X58684438Y-64190428D02*
X58636819Y-64047571D01*
X58636819Y-64047571D02*
X58636819Y-63952333D01*
X58636819Y-63952333D02*
X58684438Y-63809476D01*
X58684438Y-63809476D02*
X58732057Y-63761857D01*
X59636819Y-62809476D02*
X59636819Y-63380904D01*
X59636819Y-63095190D02*
X58636819Y-63095190D01*
X58636819Y-63095190D02*
X58779676Y-63190428D01*
X58779676Y-63190428D02*
X58874914Y-63285666D01*
X58874914Y-63285666D02*
X58922533Y-63380904D01*
X58636819Y-62476142D02*
X58636819Y-61809476D01*
X58636819Y-61809476D02*
X59636819Y-62238047D01*
D11*
%TO.C,R5*%
X38777000Y-70159500D02*
X38777000Y-71959500D01*
X41177000Y-70159500D02*
X41177000Y-71959500D01*
%TO.C,U5*%
X70919000Y-77850000D02*
X70664000Y-77850000D01*
X70664000Y-77850000D02*
X70664000Y-76035000D01*
X60399000Y-77850000D02*
X60654000Y-77850000D01*
X70919000Y-81710000D02*
X70919000Y-77850000D01*
X70919000Y-81710000D02*
X70919000Y-85570000D01*
X60399000Y-81710000D02*
X60399000Y-77850000D01*
X60399000Y-81710000D02*
X60399000Y-85570000D01*
X70919000Y-85570000D02*
X70664000Y-85570000D01*
X60399000Y-85570000D02*
X60654000Y-85570000D01*
%TO.C,J3*%
X55044000Y-100010000D02*
X55044000Y-100850000D01*
X55044000Y-100850000D02*
X55644000Y-100850000D01*
X55284000Y-93190000D02*
X55284000Y-100610000D01*
X55284000Y-93190000D02*
X70534000Y-93190000D01*
X55284000Y-95250000D02*
X70534000Y-95250000D01*
X55284000Y-98651000D02*
X70534000Y-98651000D01*
X55284000Y-99950000D02*
X70534000Y-99950000D01*
X55284000Y-100610000D02*
X70534000Y-100610000D01*
X56194000Y-93350000D02*
X56194000Y-93850000D01*
X56194000Y-93350000D02*
X58194000Y-93350000D01*
X56194000Y-93850000D02*
X58194000Y-93850000D01*
X56248000Y-97721000D02*
X56109000Y-97860000D01*
X56423000Y-97895000D02*
X56283000Y-98035000D01*
X58105000Y-95865000D02*
X57965000Y-96005000D01*
X58194000Y-93350000D02*
X58194000Y-93850000D01*
X58279000Y-96040000D02*
X58139000Y-96179000D01*
X60004000Y-93350000D02*
X60004000Y-93850000D01*
X60004000Y-93350000D02*
X62004000Y-93350000D01*
X60004000Y-93850000D02*
X62004000Y-93850000D01*
X60219000Y-97561000D02*
X59920000Y-97860000D01*
X60394000Y-97736000D02*
X60094000Y-98035000D01*
X61915000Y-95865000D02*
X61615000Y-96164000D01*
X62004000Y-93350000D02*
X62004000Y-93850000D01*
X62089000Y-96040000D02*
X61790000Y-96339000D01*
X63814000Y-93350000D02*
X63814000Y-93850000D01*
X63814000Y-93350000D02*
X65814000Y-93350000D01*
X63814000Y-93850000D02*
X65814000Y-93850000D01*
X64029000Y-97561000D02*
X63730000Y-97860000D01*
X64204000Y-97736000D02*
X63904000Y-98035000D01*
X65725000Y-95865000D02*
X65425000Y-96164000D01*
X65814000Y-93350000D02*
X65814000Y-93850000D01*
X65899000Y-96040000D02*
X65600000Y-96339000D01*
X67624000Y-93350000D02*
X67624000Y-93850000D01*
X67624000Y-93350000D02*
X69624000Y-93350000D01*
X67624000Y-93850000D02*
X69624000Y-93850000D01*
X67839000Y-97561000D02*
X67540000Y-97860000D01*
X68014000Y-97736000D02*
X67714000Y-98035000D01*
X69535000Y-95865000D02*
X69235000Y-96164000D01*
X69624000Y-93350000D02*
X69624000Y-93850000D01*
X69709000Y-96040000D02*
X69410000Y-96339000D01*
X70534000Y-93190000D02*
X70534000Y-100610000D01*
X58624000Y-96950000D02*
G75*
G03*
X55764000Y-96950000I-1430000J0D01*
G01*
X55764000Y-96950000D02*
G75*
G03*
X58624000Y-96950000I1430000J0D01*
G01*
X62434000Y-96950000D02*
G75*
G03*
X59574000Y-96950000I-1430000J0D01*
G01*
X59574000Y-96950000D02*
G75*
G03*
X62434000Y-96950000I1430000J0D01*
G01*
X66244000Y-96950000D02*
G75*
G03*
X63384000Y-96950000I-1430000J0D01*
G01*
X63384000Y-96950000D02*
G75*
G03*
X66244000Y-96950000I1430000J0D01*
G01*
X70054000Y-96950000D02*
G75*
G03*
X67194000Y-96950000I-1430000J0D01*
G01*
X67194000Y-96950000D02*
G75*
G03*
X70054000Y-96950000I1430000J0D01*
G01*
%TO.C,J8*%
X70926000Y-34865000D02*
X70926000Y-36195000D01*
X69596000Y-34865000D02*
X70926000Y-34865000D01*
X68326000Y-34865000D02*
X63186000Y-34865000D01*
X68326000Y-34865000D02*
X68326000Y-37525000D01*
X63186000Y-34865000D02*
X63186000Y-37525000D01*
X68326000Y-37525000D02*
X63186000Y-37525000D01*
%TO.C,C16*%
X66956000Y-60266252D02*
X66956000Y-59743748D01*
X68426000Y-60266252D02*
X68426000Y-59743748D01*
%TO.C,C3*%
X51208000Y-53728252D02*
X51208000Y-53205748D01*
X52678000Y-53728252D02*
X52678000Y-53205748D01*
%TO.C,J5*%
X34196000Y-9018000D02*
X33196000Y-9018000D01*
X29796000Y-9018000D02*
X28796000Y-9018000D01*
X36696000Y-11518000D02*
X36696000Y-12518000D01*
X26296000Y-11518000D02*
X26296000Y-12518000D01*
X36696000Y-15918000D02*
X36696000Y-16918000D01*
X26296000Y-15918000D02*
X26296000Y-16918000D01*
X33196000Y-19418000D02*
X34196000Y-19418000D01*
X28796000Y-19418000D02*
X29796000Y-19418000D01*
%TO.C,C10*%
X69317748Y-88595000D02*
X69840252Y-88595000D01*
X69317748Y-90065000D02*
X69840252Y-90065000D01*
%TO.C,C8*%
X47490748Y-53113000D02*
X48013252Y-53113000D01*
X47490748Y-54583000D02*
X48013252Y-54583000D01*
%TO.C,C6*%
X33573252Y-77064500D02*
X33050748Y-77064500D01*
X33573252Y-75594500D02*
X33050748Y-75594500D01*
%TO.C,R3*%
X38840500Y-86986500D02*
X38840500Y-88786500D01*
X41240500Y-86986500D02*
X41240500Y-88786500D01*
%TO.C,C9*%
X66394000Y-59240748D02*
X66394000Y-59763252D01*
X64924000Y-59240748D02*
X64924000Y-59763252D01*
%TO.C,C5*%
X70639000Y-73401252D02*
X70639000Y-72878748D01*
X72109000Y-73401252D02*
X72109000Y-72878748D01*
%TO.C,C13*%
X54098500Y-62669748D02*
X54098500Y-63192252D01*
X52628500Y-62669748D02*
X52628500Y-63192252D01*
%TO.C,C11*%
X46474748Y-40921000D02*
X46997252Y-40921000D01*
X46474748Y-42391000D02*
X46997252Y-42391000D01*
%TO.C,R8*%
X52374436Y-67591000D02*
X52828564Y-67591000D01*
X52374436Y-69061000D02*
X52828564Y-69061000D01*
%TO.C,D1*%
X36822000Y-73979500D02*
X36822000Y-70679500D01*
X36822000Y-73979500D02*
X31312000Y-73979500D01*
X36822000Y-70679500D02*
X31312000Y-70679500D01*
%TO.C,C1*%
X41267748Y-44096000D02*
X41790252Y-44096000D01*
X41267748Y-45566000D02*
X41790252Y-45566000D01*
%TO.C,R17*%
X51589000Y-47875564D02*
X51589000Y-47421436D01*
X53059000Y-47875564D02*
X53059000Y-47421436D01*
%TO.C,R4*%
X38777000Y-79239500D02*
X38777000Y-81039500D01*
X41177000Y-79239500D02*
X41177000Y-81039500D01*
%TO.C,C4*%
X46474748Y-44096000D02*
X46997252Y-44096000D01*
X46474748Y-45566000D02*
X46997252Y-45566000D01*
%TO.C,J2*%
X80578000Y-48708000D02*
X80578000Y-50038000D01*
X79248000Y-48708000D02*
X80578000Y-48708000D01*
X77978000Y-48708000D02*
X57598000Y-48708000D01*
X77978000Y-48708000D02*
X77978000Y-51368000D01*
X57598000Y-48708000D02*
X57598000Y-51368000D01*
X77978000Y-51368000D02*
X57598000Y-51368000D01*
%TO.C,C14*%
X54098500Y-71112748D02*
X54098500Y-71635252D01*
X52628500Y-71112748D02*
X52628500Y-71635252D01*
%TO.C,R14*%
X73536500Y-46709064D02*
X73536500Y-46254936D01*
X75006500Y-46709064D02*
X75006500Y-46254936D01*
%TO.C,R1*%
X38654500Y-98751500D02*
X36854500Y-98751500D01*
X38654500Y-101151500D02*
X36854500Y-101151500D01*
%TO.C,R9*%
X74448936Y-42953000D02*
X74903064Y-42953000D01*
X74448936Y-44423000D02*
X74903064Y-44423000D01*
%TO.C,R12*%
X59439436Y-43561252D02*
X59893564Y-43561252D01*
X59439436Y-45031252D02*
X59893564Y-45031252D01*
%TO.C,R13*%
X59439436Y-40005252D02*
X59893564Y-40005252D01*
X59439436Y-41475252D02*
X59893564Y-41475252D01*
%TO.C,J7*%
X25305000Y-78445000D02*
X24565000Y-78445000D01*
X24565000Y-78445000D02*
X24565000Y-78945000D01*
X37425000Y-78685000D02*
X24805000Y-78685000D01*
X37425000Y-78685000D02*
X37425000Y-97845000D01*
X35365000Y-78685000D02*
X35365000Y-97845000D01*
X29365000Y-78685000D02*
X29365000Y-97845000D01*
X25365000Y-78685000D02*
X25365000Y-97845000D01*
X24805000Y-78685000D02*
X24805000Y-97845000D01*
X31312000Y-82185000D02*
X30977000Y-81851000D01*
X37365000Y-82505000D02*
X36365000Y-82505000D01*
X37365000Y-82505000D02*
X37365000Y-84505000D01*
X36365000Y-82505000D02*
X36365000Y-84505000D01*
X31319000Y-82725000D02*
X30711000Y-82117000D01*
X37365000Y-84505000D02*
X36365000Y-84505000D01*
X33753000Y-85159000D02*
X33646000Y-85052000D01*
X31586000Y-91980000D02*
X30977000Y-91372000D01*
X37365000Y-92025000D02*
X36365000Y-92025000D01*
X37365000Y-92025000D02*
X37365000Y-94025000D01*
X36365000Y-92025000D02*
X36365000Y-94025000D01*
X31395000Y-92322000D02*
X30711000Y-91638000D01*
X37365000Y-94025000D02*
X36365000Y-94025000D01*
X34019000Y-94413000D02*
X33851000Y-94246000D01*
X33753000Y-94679000D02*
X33555000Y-94481000D01*
X37425000Y-97845000D02*
X24805000Y-97845000D01*
X34401000Y-84287000D02*
G75*
G03*
X34401303Y-82723789I-2035993J782000D01*
G01*
X33934000Y-81990000D02*
G75*
G03*
X30184279Y-83542945I-1569000J-1515000D01*
G01*
X30185001Y-83505000D02*
G75*
G03*
X33933160Y-85019354I2179999J0D01*
G01*
X34545000Y-93025000D02*
G75*
G03*
X30185000Y-93025000I-2180000J0D01*
G01*
X30185000Y-93025000D02*
G75*
G03*
X34545000Y-93025000I2180000J0D01*
G01*
%TO.C,U1*%
X41267500Y-55320000D02*
X41267500Y-55970000D01*
X41267500Y-55970000D02*
X38567500Y-55970000D01*
X41267500Y-60820000D02*
X41267500Y-61520000D01*
X41267500Y-61520000D02*
X48317500Y-61520000D01*
X48317500Y-55320000D02*
X41267500Y-55320000D01*
X48317500Y-56070000D02*
X48317500Y-55320000D01*
X48317500Y-61520000D02*
X48317500Y-60770000D01*
D10*
%TO.C,U2*%
X60859000Y-61061000D02*
X61034000Y-61061000D01*
X60859000Y-61061000D02*
X60859000Y-57811000D01*
X61034000Y-61061000D02*
X61034000Y-62136000D01*
X64109000Y-61061000D02*
X63834000Y-61061000D01*
X64109000Y-61061000D02*
X64109000Y-57811000D01*
X60859000Y-57811000D02*
X61134000Y-57811000D01*
X64109000Y-57811000D02*
X63834000Y-57811000D01*
D11*
%TO.C,R2*%
X42269500Y-92156500D02*
X42269500Y-93956500D01*
X44669500Y-92156500D02*
X44669500Y-93956500D01*
%TO.C,U3*%
X40896000Y-32198000D02*
X40896000Y-21278000D01*
X42896000Y-32198000D02*
X40896000Y-32198000D01*
X42896000Y-36598000D02*
X42896000Y-32198000D01*
X45136000Y-23358000D02*
X45136000Y-21278000D01*
X45136000Y-23358000D02*
X50896000Y-23358000D01*
X45851000Y-36598000D02*
X45851000Y-38478000D01*
X46361000Y-36598000D02*
X46361000Y-38478000D01*
X47761000Y-36598000D02*
X47761000Y-38478000D01*
X48271000Y-36598000D02*
X48271000Y-38478000D01*
X49671000Y-36598000D02*
X49671000Y-38478000D01*
X50181000Y-36598000D02*
X50181000Y-38478000D01*
X50896000Y-23358000D02*
X50896000Y-21278000D01*
X53136000Y-32198000D02*
X55136000Y-32198000D01*
X53136000Y-36598000D02*
X42896000Y-36598000D01*
X53136000Y-36598000D02*
X53136000Y-32198000D01*
X55136000Y-32198000D02*
X55136000Y-21278000D01*
%TO.C,R10*%
X74903064Y-40359000D02*
X74448936Y-40359000D01*
X74903064Y-38889000D02*
X74448936Y-38889000D01*
%TO.C,D2*%
X54195000Y-43236000D02*
X54195000Y-45156000D01*
X54195000Y-45156000D02*
X56880000Y-45156000D01*
X56880000Y-43236000D02*
X54195000Y-43236000D01*
%TO.C,R7*%
X52374436Y-65051000D02*
X52828564Y-65051000D01*
X52374436Y-66521000D02*
X52828564Y-66521000D01*
%TO.C,JP1*%
X64049000Y-89600000D02*
X66849000Y-89600000D01*
X64049000Y-91600000D02*
X64049000Y-89600000D01*
X66849000Y-89600000D02*
X66849000Y-91600000D01*
X66849000Y-91600000D02*
X64049000Y-91600000D01*
%TO.C,R6*%
X32412000Y-69084500D02*
X34212000Y-69084500D01*
X32412000Y-66684500D02*
X34212000Y-66684500D01*
%TO.C,C7*%
X60225000Y-36771252D02*
X60225000Y-36248748D01*
X61695000Y-36771252D02*
X61695000Y-36248748D01*
%TO.C,R15*%
X63219000Y-73178936D02*
X63219000Y-73633064D01*
X61749000Y-73178936D02*
X61749000Y-73633064D01*
%TO.C,C15*%
X60098000Y-65412252D02*
X60098000Y-64889748D01*
X61568000Y-65412252D02*
X61568000Y-64889748D01*
%TO.C,J6*%
X73279000Y-63373000D02*
X80899000Y-63373000D01*
X80899000Y-63373000D02*
X80899000Y-53213000D01*
X73279000Y-53213000D02*
X73279000Y-63373000D01*
X79629000Y-53213000D02*
X79629000Y-63373000D01*
X80899000Y-53213000D02*
X73279000Y-53213000D01*
%TO.C,C2*%
X41013748Y-53240000D02*
X41536252Y-53240000D01*
X41013748Y-54710000D02*
X41536252Y-54710000D01*
%TO.C,U4*%
X65762500Y-38591252D02*
X62312500Y-38591252D01*
X65762500Y-38591252D02*
X67712500Y-38591252D01*
X65762500Y-47461252D02*
X63812500Y-47461252D01*
X65762500Y-47461252D02*
X67712500Y-47461252D01*
%TO.C,RV1*%
X54376000Y-63041000D02*
X60716000Y-63041000D01*
X54376000Y-63041000D02*
X54376000Y-53271000D01*
X60716000Y-63041000D02*
X60716000Y-53271000D01*
X54376000Y-53271000D02*
X60716000Y-53271000D01*
%TO.C,R11*%
X74903064Y-42391000D02*
X74448936Y-42391000D01*
X74903064Y-40921000D02*
X74448936Y-40921000D01*
%TO.C,R16*%
X61588564Y-91335000D02*
X61134436Y-91335000D01*
X61588564Y-89865000D02*
X61134436Y-89865000D01*
%TO.C,D3*%
X54195000Y-39680000D02*
X54195000Y-41600000D01*
X54195000Y-41600000D02*
X56880000Y-41600000D01*
X56880000Y-39680000D02*
X54195000Y-39680000D01*
%TO.C,J4*%
X67226000Y-9018000D02*
X66226000Y-9018000D01*
X62826000Y-9018000D02*
X61826000Y-9018000D01*
X69726000Y-11518000D02*
X69726000Y-12518000D01*
X59326000Y-11518000D02*
X59326000Y-12518000D01*
X69726000Y-15918000D02*
X69726000Y-16918000D01*
X59326000Y-15918000D02*
X59326000Y-16918000D01*
X66226000Y-19418000D02*
X67226000Y-19418000D01*
X61826000Y-19418000D02*
X62826000Y-19418000D01*
%TO.C,PS1*%
X50710000Y-45933500D02*
X49510000Y-45933500D01*
X50460000Y-46183500D02*
X38690000Y-46183500D01*
X50710000Y-47133500D02*
X50710000Y-45933500D01*
X50460000Y-52523500D02*
X50460000Y-46183500D01*
X50460000Y-52523500D02*
X38690000Y-52523500D01*
X38690000Y-52523500D02*
X38690000Y-46183500D01*
%TO.C,C12*%
X53621000Y-47889752D02*
X53621000Y-47367248D01*
X55091000Y-47889752D02*
X55091000Y-47367248D01*
%TO.C,C17*%
X59917000Y-59428748D02*
X59917000Y-59951252D01*
X58447000Y-59428748D02*
X58447000Y-59951252D01*
%TD*%
%LPC*%
D10*
X48895000Y-7620000D02*
X71120000Y-7620000D01*
X71120000Y-21590000D01*
X48895000Y-21590000D01*
X48895000Y-7620000D01*
G36*
X48895000Y-7620000D02*
G01*
X71120000Y-7620000D01*
X71120000Y-21590000D01*
X48895000Y-21590000D01*
X48895000Y-7620000D01*
G37*
D12*
X24130000Y-7620000D02*
X47498000Y-7620000D01*
X47498000Y-21711000D01*
X24130000Y-21711000D01*
X24130000Y-7620000D01*
G36*
X24130000Y-7620000D02*
G01*
X47498000Y-7620000D01*
X47498000Y-21711000D01*
X24130000Y-21711000D01*
X24130000Y-7620000D01*
G37*
D13*
%TO.C,R5*%
X39977000Y-73317500D03*
X39977000Y-68801500D03*
%TD*%
D14*
%TO.C,U5*%
X70104000Y-77060000D03*
X68834000Y-77060000D03*
X67564000Y-77060000D03*
X66294000Y-77060000D03*
X65024000Y-77060000D03*
X63754000Y-77060000D03*
X62484000Y-77060000D03*
X61214000Y-77060000D03*
X61214000Y-86360000D03*
X62484000Y-86360000D03*
X63754000Y-86360000D03*
X65024000Y-86360000D03*
X66294000Y-86360000D03*
X67564000Y-86360000D03*
X68834000Y-86360000D03*
X70104000Y-86360000D03*
%TD*%
D15*
%TO.C,J3*%
X57194000Y-96950000D03*
D16*
X61004000Y-96950000D03*
X64814000Y-96950000D03*
X68624000Y-96950000D03*
%TD*%
D17*
%TO.C,J8*%
X69596000Y-36195000D03*
D18*
X67056000Y-36195000D03*
X64516000Y-36195000D03*
%TD*%
D19*
%TO.C,C16*%
X67691000Y-60955000D03*
X67691000Y-59055000D03*
%TD*%
%TO.C,C3*%
X51943000Y-54417000D03*
X51943000Y-52517000D03*
%TD*%
D20*
%TO.C,J5*%
X35931000Y-9783000D03*
X31496000Y-9783000D03*
X27061000Y-9783000D03*
X35931000Y-14218000D03*
X31496000Y-14218000D03*
X27061000Y-14218000D03*
X35931000Y-18653000D03*
X31496000Y-18653000D03*
X27061000Y-18653000D03*
%TD*%
D21*
%TO.C,C10*%
X68629000Y-89330000D03*
X70529000Y-89330000D03*
%TD*%
%TO.C,C8*%
X46802000Y-53848000D03*
X48702000Y-53848000D03*
%TD*%
D22*
%TO.C,C6*%
X34262000Y-76329500D03*
X32362000Y-76329500D03*
%TD*%
D13*
%TO.C,R3*%
X40040500Y-90144500D03*
X40040500Y-85628500D03*
%TD*%
D23*
%TO.C,C9*%
X65659000Y-58552000D03*
X65659000Y-60452000D03*
%TD*%
D19*
%TO.C,C5*%
X71374000Y-74090000D03*
X71374000Y-72190000D03*
%TD*%
D23*
%TO.C,C13*%
X53363500Y-61981000D03*
X53363500Y-63881000D03*
%TD*%
D21*
%TO.C,C11*%
X45786000Y-41656000D03*
X47686000Y-41656000D03*
%TD*%
D24*
%TO.C,R8*%
X51689000Y-68326000D03*
X53514000Y-68326000D03*
%TD*%
D25*
%TO.C,D1*%
X35312000Y-72329500D03*
X31312000Y-72329500D03*
%TD*%
D21*
%TO.C,C1*%
X40579000Y-44831000D03*
X42479000Y-44831000D03*
%TD*%
D26*
%TO.C,R17*%
X52324000Y-48561000D03*
X52324000Y-46736000D03*
%TD*%
D13*
%TO.C,R4*%
X39977000Y-82397500D03*
X39977000Y-77881500D03*
%TD*%
D21*
%TO.C,C4*%
X45786000Y-44831000D03*
X47686000Y-44831000D03*
%TD*%
D17*
%TO.C,J2*%
X79248000Y-50038000D03*
D18*
X76708000Y-50038000D03*
X74168000Y-50038000D03*
X71628000Y-50038000D03*
X69088000Y-50038000D03*
X66548000Y-50038000D03*
X64008000Y-50038000D03*
X61468000Y-50038000D03*
X58928000Y-50038000D03*
%TD*%
D23*
%TO.C,C14*%
X53363500Y-70424000D03*
X53363500Y-72324000D03*
%TD*%
D26*
%TO.C,R14*%
X74271500Y-47394500D03*
X74271500Y-45569500D03*
%TD*%
D27*
%TO.C,R1*%
X35496500Y-99951500D03*
X40012500Y-99951500D03*
%TD*%
D24*
%TO.C,R9*%
X73763500Y-43688000D03*
X75588500Y-43688000D03*
%TD*%
%TO.C,R12*%
X58754000Y-44296252D03*
X60579000Y-44296252D03*
%TD*%
%TO.C,R13*%
X58754000Y-40740252D03*
X60579000Y-40740252D03*
%TD*%
D28*
%TO.C,J7*%
X32865000Y-83505000D03*
D29*
X32865000Y-93025000D03*
%TD*%
D30*
%TO.C,U1*%
X39470000Y-56515000D03*
X39470000Y-57785000D03*
X39470000Y-59055000D03*
X39470000Y-60325000D03*
X50165000Y-60325000D03*
X50165000Y-59055000D03*
X50165000Y-57785000D03*
X50165000Y-56515000D03*
%TD*%
D31*
%TO.C,U2*%
X61484000Y-61586000D03*
X61984000Y-61586000D03*
X62484000Y-61586000D03*
X62984000Y-61586000D03*
X63484000Y-61586000D03*
X63484000Y-57286000D03*
X62984000Y-57286000D03*
X62484000Y-57286000D03*
X61984000Y-57286000D03*
X61484000Y-57286000D03*
%TD*%
D13*
%TO.C,R2*%
X43469500Y-95314500D03*
X43469500Y-90798500D03*
%TD*%
D32*
%TO.C,U3*%
X46106000Y-39378000D03*
D33*
X48016000Y-39378000D03*
X49926000Y-39378000D03*
D34*
X49066000Y-17348000D03*
D35*
X49066000Y-18608000D03*
D36*
X49816000Y-16318000D03*
X49816000Y-19638000D03*
X51016000Y-15928000D03*
X51016000Y-20028000D03*
X52346000Y-15928000D03*
X52346000Y-20028000D03*
D37*
X53016000Y-17978000D03*
D36*
X53686000Y-15928000D03*
X53686000Y-20028000D03*
X55016000Y-15928000D03*
X55016000Y-20028000D03*
X56216000Y-16318000D03*
X56216000Y-19638000D03*
X56966000Y-17348000D03*
X56966000Y-18608000D03*
X39066000Y-17348000D03*
X39066000Y-18608000D03*
X39816000Y-16318000D03*
X39816000Y-19638000D03*
X41016000Y-15928000D03*
X41016000Y-20028000D03*
X42346000Y-15928000D03*
X42346000Y-20028000D03*
D37*
X43016000Y-17978000D03*
D36*
X43686000Y-15928000D03*
X43686000Y-20028000D03*
X45016000Y-15928000D03*
X45016000Y-20028000D03*
X46216000Y-16318000D03*
X46216000Y-19638000D03*
D35*
X46966000Y-17348000D03*
D34*
X46966000Y-18608000D03*
%TD*%
D38*
%TO.C,R10*%
X75588500Y-39624000D03*
X73763500Y-39624000D03*
%TD*%
D39*
%TO.C,D2*%
X54942500Y-44196000D03*
X56817500Y-44196000D03*
%TD*%
D24*
%TO.C,R7*%
X51689000Y-65786000D03*
X53514000Y-65786000D03*
%TD*%
D40*
%TO.C,JP1*%
X64799000Y-90600000D03*
X66099000Y-90600000D03*
%TD*%
D27*
%TO.C,R6*%
X35570000Y-67884500D03*
X31054000Y-67884500D03*
%TD*%
D19*
%TO.C,C7*%
X60960000Y-37460000D03*
X60960000Y-35560000D03*
%TD*%
D41*
%TO.C,R15*%
X62484000Y-72493500D03*
X62484000Y-74318500D03*
%TD*%
D19*
%TO.C,C15*%
X60833000Y-66101000D03*
X60833000Y-64201000D03*
%TD*%
D42*
%TO.C,J6*%
X77089000Y-60833000D03*
D43*
X77089000Y-55753000D03*
%TD*%
D21*
%TO.C,C2*%
X40325000Y-53975000D03*
X42225000Y-53975000D03*
%TD*%
D44*
%TO.C,U4*%
X63287500Y-39216252D03*
X63287500Y-40486252D03*
X63287500Y-41756252D03*
X63287500Y-43026252D03*
X63287500Y-44296252D03*
X63287500Y-45566252D03*
X63287500Y-46836252D03*
X68237500Y-46836252D03*
X68237500Y-45566252D03*
X68237500Y-44296252D03*
X68237500Y-43026252D03*
X68237500Y-41756252D03*
X68237500Y-40486252D03*
X68237500Y-39216252D03*
%TD*%
D45*
%TO.C,RV1*%
X56406000Y-55616000D03*
X56406000Y-58156000D03*
X56406000Y-60696000D03*
%TD*%
D38*
%TO.C,R11*%
X75588500Y-41656000D03*
X73763500Y-41656000D03*
%TD*%
%TO.C,R16*%
X62274000Y-90600000D03*
X60449000Y-90600000D03*
%TD*%
D39*
%TO.C,D3*%
X54942500Y-40640000D03*
X56817500Y-40640000D03*
%TD*%
D20*
%TO.C,J4*%
X68961000Y-9783000D03*
X64526000Y-9783000D03*
X60091000Y-9783000D03*
X68961000Y-14218000D03*
X64526000Y-14218000D03*
X60091000Y-14218000D03*
X68961000Y-18653000D03*
X64526000Y-18653000D03*
X60091000Y-18653000D03*
%TD*%
D46*
%TO.C,PS1*%
X48260000Y-47433500D03*
D47*
X45720000Y-47433500D03*
X43180000Y-47433500D03*
X40640000Y-47433500D03*
%TD*%
D19*
%TO.C,C12*%
X54356000Y-48578500D03*
X54356000Y-46678500D03*
%TD*%
D23*
%TO.C,C17*%
X59182000Y-58740000D03*
X59182000Y-60640000D03*
%TD*%
%LPD*%
M02*
