%TF.GenerationSoftware,KiCad,Pcbnew,7.0.11-7.0.11~ubuntu20.04.1*%
%TF.CreationDate,2024-08-15T08:53:24+02:00*%
%TF.ProjectId,diyBMS_CurrentVoltage_ADS1115,64697942-4d53-45f4-9375-7272656e7456,rev?*%
%TF.SameCoordinates,Original*%
%TF.FileFunction,Soldermask,Top*%
%TF.FilePolarity,Negative*%
%FSLAX46Y46*%
G04 Gerber Fmt 4.6, Leading zero omitted, Abs format (unit mm)*
G04 Created by KiCad (PCBNEW 7.0.11-7.0.11~ubuntu20.04.1) date 2024-08-15 08:53:24*
%MOMM*%
%LPD*%
G01*
G04 APERTURE LIST*
G04 Aperture macros list*
%AMRoundRect*
0 Rectangle with rounded corners*
0 $1 Rounding radius*
0 $2 $3 $4 $5 $6 $7 $8 $9 X,Y pos of 4 corners*
0 Add a 4 corners polygon primitive as box body*
4,1,4,$2,$3,$4,$5,$6,$7,$8,$9,$2,$3,0*
0 Add four circle primitives for the rounded corners*
1,1,$1+$1,$2,$3*
1,1,$1+$1,$4,$5*
1,1,$1+$1,$6,$7*
1,1,$1+$1,$8,$9*
0 Add four rect primitives between the rounded corners*
20,1,$1+$1,$2,$3,$4,$5,0*
20,1,$1+$1,$4,$5,$6,$7,0*
20,1,$1+$1,$6,$7,$8,$9,0*
20,1,$1+$1,$8,$9,$2,$3,0*%
%AMHorizOval*
0 Thick line with rounded ends*
0 $1 width*
0 $2 $3 position (X,Y) of the first rounded end (center of the circle)*
0 $4 $5 position (X,Y) of the second rounded end (center of the circle)*
0 Add line between two ends*
20,1,$1,$2,$3,$4,$5,0*
0 Add two circle primitives to create the rounded ends*
1,1,$1,$2,$3*
1,1,$1,$4,$5*%
G04 Aperture macros list end*
%ADD10C,0.150000*%
%ADD11C,0.200000*%
%ADD12R,2.600000X2.484000*%
%ADD13RoundRect,0.150000X-0.150000X0.875000X-0.150000X-0.875000X0.150000X-0.875000X0.150000X0.875000X0*%
%ADD14R,1.400000X1.400000*%
%ADD15C,1.400000*%
%ADD16R,1.700000X1.700000*%
%ADD17O,1.700000X1.700000*%
%ADD18RoundRect,0.250000X0.475000X-0.250000X0.475000X0.250000X-0.475000X0.250000X-0.475000X-0.250000X0*%
%ADD19C,3.200000*%
%ADD20RoundRect,0.250000X-0.250000X-0.475000X0.250000X-0.475000X0.250000X0.475000X-0.250000X0.475000X0*%
%ADD21RoundRect,0.250000X0.250000X0.475000X-0.250000X0.475000X-0.250000X-0.475000X0.250000X-0.475000X0*%
%ADD22RoundRect,0.250000X-0.475000X0.250000X-0.475000X-0.250000X0.475000X-0.250000X0.475000X0.250000X0*%
%ADD23RoundRect,0.250000X-0.262500X-0.450000X0.262500X-0.450000X0.262500X0.450000X-0.262500X0.450000X0*%
%ADD24RoundRect,0.250000X1.000000X0.650000X-1.000000X0.650000X-1.000000X-0.650000X1.000000X-0.650000X0*%
%ADD25RoundRect,0.250000X0.450000X-0.262500X0.450000X0.262500X-0.450000X0.262500X-0.450000X-0.262500X0*%
%ADD26R,2.484000X2.600000*%
%ADD27R,2.600000X2.600000*%
%ADD28C,2.600000*%
%ADD29R,1.905000X0.640000*%
%ADD30R,0.250000X1.100000*%
%ADD31R,1.500000X1.500000*%
%ADD32C,1.500000*%
%ADD33HorizOval,0.800000X0.000000X0.000000X0.000000X0.000000X0*%
%ADD34HorizOval,0.800000X0.000000X0.000000X0.000000X0.000000X0*%
%ADD35C,0.800000*%
%ADD36O,9.000000X6.000000*%
%ADD37RoundRect,0.250000X0.262500X0.450000X-0.262500X0.450000X-0.262500X-0.450000X0.262500X-0.450000X0*%
%ADD38RoundRect,0.243750X-0.243750X-0.456250X0.243750X-0.456250X0.243750X0.456250X-0.243750X0.456250X0*%
%ADD39R,1.000000X1.500000*%
%ADD40RoundRect,0.250000X-0.450000X0.262500X-0.450000X-0.262500X0.450000X-0.262500X0.450000X0.262500X0*%
%ADD41R,3.000000X3.000000*%
%ADD42C,3.000000*%
%ADD43RoundRect,0.150000X-0.825000X-0.150000X0.825000X-0.150000X0.825000X0.150000X-0.825000X0.150000X0*%
%ADD44C,1.440000*%
%ADD45R,1.750000X2.250000*%
%ADD46O,1.750000X2.250000*%
G04 APERTURE END LIST*
D10*
X48895000Y-7620000D02*
X71120000Y-7620000D01*
X71120000Y-21590000D01*
X48895000Y-21590000D01*
X48895000Y-7620000D01*
G36*
X48895000Y-7620000D02*
G01*
X71120000Y-7620000D01*
X71120000Y-21590000D01*
X48895000Y-21590000D01*
X48895000Y-7620000D01*
G37*
D11*
X24130000Y-7620000D02*
X47498000Y-7620000D01*
X47498000Y-21711000D01*
X24130000Y-21711000D01*
X24130000Y-7620000D01*
G36*
X24130000Y-7620000D02*
G01*
X47498000Y-7620000D01*
X47498000Y-21711000D01*
X24130000Y-21711000D01*
X24130000Y-7620000D01*
G37*
D12*
%TO.C,R5*%
X39977000Y-73317500D03*
X39977000Y-68801500D03*
%TD*%
D13*
%TO.C,U5*%
X70104000Y-77060000D03*
X68834000Y-77060000D03*
X67564000Y-77060000D03*
X66294000Y-77060000D03*
X65024000Y-77060000D03*
X63754000Y-77060000D03*
X62484000Y-77060000D03*
X61214000Y-77060000D03*
X61214000Y-86360000D03*
X62484000Y-86360000D03*
X63754000Y-86360000D03*
X65024000Y-86360000D03*
X66294000Y-86360000D03*
X67564000Y-86360000D03*
X68834000Y-86360000D03*
X70104000Y-86360000D03*
%TD*%
D14*
%TO.C,J3*%
X57194000Y-96950000D03*
D15*
X61004000Y-96950000D03*
X64814000Y-96950000D03*
X68624000Y-96950000D03*
%TD*%
D16*
%TO.C,J8*%
X69596000Y-36195000D03*
D17*
X67056000Y-36195000D03*
X64516000Y-36195000D03*
%TD*%
D18*
%TO.C,C16*%
X67691000Y-60955000D03*
X67691000Y-59055000D03*
%TD*%
%TO.C,C3*%
X51943000Y-54417000D03*
X51943000Y-52517000D03*
%TD*%
D19*
%TO.C,J5*%
X35931000Y-9783000D03*
X31496000Y-9783000D03*
X27061000Y-9783000D03*
X35931000Y-14218000D03*
X31496000Y-14218000D03*
X27061000Y-14218000D03*
X35931000Y-18653000D03*
X31496000Y-18653000D03*
X27061000Y-18653000D03*
%TD*%
D20*
%TO.C,C10*%
X68629000Y-89330000D03*
X70529000Y-89330000D03*
%TD*%
%TO.C,C8*%
X46802000Y-53848000D03*
X48702000Y-53848000D03*
%TD*%
D21*
%TO.C,C6*%
X34262000Y-76329500D03*
X32362000Y-76329500D03*
%TD*%
D12*
%TO.C,R3*%
X40040500Y-90144500D03*
X40040500Y-85628500D03*
%TD*%
D22*
%TO.C,C9*%
X65659000Y-58552000D03*
X65659000Y-60452000D03*
%TD*%
D18*
%TO.C,C5*%
X71374000Y-74090000D03*
X71374000Y-72190000D03*
%TD*%
D22*
%TO.C,C13*%
X53363500Y-61981000D03*
X53363500Y-63881000D03*
%TD*%
D20*
%TO.C,C11*%
X45786000Y-41656000D03*
X47686000Y-41656000D03*
%TD*%
D23*
%TO.C,R8*%
X51689000Y-68326000D03*
X53514000Y-68326000D03*
%TD*%
D24*
%TO.C,D1*%
X35312000Y-72329500D03*
X31312000Y-72329500D03*
%TD*%
D20*
%TO.C,C1*%
X40579000Y-44831000D03*
X42479000Y-44831000D03*
%TD*%
D25*
%TO.C,R17*%
X52324000Y-48561000D03*
X52324000Y-46736000D03*
%TD*%
D12*
%TO.C,R4*%
X39977000Y-82397500D03*
X39977000Y-77881500D03*
%TD*%
D20*
%TO.C,C4*%
X45786000Y-44831000D03*
X47686000Y-44831000D03*
%TD*%
D16*
%TO.C,J2*%
X79248000Y-50038000D03*
D17*
X76708000Y-50038000D03*
X74168000Y-50038000D03*
X71628000Y-50038000D03*
X69088000Y-50038000D03*
X66548000Y-50038000D03*
X64008000Y-50038000D03*
X61468000Y-50038000D03*
X58928000Y-50038000D03*
%TD*%
D22*
%TO.C,C14*%
X53363500Y-70424000D03*
X53363500Y-72324000D03*
%TD*%
D25*
%TO.C,R14*%
X74271500Y-47394500D03*
X74271500Y-45569500D03*
%TD*%
D26*
%TO.C,R1*%
X35496500Y-99951500D03*
X40012500Y-99951500D03*
%TD*%
D23*
%TO.C,R9*%
X73763500Y-43688000D03*
X75588500Y-43688000D03*
%TD*%
%TO.C,R12*%
X58754000Y-44296252D03*
X60579000Y-44296252D03*
%TD*%
%TO.C,R13*%
X58754000Y-40740252D03*
X60579000Y-40740252D03*
%TD*%
D27*
%TO.C,J7*%
X32865000Y-83505000D03*
D28*
X32865000Y-93025000D03*
%TD*%
D29*
%TO.C,U1*%
X39470000Y-56515000D03*
X39470000Y-57785000D03*
X39470000Y-59055000D03*
X39470000Y-60325000D03*
X50165000Y-60325000D03*
X50165000Y-59055000D03*
X50165000Y-57785000D03*
X50165000Y-56515000D03*
%TD*%
D30*
%TO.C,U2*%
X61484000Y-61586000D03*
X61984000Y-61586000D03*
X62484000Y-61586000D03*
X62984000Y-61586000D03*
X63484000Y-61586000D03*
X63484000Y-57286000D03*
X62984000Y-57286000D03*
X62484000Y-57286000D03*
X61984000Y-57286000D03*
X61484000Y-57286000D03*
%TD*%
D12*
%TO.C,R2*%
X43469500Y-95314500D03*
X43469500Y-90798500D03*
%TD*%
D31*
%TO.C,U3*%
X46106000Y-39378000D03*
D32*
X48016000Y-39378000D03*
X49926000Y-39378000D03*
D33*
X49066000Y-17348000D03*
D34*
X49066000Y-18608000D03*
D35*
X49816000Y-16318000D03*
X49816000Y-19638000D03*
X51016000Y-15928000D03*
X51016000Y-20028000D03*
X52346000Y-15928000D03*
X52346000Y-20028000D03*
D36*
X53016000Y-17978000D03*
D35*
X53686000Y-15928000D03*
X53686000Y-20028000D03*
X55016000Y-15928000D03*
X55016000Y-20028000D03*
X56216000Y-16318000D03*
X56216000Y-19638000D03*
X56966000Y-17348000D03*
X56966000Y-18608000D03*
X39066000Y-17348000D03*
X39066000Y-18608000D03*
X39816000Y-16318000D03*
X39816000Y-19638000D03*
X41016000Y-15928000D03*
X41016000Y-20028000D03*
X42346000Y-15928000D03*
X42346000Y-20028000D03*
D36*
X43016000Y-17978000D03*
D35*
X43686000Y-15928000D03*
X43686000Y-20028000D03*
X45016000Y-15928000D03*
X45016000Y-20028000D03*
X46216000Y-16318000D03*
X46216000Y-19638000D03*
D34*
X46966000Y-17348000D03*
D33*
X46966000Y-18608000D03*
%TD*%
D37*
%TO.C,R10*%
X75588500Y-39624000D03*
X73763500Y-39624000D03*
%TD*%
D38*
%TO.C,D2*%
X54942500Y-44196000D03*
X56817500Y-44196000D03*
%TD*%
D23*
%TO.C,R7*%
X51689000Y-65786000D03*
X53514000Y-65786000D03*
%TD*%
D39*
%TO.C,JP1*%
X64799000Y-90600000D03*
X66099000Y-90600000D03*
%TD*%
D26*
%TO.C,R6*%
X35570000Y-67884500D03*
X31054000Y-67884500D03*
%TD*%
D18*
%TO.C,C7*%
X60960000Y-37460000D03*
X60960000Y-35560000D03*
%TD*%
D40*
%TO.C,R15*%
X62484000Y-72493500D03*
X62484000Y-74318500D03*
%TD*%
D18*
%TO.C,C15*%
X60833000Y-66101000D03*
X60833000Y-64201000D03*
%TD*%
D41*
%TO.C,J6*%
X77089000Y-60833000D03*
D42*
X77089000Y-55753000D03*
%TD*%
D20*
%TO.C,C2*%
X40325000Y-53975000D03*
X42225000Y-53975000D03*
%TD*%
D43*
%TO.C,U4*%
X63287500Y-39216252D03*
X63287500Y-40486252D03*
X63287500Y-41756252D03*
X63287500Y-43026252D03*
X63287500Y-44296252D03*
X63287500Y-45566252D03*
X63287500Y-46836252D03*
X68237500Y-46836252D03*
X68237500Y-45566252D03*
X68237500Y-44296252D03*
X68237500Y-43026252D03*
X68237500Y-41756252D03*
X68237500Y-40486252D03*
X68237500Y-39216252D03*
%TD*%
D44*
%TO.C,RV1*%
X56406000Y-55616000D03*
X56406000Y-58156000D03*
X56406000Y-60696000D03*
%TD*%
D37*
%TO.C,R11*%
X75588500Y-41656000D03*
X73763500Y-41656000D03*
%TD*%
%TO.C,R16*%
X62274000Y-90600000D03*
X60449000Y-90600000D03*
%TD*%
D38*
%TO.C,D3*%
X54942500Y-40640000D03*
X56817500Y-40640000D03*
%TD*%
D19*
%TO.C,J4*%
X68961000Y-9783000D03*
X64526000Y-9783000D03*
X60091000Y-9783000D03*
X68961000Y-14218000D03*
X64526000Y-14218000D03*
X60091000Y-14218000D03*
X68961000Y-18653000D03*
X64526000Y-18653000D03*
X60091000Y-18653000D03*
%TD*%
D45*
%TO.C,PS1*%
X48260000Y-47433500D03*
D46*
X45720000Y-47433500D03*
X43180000Y-47433500D03*
X40640000Y-47433500D03*
%TD*%
D18*
%TO.C,C12*%
X54356000Y-48578500D03*
X54356000Y-46678500D03*
%TD*%
D22*
%TO.C,C17*%
X59182000Y-58740000D03*
X59182000Y-60640000D03*
%TD*%
M02*
