M48
; DRILL file {KiCad 7.0.11-7.0.11~ubuntu20.04.1} date Thu 15 Aug 2024 08:53:24 AM CEST
; FORMAT={-:-/ absolute / inch / decimal}
; #@! TF.CreationDate,2024-08-15T08:53:24+02:00
; #@! TF.GenerationSoftware,Kicad,Pcbnew,7.0.11-7.0.11~ubuntu20.04.1
; #@! TF.FileFunction,Plated,1,2,PTH
FMAT,2
INCH
; #@! TA.AperFunction,Plated,PTH,ViaDrill
T1C0.0157
; #@! TA.AperFunction,Plated,PTH,ComponentDrill
T2C0.0197
; #@! TA.AperFunction,Plated,PTH,ComponentDrill
T3C0.0276
; #@! TA.AperFunction,Plated,PTH,ComponentDrill
T4C0.0315
; #@! TA.AperFunction,Plated,PTH,ComponentDrill
T5C0.0394
; #@! TA.AperFunction,Plated,PTH,ComponentDrill
T6C0.0423
; #@! TA.AperFunction,Plated,PTH,ComponentDrill
T7C0.0512
; #@! TA.AperFunction,Plated,PTH,ComponentDrill
T8C0.0598
; #@! TA.AperFunction,Plated,PTH,ComponentDrill
T9C0.0728
; #@! TA.AperFunction,Plated,PTH,ComponentDrill
T10C0.0787
%
G90
G05
T1
X1.255Y-2.625
X1.515Y-2.39
X1.875Y-2.32
X1.93Y-1.09
X1.96Y-2.12
X1.97Y-1.9
X1.97Y-2.4
X2.045Y-2.09
X2.1Y-2.225
X2.1Y-2.415
X2.12Y-3.02
X2.16Y-1.68
X2.165Y-2.635
X2.21Y-1.88
X2.34Y-2.31
X2.35Y-2.875
X2.36Y-1.4
X2.38Y-3.04
X2.385Y-2.205
X2.39Y-3.45
X2.41Y-2.17
X2.46Y-2.3845
X2.49Y-2.305
X2.56Y-1.9
X2.58Y-2.65
X2.6Y-2.15
X2.645Y-2.15
X2.65Y-2.38
X2.67Y-3.52
X2.69Y-1.85
X2.7Y-2.94
X2.715Y-2.27
X2.775Y-2.275
X2.775Y-2.325
X2.78Y-1.645
X2.78Y-1.84
X2.81Y-2.81
X2.865Y-1.07
X3.19Y-3.13
X3.255Y-1.435
T2
X1.538Y-0.683
X1.538Y-0.7326
X1.5676Y-0.6424
X1.5676Y-0.7731
X1.6148Y-0.6271
X1.6148Y-0.7885
X1.6672Y-0.6271
X1.6672Y-0.7885
X1.7199Y-0.6271
X1.7199Y-0.7885
X1.7723Y-0.6271
X1.7723Y-0.7885
X1.8195Y-0.6424
X1.8195Y-0.7731
X1.8491Y-0.683
X1.8491Y-0.7326
X1.9317Y-0.683
X1.9317Y-0.7326
X1.9613Y-0.6424
X1.9613Y-0.7731
X2.0085Y-0.6271
X2.0085Y-0.7885
X2.0609Y-0.6271
X2.0609Y-0.7885
X2.1136Y-0.6271
X2.1136Y-0.7885
X2.166Y-0.6271
X2.166Y-0.7885
X2.2132Y-0.6424
X2.2132Y-0.7731
X2.2428Y-0.683
X2.2428Y-0.7326
T3
X2.2517Y-3.8169
X2.4017Y-3.8169
X2.5517Y-3.8169
X2.7017Y-3.8169
T4
X1.8152Y-1.5503
X1.8904Y-1.5503
X1.9656Y-1.5503
X2.2207Y-2.1896
X2.2207Y-2.2896
X2.2207Y-2.3896
T5
X2.32Y-1.97
X2.42Y-1.97
X2.52Y-1.97
X2.54Y-1.425
X2.62Y-1.97
X2.64Y-1.425
X2.72Y-1.97
X2.74Y-1.425
X2.82Y-1.97
X2.92Y-1.97
X3.02Y-1.97
X3.12Y-1.97
T6
X1.6Y-1.8675
X1.7Y-1.8675
X1.8Y-1.8675
X1.9Y-1.8675
T7
X1.2939Y-3.2876
X1.2939Y-3.6624
T8
X3.035Y-2.195
X3.035Y-2.395
T9
X1.0654Y-0.3852
X1.0654Y-0.5598
X1.0654Y-0.7344
X1.24Y-0.3852
X1.24Y-0.5598
X1.24Y-0.7344
X1.4146Y-0.3852
X1.4146Y-0.5598
X1.4146Y-0.7344
X2.3658Y-0.3852
X2.3658Y-0.5598
X2.3658Y-0.7344
X2.5404Y-0.3852
X2.5404Y-0.5598
X2.5404Y-0.7344
X2.715Y-0.3852
X2.715Y-0.5598
X2.715Y-0.7344
T10
G00X1.6148Y-0.7078
M15
G01X1.7723Y-0.7078
M16
G05
G00X2.0085Y-0.7078
M15
G01X2.166Y-0.7078
M16
G05
M30
