%TF.GenerationSoftware,KiCad,Pcbnew,7.0.5-7.0.5~ubuntu20.04.1*%
%TF.CreationDate,2023-08-05T16:15:12+02:00*%
%TF.ProjectId,diyBMS_CurrentVoltage_ADS1115,64697942-4d53-45f4-9375-7272656e7456,rev?*%
%TF.SameCoordinates,Original*%
%TF.FileFunction,Copper,L1,Top*%
%TF.FilePolarity,Positive*%
%FSLAX46Y46*%
G04 Gerber Fmt 4.6, Leading zero omitted, Abs format (unit mm)*
G04 Created by KiCad (PCBNEW 7.0.5-7.0.5~ubuntu20.04.1) date 2023-08-05 16:15:12*
%MOMM*%
%LPD*%
G01*
G04 APERTURE LIST*
G04 Aperture macros list*
%AMRoundRect*
0 Rectangle with rounded corners*
0 $1 Rounding radius*
0 $2 $3 $4 $5 $6 $7 $8 $9 X,Y pos of 4 corners*
0 Add a 4 corners polygon primitive as box body*
4,1,4,$2,$3,$4,$5,$6,$7,$8,$9,$2,$3,0*
0 Add four circle primitives for the rounded corners*
1,1,$1+$1,$2,$3*
1,1,$1+$1,$4,$5*
1,1,$1+$1,$6,$7*
1,1,$1+$1,$8,$9*
0 Add four rect primitives between the rounded corners*
20,1,$1+$1,$2,$3,$4,$5,0*
20,1,$1+$1,$4,$5,$6,$7,0*
20,1,$1+$1,$6,$7,$8,$9,0*
20,1,$1+$1,$8,$9,$2,$3,0*%
%AMHorizOval*
0 Thick line with rounded ends*
0 $1 width*
0 $2 $3 position (X,Y) of the first rounded end (center of the circle)*
0 $4 $5 position (X,Y) of the second rounded end (center of the circle)*
0 Add line between two ends*
20,1,$1,$2,$3,$4,$5,0*
0 Add two circle primitives to create the rounded ends*
1,1,$1,$2,$3*
1,1,$1,$4,$5*%
G04 Aperture macros list end*
%TA.AperFunction,SMDPad,CuDef*%
%ADD10RoundRect,0.250000X0.475000X-0.250000X0.475000X0.250000X-0.475000X0.250000X-0.475000X-0.250000X0*%
%TD*%
%TA.AperFunction,SMDPad,CuDef*%
%ADD11R,2.484000X2.600000*%
%TD*%
%TA.AperFunction,SMDPad,CuDef*%
%ADD12R,2.600000X2.484000*%
%TD*%
%TA.AperFunction,SMDPad,CuDef*%
%ADD13RoundRect,0.150000X-0.150000X0.875000X-0.150000X-0.875000X0.150000X-0.875000X0.150000X0.875000X0*%
%TD*%
%TA.AperFunction,ComponentPad*%
%ADD14R,1.400000X1.400000*%
%TD*%
%TA.AperFunction,ComponentPad*%
%ADD15C,1.400000*%
%TD*%
%TA.AperFunction,ComponentPad*%
%ADD16R,1.700000X1.700000*%
%TD*%
%TA.AperFunction,ComponentPad*%
%ADD17O,1.700000X1.700000*%
%TD*%
%TA.AperFunction,ComponentPad*%
%ADD18C,3.200000*%
%TD*%
%TA.AperFunction,SMDPad,CuDef*%
%ADD19RoundRect,0.250000X-0.250000X-0.475000X0.250000X-0.475000X0.250000X0.475000X-0.250000X0.475000X0*%
%TD*%
%TA.AperFunction,SMDPad,CuDef*%
%ADD20RoundRect,0.250000X0.250000X0.475000X-0.250000X0.475000X-0.250000X-0.475000X0.250000X-0.475000X0*%
%TD*%
%TA.AperFunction,SMDPad,CuDef*%
%ADD21RoundRect,0.250000X-0.475000X0.250000X-0.475000X-0.250000X0.475000X-0.250000X0.475000X0.250000X0*%
%TD*%
%TA.AperFunction,SMDPad,CuDef*%
%ADD22RoundRect,0.250000X-0.262500X-0.450000X0.262500X-0.450000X0.262500X0.450000X-0.262500X0.450000X0*%
%TD*%
%TA.AperFunction,SMDPad,CuDef*%
%ADD23RoundRect,0.250000X1.000000X0.650000X-1.000000X0.650000X-1.000000X-0.650000X1.000000X-0.650000X0*%
%TD*%
%TA.AperFunction,SMDPad,CuDef*%
%ADD24RoundRect,0.250000X0.450000X-0.262500X0.450000X0.262500X-0.450000X0.262500X-0.450000X-0.262500X0*%
%TD*%
%TA.AperFunction,ComponentPad*%
%ADD25R,2.600000X2.600000*%
%TD*%
%TA.AperFunction,ComponentPad*%
%ADD26C,2.600000*%
%TD*%
%TA.AperFunction,SMDPad,CuDef*%
%ADD27R,1.905000X0.640000*%
%TD*%
%TA.AperFunction,SMDPad,CuDef*%
%ADD28R,0.250000X1.100000*%
%TD*%
%TA.AperFunction,ComponentPad*%
%ADD29R,1.500000X1.500000*%
%TD*%
%TA.AperFunction,ComponentPad*%
%ADD30C,1.500000*%
%TD*%
%TA.AperFunction,ComponentPad*%
%ADD31HorizOval,0.800000X0.000000X0.000000X0.000000X0.000000X0*%
%TD*%
%TA.AperFunction,ComponentPad*%
%ADD32HorizOval,0.800000X0.000000X0.000000X0.000000X0.000000X0*%
%TD*%
%TA.AperFunction,ComponentPad*%
%ADD33C,0.800000*%
%TD*%
%TA.AperFunction,ComponentPad*%
%ADD34O,9.000000X6.000000*%
%TD*%
%TA.AperFunction,SMDPad,CuDef*%
%ADD35RoundRect,0.250000X0.262500X0.450000X-0.262500X0.450000X-0.262500X-0.450000X0.262500X-0.450000X0*%
%TD*%
%TA.AperFunction,SMDPad,CuDef*%
%ADD36RoundRect,0.243750X-0.243750X-0.456250X0.243750X-0.456250X0.243750X0.456250X-0.243750X0.456250X0*%
%TD*%
%TA.AperFunction,SMDPad,CuDef*%
%ADD37R,1.000000X1.500000*%
%TD*%
%TA.AperFunction,SMDPad,CuDef*%
%ADD38RoundRect,0.250000X-0.450000X0.262500X-0.450000X-0.262500X0.450000X-0.262500X0.450000X0.262500X0*%
%TD*%
%TA.AperFunction,ComponentPad*%
%ADD39R,3.000000X3.000000*%
%TD*%
%TA.AperFunction,ComponentPad*%
%ADD40C,3.000000*%
%TD*%
%TA.AperFunction,SMDPad,CuDef*%
%ADD41RoundRect,0.150000X-0.825000X-0.150000X0.825000X-0.150000X0.825000X0.150000X-0.825000X0.150000X0*%
%TD*%
%TA.AperFunction,ComponentPad*%
%ADD42R,1.750000X2.250000*%
%TD*%
%TA.AperFunction,ComponentPad*%
%ADD43O,1.750000X2.250000*%
%TD*%
%TA.AperFunction,ViaPad*%
%ADD44C,0.800000*%
%TD*%
%TA.AperFunction,Conductor*%
%ADD45C,0.250000*%
%TD*%
G04 APERTURE END LIST*
%TA.AperFunction,EtchedComponent*%
%TO.C,JP1*%
G36*
X65699000Y-90900000D02*
G01*
X65199000Y-90900000D01*
X65199000Y-90300000D01*
X65699000Y-90300000D01*
X65699000Y-90900000D01*
G37*
%TD.AperFunction*%
%TD*%
D10*
%TO.P,C16,1*%
%TO.N,GND*%
X67691000Y-60955000D03*
%TO.P,C16,2*%
%TO.N,+5V*%
X67691000Y-59055000D03*
%TD*%
D11*
%TO.P,R6,1*%
%TO.N,Net-(D1-A1)*%
X35570000Y-67884500D03*
%TO.P,R6,2*%
%TO.N,GND1*%
X31054000Y-67884500D03*
%TD*%
D12*
%TO.P,R5,1*%
%TO.N,Net-(R4-Pad2)*%
X39977000Y-73317500D03*
%TO.P,R5,2*%
%TO.N,Net-(D1-A1)*%
X39977000Y-68801500D03*
%TD*%
%TO.P,R3,1*%
%TO.N,Net-(R2-Pad2)*%
X40040500Y-90144500D03*
%TO.P,R3,2*%
%TO.N,Net-(R3-Pad2)*%
X40040500Y-85628500D03*
%TD*%
%TO.P,R4,1*%
%TO.N,Net-(R3-Pad2)*%
X39977000Y-82397500D03*
%TO.P,R4,2*%
%TO.N,Net-(R4-Pad2)*%
X39977000Y-77881500D03*
%TD*%
D11*
%TO.P,R1,1*%
%TO.N,Net-(J7-Pin_2)*%
X35496500Y-99951500D03*
%TO.P,R1,2*%
%TO.N,Net-(R1-Pad2)*%
X40012500Y-99951500D03*
%TD*%
D12*
%TO.P,R2,1*%
%TO.N,Net-(R1-Pad2)*%
X43469500Y-95314500D03*
%TO.P,R2,2*%
%TO.N,Net-(R2-Pad2)*%
X43469500Y-90798500D03*
%TD*%
D13*
%TO.P,U5,1,VDD1*%
%TO.N,+5V*%
X70104000Y-77060000D03*
%TO.P,U5,2,GND1*%
%TO.N,GND*%
X68834000Y-77060000D03*
%TO.P,U5,3,RxD*%
%TO.N,RXD*%
X67564000Y-77060000D03*
%TO.P,U5,4,~{RE}*%
%TO.N,XDIR*%
X66294000Y-77060000D03*
%TO.P,U5,5,DE*%
X65024000Y-77060000D03*
%TO.P,U5,6,TxD*%
%TO.N,TXD*%
X63754000Y-77060000D03*
%TO.P,U5,7,PV*%
%TO.N,Net-(U5-PV)*%
X62484000Y-77060000D03*
%TO.P,U5,8,GND1*%
%TO.N,GND*%
X61214000Y-77060000D03*
%TO.P,U5,9,GND2*%
%TO.N,GND2*%
X61214000Y-86360000D03*
%TO.P,U5,10,NC*%
%TO.N,unconnected-(U5-NC-Pad10)*%
X62484000Y-86360000D03*
%TO.P,U5,11,NC*%
%TO.N,unconnected-(U5-NC-Pad11)*%
X63754000Y-86360000D03*
%TO.P,U5,12,A*%
%TO.N,A*%
X65024000Y-86360000D03*
%TO.P,U5,13,B*%
%TO.N,B*%
X66294000Y-86360000D03*
%TO.P,U5,14,NC*%
%TO.N,unconnected-(U5-NC-Pad14)*%
X67564000Y-86360000D03*
%TO.P,U5,15,GND2*%
%TO.N,GND2*%
X68834000Y-86360000D03*
%TO.P,U5,16,VDD2*%
%TO.N,VDD2*%
X70104000Y-86360000D03*
%TD*%
D14*
%TO.P,J3,1,Pin_1*%
%TO.N,VDD2*%
X57194000Y-96950000D03*
D15*
%TO.P,J3,2,Pin_2*%
%TO.N,A*%
X61004000Y-96950000D03*
%TO.P,J3,3,Pin_3*%
%TO.N,B*%
X64814000Y-96950000D03*
%TO.P,J3,4,Pin_4*%
%TO.N,GND2*%
X68624000Y-96950000D03*
%TD*%
D16*
%TO.P,J8,1,Pin_1*%
%TO.N,GND*%
X69596000Y-36195000D03*
D17*
%TO.P,J8,2,Pin_2*%
%TO.N,PA3*%
X67056000Y-36195000D03*
%TO.P,J8,3,Pin_3*%
%TO.N,PA4*%
X64516000Y-36195000D03*
%TD*%
D10*
%TO.P,C3,1*%
%TO.N,+5V*%
X51943000Y-54417000D03*
%TO.P,C3,2*%
%TO.N,GND*%
X51943000Y-52517000D03*
%TD*%
D18*
%TO.P,J5,1,Pin_1*%
%TO.N,Net-(J5-Pin_1)*%
X35931000Y-9783000D03*
X31496000Y-9783000D03*
X27061000Y-9783000D03*
X35931000Y-14218000D03*
X31496000Y-14218000D03*
X27061000Y-14218000D03*
X35931000Y-18653000D03*
X31496000Y-18653000D03*
X27061000Y-18653000D03*
%TD*%
D19*
%TO.P,C10,1*%
%TO.N,GND2*%
X68629000Y-89330000D03*
%TO.P,C10,2*%
%TO.N,VDD2*%
X70529000Y-89330000D03*
%TD*%
%TO.P,C8,1*%
%TO.N,+5V*%
X46802000Y-53848000D03*
%TO.P,C8,2*%
%TO.N,GND*%
X48702000Y-53848000D03*
%TD*%
D20*
%TO.P,C6,1*%
%TO.N,Net-(D1-A1)*%
X34262000Y-76329500D03*
%TO.P,C6,2*%
%TO.N,GND1*%
X32362000Y-76329500D03*
%TD*%
D21*
%TO.P,C9,1*%
%TO.N,+5V*%
X65659000Y-58552000D03*
%TO.P,C9,2*%
%TO.N,GND*%
X65659000Y-60452000D03*
%TD*%
D10*
%TO.P,C5,1*%
%TO.N,+5V*%
X71374000Y-74090000D03*
%TO.P,C5,2*%
%TO.N,GND*%
X71374000Y-72190000D03*
%TD*%
D21*
%TO.P,C13,1*%
%TO.N,GND*%
X52832000Y-66299000D03*
%TO.P,C13,2*%
%TO.N,Net-(J1-Pin_7)*%
X52832000Y-68199000D03*
%TD*%
D19*
%TO.P,C11,1*%
%TO.N,+5V*%
X45786000Y-41656000D03*
%TO.P,C11,2*%
%TO.N,GND*%
X47686000Y-41656000D03*
%TD*%
D22*
%TO.P,R8,1*%
%TO.N,Net-(U1-OUT-)*%
X51157500Y-72644000D03*
%TO.P,R8,2*%
%TO.N,Net-(J1-Pin_8)*%
X52982500Y-72644000D03*
%TD*%
D23*
%TO.P,D1,1,A1*%
%TO.N,Net-(D1-A1)*%
X35312000Y-72329500D03*
%TO.P,D1,2,A2*%
%TO.N,GND1*%
X31312000Y-72329500D03*
%TD*%
D19*
%TO.P,C1,1*%
%TO.N,+5VP*%
X40579000Y-44831000D03*
%TO.P,C1,2*%
%TO.N,GND1*%
X42479000Y-44831000D03*
%TD*%
D24*
%TO.P,R17,1*%
%TO.N,Net-(J1-Pin_9)*%
X52324000Y-48561000D03*
%TO.P,R17,2*%
%TO.N,Net-(U3-VIOUT)*%
X52324000Y-46736000D03*
%TD*%
D19*
%TO.P,C4,1*%
%TO.N,+5V*%
X45786000Y-44831000D03*
%TO.P,C4,2*%
%TO.N,GND*%
X47686000Y-44831000D03*
%TD*%
D16*
%TO.P,J2,1,Pin_1*%
%TO.N,+5V*%
X79248000Y-50038000D03*
D17*
%TO.P,J2,2,Pin_2*%
%TO.N,Net-(J2-Pin_2)*%
X76708000Y-50038000D03*
%TO.P,J2,3,Pin_3*%
%TO.N,GND*%
X74168000Y-50038000D03*
%TO.P,J2,4,Pin_4*%
%TO.N,XDIR*%
X71628000Y-50038000D03*
%TO.P,J2,5,Pin_5*%
%TO.N,SCL*%
X69088000Y-50038000D03*
%TO.P,J2,6,Pin_6*%
%TO.N,SDA*%
X66548000Y-50038000D03*
%TO.P,J2,7,Pin_7*%
%TO.N,TXD*%
X64008000Y-50038000D03*
%TO.P,J2,8,Pin_8*%
%TO.N,RXD*%
X61468000Y-50038000D03*
%TO.P,J2,9,Pin_9*%
%TO.N,PA5*%
X58928000Y-50038000D03*
%TD*%
D21*
%TO.P,C14,1*%
%TO.N,Net-(J1-Pin_8)*%
X52832000Y-74742000D03*
%TO.P,C14,2*%
%TO.N,GND*%
X52832000Y-76642000D03*
%TD*%
D24*
%TO.P,R14,1*%
%TO.N,Net-(J2-Pin_2)*%
X74271500Y-47394500D03*
%TO.P,R14,2*%
%TO.N,RESET*%
X74271500Y-45569500D03*
%TD*%
D22*
%TO.P,R9,1*%
%TO.N,RESET*%
X73763500Y-43688000D03*
%TO.P,R9,2*%
%TO.N,+5V*%
X75588500Y-43688000D03*
%TD*%
%TO.P,R12,1*%
%TO.N,Net-(D2-A)*%
X58754000Y-44296252D03*
%TO.P,R12,2*%
%TO.N,PA7*%
X60579000Y-44296252D03*
%TD*%
%TO.P,R13,1*%
%TO.N,Net-(D3-A)*%
X58754000Y-40740252D03*
%TO.P,R13,2*%
%TO.N,PA6*%
X60579000Y-40740252D03*
%TD*%
D25*
%TO.P,J7,1,Pin_1*%
%TO.N,GND1*%
X32865000Y-83505000D03*
D26*
%TO.P,J7,2,Pin_2*%
%TO.N,Net-(J7-Pin_2)*%
X32865000Y-93025000D03*
%TD*%
D27*
%TO.P,U1,1,VDD1*%
%TO.N,+5VP*%
X39470000Y-56515000D03*
%TO.P,U1,2,IN*%
%TO.N,Net-(D1-A1)*%
X39470000Y-57785000D03*
%TO.P,U1,3,IN-*%
%TO.N,GND1*%
X39470000Y-59055000D03*
%TO.P,U1,4,GND1*%
X39470000Y-60325000D03*
%TO.P,U1,5,GND2*%
%TO.N,GND*%
X50165000Y-60325000D03*
%TO.P,U1,6,OUT-*%
%TO.N,Net-(U1-OUT-)*%
X50165000Y-59055000D03*
%TO.P,U1,7,OUT+*%
%TO.N,Net-(U1-OUT+)*%
X50165000Y-57785000D03*
%TO.P,U1,8,VDD2*%
%TO.N,+5V*%
X50165000Y-56515000D03*
%TD*%
D28*
%TO.P,U2,1,ADDR*%
%TO.N,Net-(J1-Pin_5)*%
X61484000Y-61586000D03*
%TO.P,U2,2,ALERT/RDY*%
%TO.N,ALERT*%
X61984000Y-61586000D03*
%TO.P,U2,3,GND*%
%TO.N,GND*%
X62484000Y-61586000D03*
%TO.P,U2,4,AIN0*%
%TO.N,Net-(J1-Pin_7)*%
X62984000Y-61586000D03*
%TO.P,U2,5,AIN1*%
%TO.N,Net-(J1-Pin_8)*%
X63484000Y-61586000D03*
%TO.P,U2,6,AIN2*%
%TO.N,Net-(J1-Pin_9)*%
X63484000Y-57286000D03*
%TO.P,U2,7,AIN3*%
%TO.N,Net-(J1-Pin_10)*%
X62984000Y-57286000D03*
%TO.P,U2,8,VDD*%
%TO.N,+5V*%
X62484000Y-57286000D03*
%TO.P,U2,9,SDA*%
%TO.N,SDA*%
X61984000Y-57286000D03*
%TO.P,U2,10,SCL*%
%TO.N,SCL*%
X61484000Y-57286000D03*
%TD*%
D29*
%TO.P,U3,1,VCC*%
%TO.N,+5V*%
X46106000Y-39378000D03*
D30*
%TO.P,U3,2,GND*%
%TO.N,GND*%
X48016000Y-39378000D03*
%TO.P,U3,3,VIOUT*%
%TO.N,Net-(U3-VIOUT)*%
X49926000Y-39378000D03*
D31*
%TO.P,U3,4,IP+*%
%TO.N,Net-(J4-Pin_1)*%
X49066000Y-17348000D03*
D32*
X49066000Y-18608000D03*
D33*
X49816000Y-16318000D03*
X49816000Y-19638000D03*
X51016000Y-15928000D03*
X51016000Y-20028000D03*
X52346000Y-15928000D03*
X52346000Y-20028000D03*
D34*
X53016000Y-17978000D03*
D33*
X53686000Y-15928000D03*
X53686000Y-20028000D03*
X55016000Y-15928000D03*
X55016000Y-20028000D03*
X56216000Y-16318000D03*
X56216000Y-19638000D03*
X56966000Y-17348000D03*
X56966000Y-18608000D03*
%TO.P,U3,5,IP-*%
%TO.N,Net-(J5-Pin_1)*%
X39066000Y-17348000D03*
X39066000Y-18608000D03*
X39816000Y-16318000D03*
X39816000Y-19638000D03*
X41016000Y-15928000D03*
X41016000Y-20028000D03*
X42346000Y-15928000D03*
X42346000Y-20028000D03*
D34*
X43016000Y-17978000D03*
D33*
X43686000Y-15928000D03*
X43686000Y-20028000D03*
X45016000Y-15928000D03*
X45016000Y-20028000D03*
X46216000Y-16318000D03*
X46216000Y-19638000D03*
D32*
X46966000Y-17348000D03*
D31*
X46966000Y-18608000D03*
%TD*%
D35*
%TO.P,R10,1*%
%TO.N,+5V*%
X75588500Y-39624000D03*
%TO.P,R10,2*%
%TO.N,SCL*%
X73763500Y-39624000D03*
%TD*%
D36*
%TO.P,D2,1,K*%
%TO.N,GND*%
X54942500Y-44196000D03*
%TO.P,D2,2,A*%
%TO.N,Net-(D2-A)*%
X56817500Y-44196000D03*
%TD*%
D22*
%TO.P,R7,1*%
%TO.N,Net-(U1-OUT+)*%
X51157500Y-70104000D03*
%TO.P,R7,2*%
%TO.N,Net-(J1-Pin_7)*%
X52982500Y-70104000D03*
%TD*%
D37*
%TO.P,JP1,1,A*%
%TO.N,Net-(JP1-A)*%
X64799000Y-90600000D03*
%TO.P,JP1,2,B*%
%TO.N,B*%
X66099000Y-90600000D03*
%TD*%
D10*
%TO.P,C7,1*%
%TO.N,+5V*%
X60960000Y-37460000D03*
%TO.P,C7,2*%
%TO.N,GND*%
X60960000Y-35560000D03*
%TD*%
D38*
%TO.P,R15,1*%
%TO.N,+5V*%
X62484000Y-72493500D03*
%TO.P,R15,2*%
%TO.N,Net-(U5-PV)*%
X62484000Y-74318500D03*
%TD*%
D10*
%TO.P,C15,1*%
%TO.N,Net-(J1-Pin_8)*%
X59055000Y-71750000D03*
%TO.P,C15,2*%
%TO.N,Net-(J1-Pin_7)*%
X59055000Y-69850000D03*
%TD*%
D16*
%TO.P,J1,1,Pin_1*%
%TO.N,+5V*%
X55880000Y-54864000D03*
D17*
%TO.P,J1,2,Pin_2*%
%TO.N,GND*%
X55880000Y-57404000D03*
%TO.P,J1,3,Pin_3*%
%TO.N,SCL*%
X55880000Y-59944000D03*
%TO.P,J1,4,Pin_4*%
%TO.N,SDA*%
X55880000Y-62484000D03*
%TO.P,J1,5,Pin_5*%
%TO.N,Net-(J1-Pin_5)*%
X55880000Y-65024000D03*
%TO.P,J1,6,Pin_6*%
%TO.N,ALERT*%
X55880000Y-67564000D03*
%TO.P,J1,7,Pin_7*%
%TO.N,Net-(J1-Pin_7)*%
X55880000Y-70104000D03*
%TO.P,J1,8,Pin_8*%
%TO.N,Net-(J1-Pin_8)*%
X55880000Y-72644000D03*
%TO.P,J1,9,Pin_9*%
%TO.N,Net-(J1-Pin_9)*%
X55880000Y-75184000D03*
%TO.P,J1,10,Pin_10*%
%TO.N,Net-(J1-Pin_10)*%
X55880000Y-77724000D03*
%TD*%
D39*
%TO.P,J6,1,Pin_1*%
%TO.N,+5V*%
X77089000Y-60833000D03*
D40*
%TO.P,J6,2,Pin_2*%
%TO.N,GND*%
X77089000Y-55753000D03*
%TD*%
D19*
%TO.P,C2,1*%
%TO.N,+5VP*%
X40325000Y-53975000D03*
%TO.P,C2,2*%
%TO.N,GND1*%
X42225000Y-53975000D03*
%TD*%
D41*
%TO.P,U4,1,VCC*%
%TO.N,+5V*%
X63287500Y-39216252D03*
%TO.P,U4,2,PA4*%
%TO.N,PA4*%
X63287500Y-40486252D03*
%TO.P,U4,3,PA5*%
%TO.N,PA5*%
X63287500Y-41756252D03*
%TO.P,U4,4,PA6*%
%TO.N,PA6*%
X63287500Y-43026252D03*
%TO.P,U4,5,PA7*%
%TO.N,PA7*%
X63287500Y-44296252D03*
%TO.P,U4,6,PB3*%
%TO.N,RXD*%
X63287500Y-45566252D03*
%TO.P,U4,7,PB2*%
%TO.N,TXD*%
X63287500Y-46836252D03*
%TO.P,U4,8,PB1*%
%TO.N,ALERT*%
X68237500Y-46836252D03*
%TO.P,U4,9,PB0*%
%TO.N,XDIR*%
X68237500Y-45566252D03*
%TO.P,U4,10,~{RESET}/PA0*%
%TO.N,RESET*%
X68237500Y-44296252D03*
%TO.P,U4,11,PA1*%
%TO.N,SDA*%
X68237500Y-43026252D03*
%TO.P,U4,12,PA2*%
%TO.N,SCL*%
X68237500Y-41756252D03*
%TO.P,U4,13,PA3*%
%TO.N,PA3*%
X68237500Y-40486252D03*
%TO.P,U4,14,GND*%
%TO.N,GND*%
X68237500Y-39216252D03*
%TD*%
D35*
%TO.P,R11,1*%
%TO.N,+5V*%
X75588500Y-41656000D03*
%TO.P,R11,2*%
%TO.N,SDA*%
X73763500Y-41656000D03*
%TD*%
%TO.P,R16,1*%
%TO.N,Net-(JP1-A)*%
X62274000Y-90600000D03*
%TO.P,R16,2*%
%TO.N,A*%
X60449000Y-90600000D03*
%TD*%
D36*
%TO.P,D3,1,K*%
%TO.N,GND*%
X54942500Y-40640000D03*
%TO.P,D3,2,A*%
%TO.N,Net-(D3-A)*%
X56817500Y-40640000D03*
%TD*%
D18*
%TO.P,J4,1,Pin_1*%
%TO.N,Net-(J4-Pin_1)*%
X68961000Y-9783000D03*
X64526000Y-9783000D03*
X60091000Y-9783000D03*
X68961000Y-14218000D03*
X64526000Y-14218000D03*
X60091000Y-14218000D03*
X68961000Y-18653000D03*
X64526000Y-18653000D03*
X60091000Y-18653000D03*
%TD*%
D42*
%TO.P,PS1,1,-Vin*%
%TO.N,GND*%
X48260000Y-47433500D03*
D43*
%TO.P,PS1,2,+Vin*%
%TO.N,+5V*%
X45720000Y-47433500D03*
%TO.P,PS1,3,-Vout*%
%TO.N,GND1*%
X43180000Y-47433500D03*
%TO.P,PS1,4,+Vout*%
%TO.N,+5VP*%
X40640000Y-47433500D03*
%TD*%
D10*
%TO.P,C12,1*%
%TO.N,Net-(J1-Pin_9)*%
X54356000Y-48578500D03*
%TO.P,C12,2*%
%TO.N,GND*%
X54356000Y-46678500D03*
%TD*%
D44*
%TO.N,GND1*%
X31877000Y-66675000D03*
X38481000Y-60706000D03*
%TO.N,GND*%
X81026000Y-79502000D03*
X82677000Y-36449000D03*
X58166000Y-56134000D03*
X59944000Y-35560000D03*
X49022000Y-27686000D03*
X56134000Y-47752000D03*
X52705000Y-64770000D03*
X71374000Y-71374000D03*
X54864000Y-42672000D03*
X72771000Y-27178000D03*
X65532000Y-67310000D03*
X49784000Y-53848000D03*
X50546000Y-79248000D03*
X59690000Y-73025000D03*
X47625000Y-58928000D03*
X67310000Y-60452000D03*
X68580000Y-74676000D03*
X53848000Y-76708000D03*
X51943000Y-53086000D03*
X50038000Y-60960000D03*
X62485139Y-60567352D03*
X60452000Y-77216000D03*
X50038000Y-48260000D03*
X59563000Y-65786000D03*
%TO.N,GND2*%
X67818000Y-89408000D03*
X60706000Y-87630000D03*
%TO.N,SCL*%
X70612000Y-46736000D03*
X60579000Y-56007000D03*
X70612000Y-41783000D03*
%TO.N,SDA*%
X61214000Y-55118000D03*
%TO.N,TXD*%
X67183000Y-54610000D03*
X68961000Y-57658000D03*
%TO.N,RXD*%
X70485000Y-59055000D03*
X66040000Y-54610000D03*
%TO.N,PA5*%
X65024000Y-48260000D03*
%TO.N,ALERT*%
X53340000Y-56515000D03*
X68326000Y-46990000D03*
%TO.N,XDIR*%
X70485000Y-57785000D03*
%TO.N,Net-(J1-Pin_9)*%
X64262000Y-58547000D03*
%TO.N,Net-(J1-Pin_10)*%
X63246000Y-58547000D03*
%TD*%
D45*
%TO.N,+5V*%
X67691000Y-59055000D02*
X66162000Y-59055000D01*
X66162000Y-59055000D02*
X65659000Y-58552000D01*
%TO.N,Net-(D1-A1)*%
X38837500Y-57785000D02*
X35570000Y-61052500D01*
X35570000Y-61052500D02*
X35570000Y-67884500D01*
X35312000Y-72329500D02*
X35312000Y-75279500D01*
X36487000Y-68609500D02*
X35762000Y-67884500D01*
X35762000Y-67884500D02*
X35762000Y-71879500D01*
X39470000Y-57785000D02*
X38837500Y-57785000D01*
X35312000Y-75279500D02*
X34262000Y-76329500D01*
X35762000Y-71879500D02*
X35312000Y-72329500D01*
X39977000Y-68609500D02*
X36487000Y-68609500D01*
%TO.N,GND1*%
X39470000Y-59055000D02*
X39470000Y-60325000D01*
X42479000Y-44831000D02*
X43053000Y-44831000D01*
X43053000Y-44831000D02*
X43180000Y-44958000D01*
X30862000Y-71879500D02*
X31312000Y-72329500D01*
X31312000Y-75279500D02*
X32362000Y-76329500D01*
X42164000Y-53848000D02*
X43180000Y-52832000D01*
X31312000Y-72329500D02*
X31312000Y-75279500D01*
X30862000Y-67884500D02*
X30862000Y-71879500D01*
X39470000Y-59055000D02*
X40767000Y-59055000D01*
X43180000Y-47433500D02*
X43180000Y-44958000D01*
X32357000Y-76334500D02*
X32362000Y-76329500D01*
X40767000Y-59055000D02*
X42225000Y-57597000D01*
X32357000Y-80557500D02*
X32357000Y-76334500D01*
X42225000Y-57597000D02*
X42225000Y-53975000D01*
X43180000Y-52832000D02*
X43180000Y-47433500D01*
X32865000Y-81065500D02*
X32357000Y-80557500D01*
X42164000Y-53914000D02*
X42225000Y-53975000D01*
X32865000Y-81065500D02*
X32865000Y-83505000D01*
%TO.N,GND*%
X60452000Y-77216000D02*
X61058000Y-77216000D01*
X70163000Y-72190000D02*
X71374000Y-72190000D01*
X68580000Y-76806000D02*
X68834000Y-77060000D01*
X62485139Y-60567352D02*
X62600491Y-60452000D01*
X54942500Y-42750500D02*
X54864000Y-42672000D01*
X68580000Y-74676000D02*
X68580000Y-76806000D01*
X61058000Y-77216000D02*
X61214000Y-77060000D01*
X50292000Y-60452000D02*
X50165000Y-60325000D01*
X70163000Y-72190000D02*
X68580000Y-73773000D01*
X48702000Y-53848000D02*
X49784000Y-53848000D01*
X54864000Y-40718500D02*
X54942500Y-40640000D01*
X68580000Y-73773000D02*
X68580000Y-74676000D01*
X62484000Y-61586000D02*
X62484000Y-60568491D01*
X54864000Y-42672000D02*
X54864000Y-40718500D01*
X54942500Y-44196000D02*
X54942500Y-42750500D01*
X62484000Y-60568491D02*
X62485139Y-60567352D01*
X62600491Y-60452000D02*
X65532000Y-60452000D01*
%TO.N,+5V*%
X70104000Y-77060000D02*
X70104000Y-77486751D01*
X70163000Y-77001000D02*
X70104000Y-77060000D01*
X45786000Y-40132000D02*
X45786000Y-38542000D01*
X59182000Y-79248000D02*
X59563000Y-78867000D01*
X75588500Y-39624000D02*
X75588500Y-41656000D01*
X59563000Y-78867000D02*
X59182000Y-78486000D01*
X63287500Y-39216252D02*
X61155248Y-37084000D01*
X48387000Y-56515000D02*
X50165000Y-56515000D01*
X70163000Y-74090000D02*
X70163000Y-74168000D01*
X62484000Y-59309000D02*
X62484000Y-57286000D01*
X50165000Y-56515000D02*
X51816000Y-54864000D01*
X45786000Y-40132000D02*
X45786000Y-39698000D01*
X64590000Y-59494000D02*
X62669000Y-59494000D01*
X53213000Y-79248000D02*
X59182000Y-79248000D01*
X76200000Y-53086000D02*
X79248000Y-50038000D01*
X48768000Y-57279500D02*
X48768000Y-74803000D01*
X45720000Y-52766000D02*
X46802000Y-53848000D01*
X72126173Y-74090000D02*
X72771000Y-74090000D01*
X49532500Y-56515000D02*
X48768000Y-57279500D01*
X70104000Y-77486751D02*
X67834751Y-79756000D01*
X62484000Y-57286000D02*
X62484000Y-52959000D01*
X46802000Y-53848000D02*
X46802000Y-54930000D01*
X62484000Y-52959000D02*
X57785000Y-52959000D01*
X59182000Y-78486000D02*
X59182000Y-74676000D01*
X60960000Y-72898000D02*
X62079500Y-72898000D01*
X77089000Y-60833000D02*
X80010000Y-57912000D01*
X45786000Y-39698000D02*
X46106000Y-39378000D01*
X70163000Y-74168000D02*
X70163000Y-77001000D01*
X61155248Y-37084000D02*
X47244000Y-37084000D01*
X79248000Y-47855500D02*
X79248000Y-50038000D01*
X80010000Y-57912000D02*
X80010000Y-50800000D01*
X50165000Y-56515000D02*
X49532500Y-56515000D01*
X75588500Y-44196000D02*
X79248000Y-47855500D01*
X59182000Y-74676000D02*
X60960000Y-72898000D01*
X57785000Y-52959000D02*
X55880000Y-54864000D01*
X60452000Y-79756000D02*
X59563000Y-78867000D01*
X73025000Y-60833000D02*
X77089000Y-60833000D01*
X46802000Y-54930000D02*
X48387000Y-56515000D01*
X45720000Y-41722000D02*
X45720000Y-52766000D01*
X70241000Y-74090000D02*
X70163000Y-74168000D01*
X62079500Y-72898000D02*
X62484000Y-72493500D01*
X70998000Y-53086000D02*
X65532000Y-58552000D01*
X45786000Y-41656000D02*
X45786000Y-40132000D01*
X75588500Y-41656000D02*
X75588500Y-43688000D01*
X70739000Y-69088000D02*
X70739000Y-63119000D01*
X71374000Y-74090000D02*
X70241000Y-74090000D01*
X62669000Y-59494000D02*
X62484000Y-59309000D01*
X45786000Y-38542000D02*
X47244000Y-37084000D01*
X76200000Y-53086000D02*
X70998000Y-53086000D01*
X65532000Y-58552000D02*
X64590000Y-59494000D01*
X80010000Y-50800000D02*
X79248000Y-50038000D01*
X72771000Y-71120000D02*
X70739000Y-69088000D01*
X70739000Y-63119000D02*
X73025000Y-60833000D01*
X51816000Y-54864000D02*
X55880000Y-54864000D01*
X67834751Y-79756000D02*
X60452000Y-79756000D01*
X45786000Y-41656000D02*
X45720000Y-41722000D01*
X48768000Y-74803000D02*
X53213000Y-79248000D01*
X72771000Y-74090000D02*
X72771000Y-71120000D01*
%TO.N,+5VP*%
X40640000Y-53660000D02*
X40640000Y-47433500D01*
X40325000Y-53975000D02*
X40640000Y-53660000D01*
X40640000Y-44892000D02*
X40579000Y-44831000D01*
X40325000Y-53975000D02*
X39470000Y-54830000D01*
X39470000Y-54830000D02*
X39470000Y-56515000D01*
X40640000Y-47433500D02*
X40640000Y-44892000D01*
%TO.N,Net-(R1-Pad2)*%
X40204500Y-97411500D02*
X41564500Y-97411500D01*
X41564500Y-97411500D02*
X43469500Y-95506500D01*
X40204500Y-97411500D02*
X40204500Y-99951500D01*
%TO.N,Net-(R2-Pad2)*%
X43469500Y-90606500D02*
X39294500Y-90606500D01*
%TO.N,Net-(R3-Pad2)*%
X39977000Y-85373000D02*
X40040500Y-85436500D01*
X39977000Y-82589500D02*
X39977000Y-85373000D01*
%TO.N,Net-(R4-Pad2)*%
X39977000Y-77689500D02*
X39977000Y-73509500D01*
%TO.N,Net-(U1-OUT+)*%
X50165000Y-57785000D02*
X50797500Y-57785000D01*
X52139000Y-59126500D02*
X52139000Y-60909896D01*
X52139000Y-60909896D02*
X51504000Y-61544896D01*
X51504000Y-69757500D02*
X51157500Y-70104000D01*
X50797500Y-57785000D02*
X52139000Y-59126500D01*
X51504000Y-61544896D02*
X51504000Y-69757500D01*
%TO.N,Net-(U1-OUT-)*%
X50817500Y-59055000D02*
X51689000Y-59926500D01*
X51689000Y-59926500D02*
X51689000Y-60723500D01*
X51054000Y-66675000D02*
X49403000Y-68326000D01*
X50165000Y-59055000D02*
X50817500Y-59055000D01*
X49403000Y-71755000D02*
X50292000Y-72644000D01*
X50292000Y-72644000D02*
X51157500Y-72644000D01*
X51054000Y-61358500D02*
X51054000Y-66675000D01*
X49403000Y-68326000D02*
X49403000Y-71755000D01*
X51689000Y-60723500D02*
X51054000Y-61358500D01*
%TO.N,GND2*%
X61214000Y-86360000D02*
X61214000Y-84836000D01*
X68629000Y-86565000D02*
X68834000Y-86360000D01*
X68834000Y-84836000D02*
X68834000Y-86360000D01*
X68629000Y-89330000D02*
X68629000Y-86565000D01*
X68580000Y-84836000D02*
X68834000Y-84836000D01*
X61214000Y-84836000D02*
X68580000Y-84836000D01*
%TO.N,VDD2*%
X60198000Y-84074000D02*
X60198000Y-85090000D01*
X57194000Y-88094000D02*
X57194000Y-96950000D01*
X70529000Y-89330000D02*
X70529000Y-86785000D01*
X60198000Y-85090000D02*
X57194000Y-88094000D01*
X70104000Y-86360000D02*
X70104000Y-84836000D01*
X70104000Y-84836000D02*
X69342000Y-84074000D01*
X70529000Y-86785000D02*
X70104000Y-86360000D01*
X69342000Y-84074000D02*
X60198000Y-84074000D01*
%TO.N,Net-(D2-A)*%
X58653748Y-44196000D02*
X58754000Y-44296252D01*
X56817500Y-44196000D02*
X58653748Y-44196000D01*
%TO.N,Net-(D3-A)*%
X56817500Y-40640000D02*
X58653748Y-40640000D01*
X58653748Y-40640000D02*
X58754000Y-40740252D01*
%TO.N,Net-(J2-Pin_2)*%
X74318500Y-47648500D02*
X76708000Y-50038000D01*
X74271500Y-47648500D02*
X74318500Y-47648500D01*
%TO.N,SCL*%
X71247000Y-41783000D02*
X72644000Y-40386000D01*
X72644000Y-40386000D02*
X73509500Y-40386000D01*
X55880000Y-59944000D02*
X58538000Y-57286000D01*
X68237500Y-41756252D02*
X70585252Y-41756252D01*
X70585252Y-41756252D02*
X70612000Y-41783000D01*
X61484000Y-57286000D02*
X60579000Y-56381000D01*
X70612000Y-48768000D02*
X70612000Y-46736000D01*
X69088000Y-50292000D02*
X70612000Y-48768000D01*
X73509500Y-40386000D02*
X73763500Y-40132000D01*
X60579000Y-56007000D02*
X60579000Y-56134000D01*
X60579000Y-56381000D02*
X60579000Y-56007000D01*
X70612000Y-41783000D02*
X71247000Y-41783000D01*
X58538000Y-57286000D02*
X61484000Y-57286000D01*
%TO.N,SDA*%
X66548000Y-50292000D02*
X66548000Y-44339001D01*
X59626500Y-58737500D02*
X61357500Y-58737500D01*
X61984000Y-55888000D02*
X61214000Y-55118000D01*
X61357500Y-58737500D02*
X61984000Y-58111000D01*
X73279000Y-42164000D02*
X73763500Y-42164000D01*
X55880000Y-62484000D02*
X59626500Y-58737500D01*
X61984000Y-57286000D02*
X61984000Y-55888000D01*
X68237500Y-43026252D02*
X72416748Y-43026252D01*
X61984000Y-58111000D02*
X61984000Y-57286000D01*
X66548000Y-44339001D02*
X67860749Y-43026252D01*
X72416748Y-43026252D02*
X73279000Y-42164000D01*
X67860749Y-43026252D02*
X68237500Y-43026252D01*
%TO.N,TXD*%
X63754000Y-75946000D02*
X63754000Y-77060000D01*
X64008000Y-50038000D02*
X67183000Y-53213000D01*
X64008000Y-47556752D02*
X63287500Y-46836252D01*
X67183000Y-53213000D02*
X67183000Y-54610000D01*
X68961000Y-57658000D02*
X68961000Y-70739000D01*
X64008000Y-50292000D02*
X64008000Y-47556752D01*
X68961000Y-70739000D02*
X63754000Y-75946000D01*
%TO.N,RXD*%
X61468000Y-46736000D02*
X61468000Y-50292000D01*
X69977000Y-59055000D02*
X70485000Y-59055000D01*
X67564000Y-73408792D02*
X69977000Y-70995792D01*
X64643000Y-53086000D02*
X66040000Y-54483000D01*
X67564000Y-77060000D02*
X67564000Y-73408792D01*
X63287500Y-45566252D02*
X62637748Y-45566252D01*
X63246000Y-51816000D02*
X64643000Y-51816000D01*
X64643000Y-51816000D02*
X64643000Y-53086000D01*
X69977000Y-70995792D02*
X69977000Y-59055000D01*
X61468000Y-50038000D02*
X63246000Y-51816000D01*
X62637748Y-45566252D02*
X61468000Y-46736000D01*
%TO.N,PA5*%
X65024000Y-42672000D02*
X64108252Y-41756252D01*
X65024000Y-48260000D02*
X65024000Y-42672000D01*
X64108252Y-41756252D02*
X63287500Y-41756252D01*
%TO.N,Net-(JP1-A)*%
X64799000Y-90600000D02*
X62274000Y-90600000D01*
%TO.N,B*%
X64814000Y-96950000D02*
X66099000Y-95665000D01*
X66099000Y-86555000D02*
X66294000Y-86360000D01*
X66099000Y-90600000D02*
X66099000Y-86555000D01*
X66099000Y-95665000D02*
X66099000Y-90600000D01*
%TO.N,RESET*%
X73663248Y-44296252D02*
X73763500Y-44196000D01*
X73763500Y-45315500D02*
X74271500Y-45823500D01*
X73763500Y-44196000D02*
X73763500Y-45315500D01*
X68237500Y-44296252D02*
X73663248Y-44296252D01*
%TO.N,PA7*%
X63287500Y-44296252D02*
X60579000Y-44296252D01*
%TO.N,PA6*%
X63287500Y-43026252D02*
X62865000Y-43026252D01*
X62865000Y-43026252D02*
X60579000Y-40740252D01*
%TO.N,Net-(U5-PV)*%
X62484000Y-77060000D02*
X62484000Y-74318500D01*
%TO.N,A*%
X60449000Y-90600000D02*
X60449000Y-96395000D01*
X60449000Y-96395000D02*
X61004000Y-96950000D01*
X64770000Y-88646000D02*
X65024000Y-88392000D01*
X65024000Y-88392000D02*
X65024000Y-86360000D01*
X60449000Y-90600000D02*
X62403000Y-88646000D01*
X62403000Y-88646000D02*
X64770000Y-88646000D01*
%TO.N,PA3*%
X68083752Y-40640000D02*
X68237500Y-40486252D01*
X66040000Y-40640000D02*
X68083752Y-40640000D01*
X66040000Y-38608000D02*
X66040000Y-40640000D01*
X67056000Y-36195000D02*
X67056000Y-37592000D01*
X67056000Y-37592000D02*
X66040000Y-38608000D01*
%TO.N,PA4*%
X64587500Y-38425500D02*
X65024000Y-38862000D01*
X64516000Y-36195000D02*
X64587500Y-36266500D01*
X64587500Y-36266500D02*
X64587500Y-38425500D01*
X65024000Y-39497000D02*
X64034748Y-40486252D01*
X64034748Y-40486252D02*
X63287500Y-40486252D01*
X65024000Y-38862000D02*
X65024000Y-39497000D01*
%TO.N,ALERT*%
X53975000Y-56515000D02*
X53340000Y-56515000D01*
X54102000Y-56642000D02*
X53975000Y-56515000D01*
X61984000Y-62984000D02*
X61984000Y-61586000D01*
X55880000Y-67564000D02*
X54102000Y-65786000D01*
X55880000Y-67564000D02*
X58166000Y-65278000D01*
X54102000Y-60706000D02*
X54102000Y-56642000D01*
X54102000Y-65786000D02*
X54102000Y-60706000D01*
X61849000Y-63119000D02*
X61984000Y-62984000D01*
X58166000Y-65278000D02*
X58166000Y-63119000D01*
X58166000Y-63119000D02*
X61849000Y-63119000D01*
%TO.N,XDIR*%
X69469000Y-70867396D02*
X69469000Y-70739000D01*
X69469000Y-70739000D02*
X69469000Y-58547000D01*
X66294000Y-77060000D02*
X66294000Y-74042396D01*
X71628000Y-46482000D02*
X71628000Y-50292000D01*
X68237500Y-45566252D02*
X70712252Y-45566252D01*
X66294000Y-74042396D02*
X69469000Y-70867396D01*
X65024000Y-77060000D02*
X66294000Y-77060000D01*
X70712252Y-45566252D02*
X71628000Y-46482000D01*
X69469000Y-58547000D02*
X70485000Y-57785000D01*
%TO.N,Net-(J7-Pin_2)*%
X34885000Y-93025000D02*
X35304500Y-93444500D01*
X35304500Y-93444500D02*
X35304500Y-99951500D01*
X32865000Y-93025000D02*
X34885000Y-93025000D01*
%TO.N,Net-(J1-Pin_9)*%
X63484000Y-57286000D02*
X64262000Y-58064000D01*
X63500000Y-56445000D02*
X63500000Y-52451000D01*
X63500000Y-52451000D02*
X58228500Y-52451000D01*
X52341500Y-48578500D02*
X52324000Y-48561000D01*
X63484000Y-56461000D02*
X63500000Y-56445000D01*
X54356000Y-48578500D02*
X52341500Y-48578500D01*
X58228500Y-52451000D02*
X54356000Y-48578500D01*
X63484000Y-57286000D02*
X63484000Y-56461000D01*
X64262000Y-58064000D02*
X64262000Y-58547000D01*
%TO.N,Net-(J1-Pin_7)*%
X62984000Y-66683000D02*
X59563000Y-70104000D01*
X62984000Y-61586000D02*
X62984000Y-66683000D01*
X52982500Y-70104000D02*
X55880000Y-70104000D01*
X52982500Y-68349500D02*
X52832000Y-68199000D01*
X59563000Y-70104000D02*
X55880000Y-70104000D01*
X52982500Y-70104000D02*
X52982500Y-68349500D01*
%TO.N,Net-(J1-Pin_8)*%
X55880000Y-72644000D02*
X52982500Y-72644000D01*
X52982500Y-72644000D02*
X52982500Y-74591500D01*
X58166000Y-72644000D02*
X55880000Y-72644000D01*
X63484000Y-61586000D02*
X63484000Y-67326000D01*
X52982500Y-74591500D02*
X52832000Y-74742000D01*
X63484000Y-67326000D02*
X58166000Y-72644000D01*
%TO.N,Net-(U3-VIOUT)*%
X49926000Y-39378000D02*
X50188000Y-39116000D01*
X52324000Y-39116000D02*
X52324000Y-46736000D01*
X50188000Y-39116000D02*
X52324000Y-39116000D01*
%TO.N,Net-(J1-Pin_10)*%
X62984000Y-57286000D02*
X62984000Y-58285000D01*
X62984000Y-58285000D02*
X63246000Y-58547000D01*
%TO.N,Net-(J1-Pin_5)*%
X55880000Y-64648351D02*
X55880000Y-65024000D01*
X58036351Y-62492000D02*
X55880000Y-64648351D01*
X60578000Y-62492000D02*
X58036351Y-62492000D01*
X60578000Y-62492000D02*
X61484000Y-61586000D01*
%TD*%
%TA.AperFunction,Conductor*%
%TO.N,GND2*%
G36*
X59515538Y-84347685D02*
G01*
X59561293Y-84400489D01*
X59572499Y-84452000D01*
X59572499Y-84779547D01*
X59552814Y-84846586D01*
X59536180Y-84867228D01*
X56810208Y-87593199D01*
X56797951Y-87603020D01*
X56798134Y-87603241D01*
X56792122Y-87608214D01*
X56745432Y-87657932D01*
X56744079Y-87659329D01*
X56723889Y-87679519D01*
X56723877Y-87679532D01*
X56719621Y-87685017D01*
X56715837Y-87689447D01*
X56683937Y-87723418D01*
X56683936Y-87723420D01*
X56674284Y-87740976D01*
X56663610Y-87757226D01*
X56651329Y-87773061D01*
X56651324Y-87773068D01*
X56632815Y-87815838D01*
X56630245Y-87821084D01*
X56607803Y-87861906D01*
X56602822Y-87881307D01*
X56596521Y-87899710D01*
X56588562Y-87918102D01*
X56588561Y-87918105D01*
X56581271Y-87964127D01*
X56580087Y-87969846D01*
X56568501Y-88014972D01*
X56568500Y-88014982D01*
X56568500Y-88035016D01*
X56566973Y-88054415D01*
X56563840Y-88074194D01*
X56563839Y-88074197D01*
X56568224Y-88120585D01*
X56568499Y-88126421D01*
X56568499Y-95625500D01*
X56548814Y-95692539D01*
X56496010Y-95738294D01*
X56449389Y-95748450D01*
X56449423Y-95749099D01*
X56449429Y-95749146D01*
X56449426Y-95749146D01*
X56449436Y-95749324D01*
X56446123Y-95749501D01*
X56386516Y-95755908D01*
X56251671Y-95806202D01*
X56251664Y-95806206D01*
X56136455Y-95892452D01*
X56136452Y-95892455D01*
X56050206Y-96007664D01*
X56050202Y-96007671D01*
X55999908Y-96142517D01*
X55993501Y-96202116D01*
X55993501Y-96202123D01*
X55993500Y-96202135D01*
X55993500Y-97697870D01*
X55993501Y-97697876D01*
X55999908Y-97757483D01*
X56050202Y-97892328D01*
X56050206Y-97892335D01*
X56136452Y-98007544D01*
X56136455Y-98007547D01*
X56251664Y-98093793D01*
X56251671Y-98093797D01*
X56386517Y-98144091D01*
X56386516Y-98144091D01*
X56393444Y-98144835D01*
X56446127Y-98150500D01*
X57941872Y-98150499D01*
X58001483Y-98144091D01*
X58136331Y-98093796D01*
X58251546Y-98007546D01*
X58337796Y-97892331D01*
X58388091Y-97757483D01*
X58394500Y-97697873D01*
X58394499Y-96202128D01*
X58388091Y-96142517D01*
X58386318Y-96137764D01*
X58337797Y-96007671D01*
X58337793Y-96007664D01*
X58251547Y-95892455D01*
X58251544Y-95892452D01*
X58136335Y-95806206D01*
X58136328Y-95806202D01*
X58001482Y-95755908D01*
X58001483Y-95755908D01*
X57941883Y-95749501D01*
X57941881Y-95749500D01*
X57941873Y-95749500D01*
X57941864Y-95749500D01*
X57938548Y-95749322D01*
X57938615Y-95748065D01*
X57876461Y-95729815D01*
X57830706Y-95677011D01*
X57819500Y-95625500D01*
X57819500Y-88404450D01*
X57839185Y-88337411D01*
X57855814Y-88316774D01*
X59562588Y-86610000D01*
X60414000Y-86610000D01*
X60414000Y-87300649D01*
X60416899Y-87337489D01*
X60416900Y-87337495D01*
X60462716Y-87495193D01*
X60462717Y-87495196D01*
X60546314Y-87636552D01*
X60546321Y-87636561D01*
X60662438Y-87752678D01*
X60662447Y-87752685D01*
X60803801Y-87836281D01*
X60961514Y-87882100D01*
X60961511Y-87882100D01*
X60963998Y-87882295D01*
X60964000Y-87882295D01*
X60964000Y-86610000D01*
X60414000Y-86610000D01*
X59562588Y-86610000D01*
X60202322Y-85970266D01*
X60263641Y-85936784D01*
X60333333Y-85941768D01*
X60389266Y-85983640D01*
X60413683Y-86049104D01*
X60413999Y-86057949D01*
X60413999Y-86109999D01*
X60414001Y-86110000D01*
X61340000Y-86110000D01*
X61407039Y-86129685D01*
X61452794Y-86182489D01*
X61464000Y-86234000D01*
X61464000Y-87882294D01*
X61464001Y-87882295D01*
X61466486Y-87882100D01*
X61624198Y-87836281D01*
X61765550Y-87752686D01*
X61771717Y-87747903D01*
X61773630Y-87750369D01*
X61822222Y-87723802D01*
X61891917Y-87728749D01*
X61924762Y-87749853D01*
X61925969Y-87748298D01*
X61932132Y-87753078D01*
X61932135Y-87753081D01*
X62073602Y-87836744D01*
X62112930Y-87848170D01*
X62171815Y-87885775D01*
X62201022Y-87949247D01*
X62191276Y-88018434D01*
X62145673Y-88071369D01*
X62141453Y-88073980D01*
X62135367Y-88077579D01*
X62117901Y-88086135D01*
X62099272Y-88093511D01*
X62099267Y-88093513D01*
X62061564Y-88120906D01*
X62056682Y-88124112D01*
X62016580Y-88147828D01*
X62002408Y-88162000D01*
X61987623Y-88174628D01*
X61971412Y-88186407D01*
X61941709Y-88222310D01*
X61937777Y-88226631D01*
X60801226Y-89363181D01*
X60739903Y-89396666D01*
X60713545Y-89399500D01*
X60136498Y-89399500D01*
X60136480Y-89399501D01*
X60033703Y-89410000D01*
X60033700Y-89410001D01*
X59867168Y-89465185D01*
X59867163Y-89465187D01*
X59717842Y-89557289D01*
X59593789Y-89681342D01*
X59501687Y-89830663D01*
X59501685Y-89830668D01*
X59493617Y-89855016D01*
X59446501Y-89997203D01*
X59446501Y-89997204D01*
X59446500Y-89997204D01*
X59436000Y-90099983D01*
X59436000Y-91100001D01*
X59436001Y-91100019D01*
X59446500Y-91202796D01*
X59446501Y-91202799D01*
X59495114Y-91349500D01*
X59501686Y-91369334D01*
X59593788Y-91518656D01*
X59717844Y-91642712D01*
X59764596Y-91671548D01*
X59811320Y-91723494D01*
X59823500Y-91777087D01*
X59823500Y-96312255D01*
X59821775Y-96327872D01*
X59822061Y-96327899D01*
X59821326Y-96335666D01*
X59823469Y-96403846D01*
X59823500Y-96405793D01*
X59823500Y-96434343D01*
X59823501Y-96434360D01*
X59824368Y-96441231D01*
X59824826Y-96447050D01*
X59826290Y-96493624D01*
X59826291Y-96493627D01*
X59831880Y-96512867D01*
X59835824Y-96531911D01*
X59838336Y-96551791D01*
X59838338Y-96551800D01*
X59840780Y-96557968D01*
X59847154Y-96627546D01*
X59844753Y-96637542D01*
X59818885Y-96728464D01*
X59798357Y-96949999D01*
X59798357Y-96950000D01*
X59818884Y-97171535D01*
X59818885Y-97171537D01*
X59879769Y-97385523D01*
X59879775Y-97385538D01*
X59978938Y-97584683D01*
X59978943Y-97584691D01*
X60113020Y-97762238D01*
X60277437Y-97912123D01*
X60277439Y-97912125D01*
X60466595Y-98029245D01*
X60466596Y-98029245D01*
X60466599Y-98029247D01*
X60674060Y-98109618D01*
X60892757Y-98150500D01*
X60892759Y-98150500D01*
X61115241Y-98150500D01*
X61115243Y-98150500D01*
X61333940Y-98109618D01*
X61541401Y-98029247D01*
X61730562Y-97912124D01*
X61894981Y-97762236D01*
X62029058Y-97584689D01*
X62128229Y-97385528D01*
X62189115Y-97171536D01*
X62209643Y-96950000D01*
X62189115Y-96728464D01*
X62128229Y-96514472D01*
X62128224Y-96514461D01*
X62029061Y-96315316D01*
X62029056Y-96315308D01*
X61894979Y-96137761D01*
X61730562Y-95987876D01*
X61730560Y-95987874D01*
X61541404Y-95870754D01*
X61541398Y-95870752D01*
X61511765Y-95859272D01*
X61333940Y-95790382D01*
X61333934Y-95790381D01*
X61333928Y-95790379D01*
X61175714Y-95760803D01*
X61113433Y-95729135D01*
X61078161Y-95668823D01*
X61074500Y-95638915D01*
X61074500Y-91777087D01*
X61094185Y-91710048D01*
X61133402Y-91671548D01*
X61180156Y-91642712D01*
X61273819Y-91549048D01*
X61335142Y-91515564D01*
X61404834Y-91520548D01*
X61449181Y-91549049D01*
X61542844Y-91642712D01*
X61692166Y-91734814D01*
X61858703Y-91789999D01*
X61961491Y-91800500D01*
X62586508Y-91800499D01*
X62586516Y-91800498D01*
X62586519Y-91800498D01*
X62652117Y-91793797D01*
X62689297Y-91789999D01*
X62855834Y-91734814D01*
X63005156Y-91642712D01*
X63129212Y-91518656D01*
X63221314Y-91369334D01*
X63240811Y-91310493D01*
X63280584Y-91253051D01*
X63345100Y-91226228D01*
X63358517Y-91225500D01*
X63674501Y-91225500D01*
X63741540Y-91245185D01*
X63787295Y-91297989D01*
X63798501Y-91349500D01*
X63798501Y-91397876D01*
X63804908Y-91457483D01*
X63855202Y-91592328D01*
X63855206Y-91592335D01*
X63941452Y-91707544D01*
X63941455Y-91707547D01*
X64056664Y-91793793D01*
X64056671Y-91793797D01*
X64191517Y-91844091D01*
X64191516Y-91844091D01*
X64198444Y-91844835D01*
X64251127Y-91850500D01*
X65346872Y-91850499D01*
X65349500Y-91850499D01*
X65416539Y-91870184D01*
X65462294Y-91922987D01*
X65473500Y-91974499D01*
X65473499Y-95354546D01*
X65453814Y-95421585D01*
X65437180Y-95442227D01*
X65143892Y-95735515D01*
X65082569Y-95769000D01*
X65033426Y-95769722D01*
X64925243Y-95749500D01*
X64702757Y-95749500D01*
X64484060Y-95790382D01*
X64443219Y-95806204D01*
X64276601Y-95870752D01*
X64276595Y-95870754D01*
X64087439Y-95987874D01*
X64087437Y-95987876D01*
X63923020Y-96137761D01*
X63788943Y-96315308D01*
X63788938Y-96315316D01*
X63689775Y-96514461D01*
X63689769Y-96514476D01*
X63628885Y-96728462D01*
X63628884Y-96728464D01*
X63608357Y-96949999D01*
X63608357Y-96950000D01*
X63628884Y-97171535D01*
X63628885Y-97171537D01*
X63689769Y-97385523D01*
X63689775Y-97385538D01*
X63788938Y-97584683D01*
X63788943Y-97584691D01*
X63923020Y-97762238D01*
X64087437Y-97912123D01*
X64087439Y-97912125D01*
X64276595Y-98029245D01*
X64276596Y-98029245D01*
X64276599Y-98029247D01*
X64484060Y-98109618D01*
X64702757Y-98150500D01*
X64702759Y-98150500D01*
X64925241Y-98150500D01*
X64925243Y-98150500D01*
X65143940Y-98109618D01*
X65351401Y-98029247D01*
X65468278Y-97956880D01*
X67970672Y-97956880D01*
X68086821Y-98028797D01*
X68086822Y-98028798D01*
X68294195Y-98109134D01*
X68512807Y-98150000D01*
X68735193Y-98150000D01*
X68953809Y-98109133D01*
X69161168Y-98028801D01*
X69161181Y-98028795D01*
X69277326Y-97956879D01*
X68624001Y-97303553D01*
X68624000Y-97303553D01*
X67970672Y-97956879D01*
X67970672Y-97956880D01*
X65468278Y-97956880D01*
X65540562Y-97912124D01*
X65704981Y-97762236D01*
X65839058Y-97584689D01*
X65938229Y-97385528D01*
X65999115Y-97171536D01*
X66019643Y-96950000D01*
X67418859Y-96950000D01*
X67439378Y-97171439D01*
X67500240Y-97385350D01*
X67599369Y-97584428D01*
X67615137Y-97605308D01*
X67615138Y-97605308D01*
X68241145Y-96979302D01*
X68270372Y-96979302D01*
X68299047Y-97092538D01*
X68362936Y-97190327D01*
X68455115Y-97262072D01*
X68565595Y-97300000D01*
X68653005Y-97300000D01*
X68739216Y-97285614D01*
X68841947Y-97230019D01*
X68921060Y-97144079D01*
X68967982Y-97037108D01*
X68975200Y-96950000D01*
X68977553Y-96950000D01*
X69632861Y-97605308D01*
X69648631Y-97584425D01*
X69648633Y-97584422D01*
X69747759Y-97385350D01*
X69808621Y-97171439D01*
X69829141Y-96950000D01*
X69829141Y-96949999D01*
X69808621Y-96728560D01*
X69747759Y-96514649D01*
X69648635Y-96315580D01*
X69648630Y-96315572D01*
X69632860Y-96294690D01*
X68977553Y-96949999D01*
X68977553Y-96950000D01*
X68975200Y-96950000D01*
X68977628Y-96920698D01*
X68948953Y-96807462D01*
X68885064Y-96709673D01*
X68792885Y-96637928D01*
X68682405Y-96600000D01*
X68594995Y-96600000D01*
X68508784Y-96614386D01*
X68406053Y-96669981D01*
X68326940Y-96755921D01*
X68280018Y-96862892D01*
X68270372Y-96979302D01*
X68241145Y-96979302D01*
X68270447Y-96950000D01*
X68270447Y-96949999D01*
X67615138Y-96294691D01*
X67615137Y-96294691D01*
X67599368Y-96315574D01*
X67500240Y-96514649D01*
X67439378Y-96728560D01*
X67418859Y-96949999D01*
X67418859Y-96950000D01*
X66019643Y-96950000D01*
X65999115Y-96728464D01*
X65999112Y-96728454D01*
X65998685Y-96726167D01*
X65998798Y-96725046D01*
X65998586Y-96722755D01*
X65999034Y-96722713D01*
X66005713Y-96656651D01*
X66032889Y-96615699D01*
X66482787Y-96165802D01*
X66495042Y-96155986D01*
X66494859Y-96155764D01*
X66500868Y-96150791D01*
X66500877Y-96150786D01*
X66547607Y-96101022D01*
X66548846Y-96099743D01*
X66569120Y-96079471D01*
X66573379Y-96073978D01*
X66577152Y-96069561D01*
X66609062Y-96035582D01*
X66618713Y-96018024D01*
X66629396Y-96001761D01*
X66641673Y-95985936D01*
X66660185Y-95943153D01*
X66660202Y-95943119D01*
X67970671Y-95943119D01*
X68624000Y-96596447D01*
X68624001Y-96596447D01*
X69277327Y-95943119D01*
X69161178Y-95871202D01*
X69161177Y-95871201D01*
X68953804Y-95790865D01*
X68735193Y-95750000D01*
X68512807Y-95750000D01*
X68294195Y-95790865D01*
X68086824Y-95871200D01*
X68086823Y-95871201D01*
X67970671Y-95943119D01*
X66660202Y-95943119D01*
X66662738Y-95937941D01*
X66685197Y-95897092D01*
X66690180Y-95877680D01*
X66696481Y-95859280D01*
X66704437Y-95840896D01*
X66711729Y-95794852D01*
X66712906Y-95789171D01*
X66724500Y-95744019D01*
X66724500Y-95723982D01*
X66726027Y-95704582D01*
X66729160Y-95684804D01*
X66724775Y-95638415D01*
X66724500Y-95632577D01*
X66724500Y-91923466D01*
X66744185Y-91856427D01*
X66796989Y-91810672D01*
X66805156Y-91807288D01*
X66841331Y-91793796D01*
X66956546Y-91707546D01*
X67042796Y-91592331D01*
X67093091Y-91457483D01*
X67099500Y-91397873D01*
X67099499Y-89802128D01*
X67093091Y-89742517D01*
X67070274Y-89681342D01*
X67042797Y-89607671D01*
X67042793Y-89607664D01*
X67022084Y-89580000D01*
X67629001Y-89580000D01*
X67629001Y-89854986D01*
X67639494Y-89957697D01*
X67694641Y-90124119D01*
X67694643Y-90124124D01*
X67786684Y-90273345D01*
X67910654Y-90397315D01*
X68059875Y-90489356D01*
X68059880Y-90489358D01*
X68226302Y-90544505D01*
X68226309Y-90544506D01*
X68329019Y-90554999D01*
X68378999Y-90554998D01*
X68379000Y-90554998D01*
X68379000Y-89580000D01*
X67629001Y-89580000D01*
X67022084Y-89580000D01*
X66956547Y-89492455D01*
X66956544Y-89492452D01*
X66841334Y-89406205D01*
X66805164Y-89392714D01*
X66749231Y-89350841D01*
X66724816Y-89285376D01*
X66724500Y-89276533D01*
X66724500Y-87895583D01*
X66744185Y-87828544D01*
X66785379Y-87788851D01*
X66845865Y-87753081D01*
X66845872Y-87753073D01*
X66852026Y-87748301D01*
X66853927Y-87750752D01*
X66902579Y-87724154D01*
X66972274Y-87729103D01*
X67004700Y-87749942D01*
X67005974Y-87748301D01*
X67012139Y-87753084D01*
X67085353Y-87796382D01*
X67153602Y-87836744D01*
X67167687Y-87840836D01*
X67311426Y-87882597D01*
X67311429Y-87882597D01*
X67311431Y-87882598D01*
X67348306Y-87885500D01*
X67348314Y-87885500D01*
X67779686Y-87885500D01*
X67779694Y-87885500D01*
X67816569Y-87882598D01*
X67816571Y-87882597D01*
X67816573Y-87882597D01*
X67887732Y-87861923D01*
X67974398Y-87836744D01*
X68115865Y-87753081D01*
X68115868Y-87753077D01*
X68122026Y-87748301D01*
X68123839Y-87750638D01*
X68172949Y-87723798D01*
X68242643Y-87728756D01*
X68274996Y-87749551D01*
X68276278Y-87747900D01*
X68282447Y-87752685D01*
X68423802Y-87836281D01*
X68512062Y-87861923D01*
X68570948Y-87899529D01*
X68600155Y-87963002D01*
X68590409Y-88032188D01*
X68544806Y-88085123D01*
X68477823Y-88104999D01*
X68477469Y-88105000D01*
X68329029Y-88105000D01*
X68329012Y-88105001D01*
X68226302Y-88115494D01*
X68059880Y-88170641D01*
X68059875Y-88170643D01*
X67910654Y-88262684D01*
X67786684Y-88386654D01*
X67694643Y-88535875D01*
X67694641Y-88535880D01*
X67639494Y-88702302D01*
X67639493Y-88702309D01*
X67629000Y-88805013D01*
X67629000Y-89080000D01*
X68755000Y-89080000D01*
X68822039Y-89099685D01*
X68867794Y-89152489D01*
X68879000Y-89204000D01*
X68879000Y-90554999D01*
X68928972Y-90554999D01*
X68928986Y-90554998D01*
X69031697Y-90544505D01*
X69198119Y-90489358D01*
X69198124Y-90489356D01*
X69347345Y-90397315D01*
X69471318Y-90273342D01*
X69473165Y-90270348D01*
X69474969Y-90268724D01*
X69475798Y-90267677D01*
X69475976Y-90267818D01*
X69525110Y-90223621D01*
X69594073Y-90212396D01*
X69658156Y-90240236D01*
X69684243Y-90270341D01*
X69686288Y-90273656D01*
X69810344Y-90397712D01*
X69959666Y-90489814D01*
X70126203Y-90544999D01*
X70228991Y-90555500D01*
X70829008Y-90555499D01*
X70829016Y-90555498D01*
X70829019Y-90555498D01*
X70885302Y-90549748D01*
X70931797Y-90544999D01*
X71098334Y-90489814D01*
X71247656Y-90397712D01*
X71371712Y-90273656D01*
X71463814Y-90124334D01*
X71518999Y-89957797D01*
X71529500Y-89855009D01*
X71529499Y-88804992D01*
X71518999Y-88702203D01*
X71463814Y-88535666D01*
X71371712Y-88386344D01*
X71247656Y-88262288D01*
X71247653Y-88262285D01*
X71213401Y-88241158D01*
X71166678Y-88189210D01*
X71154500Y-88135621D01*
X71154500Y-86867742D01*
X71156224Y-86852122D01*
X71155939Y-86852095D01*
X71156673Y-86844333D01*
X71154531Y-86776139D01*
X71154500Y-86774192D01*
X71154500Y-86745656D01*
X71154500Y-86745650D01*
X71153631Y-86738779D01*
X71153173Y-86732952D01*
X71151710Y-86686373D01*
X71146119Y-86667130D01*
X71142173Y-86648078D01*
X71139664Y-86628208D01*
X71122504Y-86584867D01*
X71120624Y-86579379D01*
X71107618Y-86534610D01*
X71097422Y-86517370D01*
X71088861Y-86499894D01*
X71081487Y-86481270D01*
X71081486Y-86481268D01*
X71054079Y-86443545D01*
X71050888Y-86438686D01*
X71027172Y-86398583D01*
X71027165Y-86398574D01*
X71013006Y-86384415D01*
X71000368Y-86369619D01*
X70988594Y-86353413D01*
X70988593Y-86353412D01*
X70952679Y-86323701D01*
X70948371Y-86319781D01*
X70944061Y-86315471D01*
X70940811Y-86312220D01*
X70907331Y-86250894D01*
X70904500Y-86224547D01*
X70904500Y-85419313D01*
X70904499Y-85419298D01*
X70901598Y-85382432D01*
X70901597Y-85382426D01*
X70855745Y-85224606D01*
X70855744Y-85224603D01*
X70855744Y-85224602D01*
X70772081Y-85083135D01*
X70772079Y-85083133D01*
X70772076Y-85083129D01*
X70765819Y-85076872D01*
X70732334Y-85015549D01*
X70729500Y-84989191D01*
X70729500Y-84918742D01*
X70731224Y-84903122D01*
X70730939Y-84903095D01*
X70731673Y-84895333D01*
X70729531Y-84827139D01*
X70729500Y-84825192D01*
X70729500Y-84796656D01*
X70729500Y-84796650D01*
X70728631Y-84789779D01*
X70728173Y-84783952D01*
X70727797Y-84771989D01*
X70726710Y-84737373D01*
X70721119Y-84718130D01*
X70717173Y-84699078D01*
X70714664Y-84679208D01*
X70697504Y-84635867D01*
X70695624Y-84630379D01*
X70682618Y-84585610D01*
X70672422Y-84568370D01*
X70663861Y-84550894D01*
X70656487Y-84532270D01*
X70651121Y-84524884D01*
X70627642Y-84459077D01*
X70643468Y-84391024D01*
X70693575Y-84342330D01*
X70751440Y-84328000D01*
X74933000Y-84328000D01*
X75000039Y-84347685D01*
X75045794Y-84400489D01*
X75057000Y-84452000D01*
X75057000Y-101222000D01*
X75037315Y-101289039D01*
X74984511Y-101334794D01*
X74933000Y-101346000D01*
X52702000Y-101346000D01*
X52634961Y-101326315D01*
X52589206Y-101273511D01*
X52578000Y-101222000D01*
X52578000Y-84452000D01*
X52597685Y-84384961D01*
X52650489Y-84339206D01*
X52702000Y-84328000D01*
X59448499Y-84328000D01*
X59515538Y-84347685D01*
G37*
%TD.AperFunction*%
%TA.AperFunction,Conductor*%
G36*
X68349069Y-84719185D02*
G01*
X68394824Y-84771989D01*
X68404768Y-84841147D01*
X68375743Y-84904703D01*
X68345151Y-84930232D01*
X68282449Y-84967313D01*
X68276283Y-84972097D01*
X68274389Y-84969655D01*
X68225580Y-84996239D01*
X68155894Y-84991179D01*
X68123227Y-84970159D01*
X68122031Y-84971702D01*
X68115866Y-84966920D01*
X68115865Y-84966919D01*
X68115862Y-84966917D01*
X68115858Y-84966914D01*
X68053831Y-84930232D01*
X68006147Y-84879164D01*
X67993643Y-84810422D01*
X68020288Y-84745832D01*
X68077623Y-84705902D01*
X68116951Y-84699500D01*
X68282030Y-84699500D01*
X68349069Y-84719185D01*
G37*
%TD.AperFunction*%
%TA.AperFunction,Conductor*%
G36*
X61998088Y-84719185D02*
G01*
X62043843Y-84771989D01*
X62053787Y-84841147D01*
X62024762Y-84904703D01*
X61994169Y-84930232D01*
X61932143Y-84966913D01*
X61925974Y-84971699D01*
X61924174Y-84969379D01*
X61874913Y-84996230D01*
X61805225Y-84991193D01*
X61772992Y-84970461D01*
X61771722Y-84972100D01*
X61765552Y-84967314D01*
X61702849Y-84930232D01*
X61655165Y-84879163D01*
X61642662Y-84810421D01*
X61669307Y-84745832D01*
X61726643Y-84705902D01*
X61765970Y-84699500D01*
X61931049Y-84699500D01*
X61998088Y-84719185D01*
G37*
%TD.AperFunction*%
%TA.AperFunction,Conductor*%
G36*
X63268088Y-84719185D02*
G01*
X63313843Y-84771989D01*
X63323787Y-84841147D01*
X63294762Y-84904703D01*
X63264169Y-84930232D01*
X63202141Y-84966914D01*
X63195969Y-84971702D01*
X63194078Y-84969265D01*
X63145295Y-84995871D01*
X63075606Y-84990850D01*
X63043300Y-84970065D01*
X63042031Y-84971702D01*
X63035866Y-84966920D01*
X63035865Y-84966919D01*
X63035862Y-84966917D01*
X63035858Y-84966914D01*
X62973831Y-84930232D01*
X62926147Y-84879164D01*
X62913643Y-84810422D01*
X62940288Y-84745832D01*
X62997623Y-84705902D01*
X63036951Y-84699500D01*
X63201049Y-84699500D01*
X63268088Y-84719185D01*
G37*
%TD.AperFunction*%
%TA.AperFunction,Conductor*%
G36*
X64538088Y-84719185D02*
G01*
X64583843Y-84771989D01*
X64593787Y-84841147D01*
X64564762Y-84904703D01*
X64534169Y-84930232D01*
X64472141Y-84966914D01*
X64465969Y-84971702D01*
X64464078Y-84969265D01*
X64415295Y-84995871D01*
X64345606Y-84990850D01*
X64313300Y-84970065D01*
X64312031Y-84971702D01*
X64305866Y-84966920D01*
X64305865Y-84966919D01*
X64305862Y-84966917D01*
X64305858Y-84966914D01*
X64243831Y-84930232D01*
X64196147Y-84879164D01*
X64183643Y-84810422D01*
X64210288Y-84745832D01*
X64267623Y-84705902D01*
X64306951Y-84699500D01*
X64471049Y-84699500D01*
X64538088Y-84719185D01*
G37*
%TD.AperFunction*%
%TA.AperFunction,Conductor*%
G36*
X67078088Y-84719185D02*
G01*
X67123843Y-84771989D01*
X67133787Y-84841147D01*
X67104762Y-84904703D01*
X67074169Y-84930232D01*
X67012141Y-84966914D01*
X67005969Y-84971702D01*
X67004078Y-84969265D01*
X66955295Y-84995871D01*
X66885606Y-84990850D01*
X66853300Y-84970065D01*
X66852031Y-84971702D01*
X66845866Y-84966920D01*
X66845865Y-84966919D01*
X66845862Y-84966917D01*
X66845858Y-84966914D01*
X66783831Y-84930232D01*
X66736147Y-84879164D01*
X66723643Y-84810422D01*
X66750288Y-84745832D01*
X66807623Y-84705902D01*
X66846951Y-84699500D01*
X67011049Y-84699500D01*
X67078088Y-84719185D01*
G37*
%TD.AperFunction*%
%TA.AperFunction,Conductor*%
G36*
X65808088Y-84719185D02*
G01*
X65853843Y-84771989D01*
X65863787Y-84841147D01*
X65834762Y-84904703D01*
X65804169Y-84930232D01*
X65742141Y-84966914D01*
X65735969Y-84971702D01*
X65734072Y-84969256D01*
X65685358Y-84995857D01*
X65615666Y-84990873D01*
X65583296Y-84970069D01*
X65582031Y-84971702D01*
X65575866Y-84966920D01*
X65575865Y-84966919D01*
X65575862Y-84966917D01*
X65575858Y-84966914D01*
X65513831Y-84930232D01*
X65466147Y-84879164D01*
X65453643Y-84810422D01*
X65480288Y-84745832D01*
X65537623Y-84705902D01*
X65576951Y-84699500D01*
X65741049Y-84699500D01*
X65808088Y-84719185D01*
G37*
%TD.AperFunction*%
%TD*%
%TA.AperFunction,Conductor*%
%TO.N,GND*%
G36*
X47322203Y-56335239D02*
G01*
X47328671Y-56341262D01*
X47619612Y-56632203D01*
X47886197Y-56898788D01*
X47896022Y-56911051D01*
X47896243Y-56910869D01*
X47901211Y-56916874D01*
X47950932Y-56963566D01*
X47952332Y-56964923D01*
X47972523Y-56985115D01*
X47972527Y-56985118D01*
X47972529Y-56985120D01*
X47978011Y-56989373D01*
X47982443Y-56993157D01*
X48016418Y-57025062D01*
X48033976Y-57034714D01*
X48050235Y-57045395D01*
X48066064Y-57057673D01*
X48070654Y-57059659D01*
X48124364Y-57104345D01*
X48145389Y-57170977D01*
X48142872Y-57192662D01*
X48143478Y-57192739D01*
X48142500Y-57200482D01*
X48142500Y-57220516D01*
X48140973Y-57239915D01*
X48137840Y-57259694D01*
X48137840Y-57259695D01*
X48142225Y-57306083D01*
X48142500Y-57311921D01*
X48142500Y-74720255D01*
X48140775Y-74735872D01*
X48141061Y-74735899D01*
X48140326Y-74743666D01*
X48142469Y-74811846D01*
X48142500Y-74813793D01*
X48142500Y-74842343D01*
X48142501Y-74842360D01*
X48143368Y-74849231D01*
X48143826Y-74855050D01*
X48145290Y-74901624D01*
X48145291Y-74901627D01*
X48150880Y-74920867D01*
X48154824Y-74939911D01*
X48157336Y-74959792D01*
X48162747Y-74973459D01*
X48174490Y-75003119D01*
X48176382Y-75008647D01*
X48189381Y-75053388D01*
X48199580Y-75070634D01*
X48208136Y-75088100D01*
X48209087Y-75090500D01*
X48215514Y-75106732D01*
X48242898Y-75144423D01*
X48246106Y-75149307D01*
X48269826Y-75189414D01*
X48269833Y-75189424D01*
X48283990Y-75203580D01*
X48296628Y-75218376D01*
X48308405Y-75234586D01*
X48308406Y-75234587D01*
X48344309Y-75264288D01*
X48348620Y-75268210D01*
X51630420Y-78550011D01*
X52712197Y-79631788D01*
X52722022Y-79644051D01*
X52722243Y-79643869D01*
X52727211Y-79649874D01*
X52776932Y-79696566D01*
X52778332Y-79697923D01*
X52798523Y-79718115D01*
X52798527Y-79718118D01*
X52798529Y-79718120D01*
X52804011Y-79722373D01*
X52808443Y-79726157D01*
X52842418Y-79758062D01*
X52859976Y-79767714D01*
X52876235Y-79778395D01*
X52892064Y-79790673D01*
X52934838Y-79809182D01*
X52940056Y-79811738D01*
X52980908Y-79834197D01*
X53000316Y-79839180D01*
X53018717Y-79845480D01*
X53037104Y-79853437D01*
X53080488Y-79860308D01*
X53083119Y-79860725D01*
X53088839Y-79861909D01*
X53133981Y-79873500D01*
X53154016Y-79873500D01*
X53173414Y-79875026D01*
X53193194Y-79878159D01*
X53193195Y-79878160D01*
X53193195Y-79878159D01*
X53193196Y-79878160D01*
X53239583Y-79873775D01*
X53245422Y-79873500D01*
X59099257Y-79873500D01*
X59114877Y-79875224D01*
X59114904Y-79874939D01*
X59122666Y-79875673D01*
X59122666Y-79875672D01*
X59122667Y-79875673D01*
X59125999Y-79875568D01*
X59190847Y-79873531D01*
X59192794Y-79873500D01*
X59221347Y-79873500D01*
X59221350Y-79873500D01*
X59228228Y-79872630D01*
X59234041Y-79872172D01*
X59280627Y-79870709D01*
X59299869Y-79865117D01*
X59318912Y-79861174D01*
X59338792Y-79858664D01*
X59382122Y-79841507D01*
X59387646Y-79839617D01*
X59391396Y-79838527D01*
X59432390Y-79826618D01*
X59449629Y-79816422D01*
X59467103Y-79807862D01*
X59492988Y-79797614D01*
X59493472Y-79798838D01*
X59553777Y-79785536D01*
X59619312Y-79809761D01*
X59632974Y-79821564D01*
X59951197Y-80139788D01*
X59961022Y-80152051D01*
X59961243Y-80151869D01*
X59966211Y-80157874D01*
X60015932Y-80204566D01*
X60017332Y-80205923D01*
X60037523Y-80226115D01*
X60037527Y-80226118D01*
X60037529Y-80226120D01*
X60043011Y-80230373D01*
X60047443Y-80234157D01*
X60081418Y-80266062D01*
X60098976Y-80275714D01*
X60115233Y-80286393D01*
X60131064Y-80298673D01*
X60150737Y-80307186D01*
X60173833Y-80317182D01*
X60179077Y-80319750D01*
X60219908Y-80342197D01*
X60232523Y-80345435D01*
X60239305Y-80347177D01*
X60257708Y-80353477D01*
X60276104Y-80361438D01*
X60276107Y-80361438D01*
X60278438Y-80362447D01*
X60332145Y-80407139D01*
X60353164Y-80473772D01*
X60334822Y-80541191D01*
X60282943Y-80587991D01*
X60229612Y-80600247D01*
X47241423Y-80644575D01*
X47174317Y-80625120D01*
X47128382Y-80572472D01*
X47117000Y-80520576D01*
X47117000Y-56428952D01*
X47136685Y-56361913D01*
X47189489Y-56316158D01*
X47258647Y-56306214D01*
X47322203Y-56335239D01*
G37*
%TD.AperFunction*%
%TA.AperFunction,Conductor*%
G36*
X74490132Y-25961259D02*
G01*
X74536067Y-26013907D01*
X74547439Y-26067339D01*
X74421999Y-36194999D01*
X74422000Y-36195000D01*
X84077355Y-36195000D01*
X84144394Y-36214685D01*
X84190149Y-36267489D01*
X84201354Y-36318645D01*
X84327644Y-80394068D01*
X84308152Y-80461163D01*
X84255479Y-80507069D01*
X84204068Y-80518422D01*
X68132834Y-80573273D01*
X68065728Y-80553818D01*
X68019793Y-80501170D01*
X68009614Y-80432046D01*
X68038421Y-80368392D01*
X68078575Y-80338851D01*
X68078422Y-80338592D01*
X68081001Y-80337066D01*
X68083174Y-80335468D01*
X68085131Y-80334620D01*
X68085141Y-80334618D01*
X68102380Y-80324422D01*
X68119854Y-80315862D01*
X68138478Y-80308488D01*
X68138478Y-80308487D01*
X68138483Y-80308486D01*
X68176200Y-80281082D01*
X68181056Y-80277892D01*
X68221171Y-80254170D01*
X68235340Y-80239999D01*
X68250130Y-80227368D01*
X68266338Y-80215594D01*
X68296050Y-80179676D01*
X68299963Y-80175376D01*
X69853521Y-78621819D01*
X69914845Y-78588334D01*
X69941203Y-78585500D01*
X70319686Y-78585500D01*
X70319694Y-78585500D01*
X70356569Y-78582598D01*
X70356571Y-78582597D01*
X70356573Y-78582597D01*
X70429704Y-78561350D01*
X70514398Y-78536744D01*
X70655865Y-78453081D01*
X70772081Y-78336865D01*
X70855744Y-78195398D01*
X70901598Y-78037569D01*
X70904500Y-78000694D01*
X70904500Y-76119306D01*
X70901598Y-76082431D01*
X70898823Y-76072880D01*
X70855745Y-75924606D01*
X70855744Y-75924602D01*
X70846786Y-75909455D01*
X70805768Y-75840095D01*
X70788500Y-75776975D01*
X70788500Y-75214499D01*
X70808185Y-75147460D01*
X70860989Y-75101705D01*
X70912495Y-75090499D01*
X71899008Y-75090499D01*
X71899016Y-75090498D01*
X71899019Y-75090498D01*
X71959497Y-75084320D01*
X72001797Y-75079999D01*
X72168334Y-75024814D01*
X72317656Y-74932712D01*
X72441712Y-74808656D01*
X72462839Y-74774402D01*
X72514787Y-74727679D01*
X72568378Y-74715500D01*
X72700153Y-74715500D01*
X72723385Y-74717696D01*
X72724989Y-74718001D01*
X72731412Y-74719227D01*
X72788724Y-74715621D01*
X72792597Y-74715500D01*
X72810342Y-74715500D01*
X72810350Y-74715500D01*
X72827990Y-74713271D01*
X72831807Y-74712910D01*
X72889138Y-74709304D01*
X72896905Y-74706780D01*
X72919680Y-74701688D01*
X72927792Y-74700664D01*
X72981195Y-74679519D01*
X72984835Y-74678209D01*
X73039441Y-74660467D01*
X73046337Y-74656090D01*
X73067133Y-74645494D01*
X73074732Y-74642486D01*
X73121191Y-74608730D01*
X73124390Y-74606555D01*
X73172877Y-74575786D01*
X73178466Y-74569833D01*
X73195979Y-74554394D01*
X73202587Y-74549594D01*
X73239190Y-74505347D01*
X73241736Y-74502457D01*
X73281062Y-74460582D01*
X73284998Y-74453421D01*
X73298119Y-74434114D01*
X73303324Y-74427823D01*
X73314965Y-74403084D01*
X73327769Y-74375874D01*
X73329528Y-74372419D01*
X73357197Y-74322092D01*
X73359227Y-74314181D01*
X73367135Y-74292218D01*
X73370614Y-74284826D01*
X73371061Y-74282486D01*
X73378911Y-74241329D01*
X73381377Y-74228401D01*
X73382210Y-74224670D01*
X73396500Y-74169019D01*
X73396500Y-74160844D01*
X73398697Y-74137606D01*
X73400227Y-74129588D01*
X73396621Y-74072275D01*
X73396500Y-74068403D01*
X73396500Y-71202742D01*
X73398224Y-71187122D01*
X73397939Y-71187096D01*
X73398673Y-71179333D01*
X73396531Y-71111152D01*
X73396500Y-71109205D01*
X73396500Y-71080654D01*
X73396500Y-71080650D01*
X73395631Y-71073772D01*
X73395172Y-71067943D01*
X73393709Y-71021372D01*
X73388122Y-71002144D01*
X73384174Y-70983084D01*
X73383203Y-70975396D01*
X73381664Y-70963208D01*
X73381663Y-70963206D01*
X73381663Y-70963204D01*
X73364512Y-70919887D01*
X73362619Y-70914358D01*
X73349618Y-70869609D01*
X73349616Y-70869606D01*
X73339423Y-70852371D01*
X73330861Y-70834894D01*
X73323487Y-70816270D01*
X73323486Y-70816268D01*
X73296079Y-70778545D01*
X73292888Y-70773686D01*
X73283050Y-70757051D01*
X73269170Y-70733580D01*
X73269168Y-70733578D01*
X73269165Y-70733574D01*
X73255006Y-70719415D01*
X73242368Y-70704619D01*
X73230594Y-70688413D01*
X73194688Y-70658709D01*
X73190376Y-70654786D01*
X71400819Y-68865228D01*
X71367334Y-68803905D01*
X71364500Y-68777547D01*
X71364500Y-63429452D01*
X71384185Y-63362413D01*
X71400819Y-63341771D01*
X73247772Y-61494819D01*
X73309095Y-61461334D01*
X73335453Y-61458500D01*
X74964501Y-61458500D01*
X75031540Y-61478185D01*
X75077295Y-61530989D01*
X75088501Y-61582500D01*
X75088501Y-62380876D01*
X75094908Y-62440483D01*
X75145202Y-62575328D01*
X75145206Y-62575335D01*
X75231452Y-62690544D01*
X75231455Y-62690547D01*
X75346664Y-62776793D01*
X75346671Y-62776797D01*
X75481517Y-62827091D01*
X75481516Y-62827091D01*
X75488444Y-62827835D01*
X75541127Y-62833500D01*
X78636872Y-62833499D01*
X78696483Y-62827091D01*
X78831331Y-62776796D01*
X78946546Y-62690546D01*
X79032796Y-62575331D01*
X79083091Y-62440483D01*
X79089500Y-62380873D01*
X79089499Y-59768451D01*
X79109184Y-59701413D01*
X79125813Y-59680776D01*
X80393788Y-58412801D01*
X80406042Y-58402986D01*
X80405859Y-58402764D01*
X80411868Y-58397791D01*
X80411877Y-58397786D01*
X80458607Y-58348022D01*
X80459846Y-58346743D01*
X80480120Y-58326471D01*
X80484379Y-58320978D01*
X80488152Y-58316561D01*
X80520062Y-58282582D01*
X80529715Y-58265020D01*
X80540389Y-58248770D01*
X80552673Y-58232936D01*
X80571180Y-58190167D01*
X80573749Y-58184924D01*
X80588066Y-58158882D01*
X80596197Y-58144092D01*
X80601177Y-58124691D01*
X80607478Y-58106288D01*
X80615438Y-58087896D01*
X80622730Y-58041849D01*
X80623911Y-58036152D01*
X80635500Y-57991019D01*
X80635500Y-57970982D01*
X80637027Y-57951582D01*
X80638310Y-57943483D01*
X80640160Y-57931804D01*
X80635775Y-57885415D01*
X80635500Y-57879577D01*
X80635500Y-50882742D01*
X80637224Y-50867122D01*
X80636939Y-50867095D01*
X80637673Y-50859333D01*
X80635531Y-50791138D01*
X80635500Y-50789191D01*
X80635500Y-50760656D01*
X80635500Y-50760650D01*
X80634631Y-50753779D01*
X80634173Y-50747952D01*
X80632710Y-50701373D01*
X80627119Y-50682130D01*
X80623173Y-50663078D01*
X80620664Y-50643208D01*
X80607207Y-50609220D01*
X80598499Y-50563572D01*
X80598499Y-49140129D01*
X80598498Y-49140123D01*
X80592091Y-49080516D01*
X80541797Y-48945671D01*
X80541793Y-48945664D01*
X80455547Y-48830455D01*
X80455544Y-48830452D01*
X80340335Y-48744206D01*
X80340328Y-48744202D01*
X80205482Y-48693908D01*
X80205483Y-48693908D01*
X80145883Y-48687501D01*
X80145881Y-48687500D01*
X80145873Y-48687500D01*
X80145865Y-48687500D01*
X79997500Y-48687500D01*
X79930461Y-48667815D01*
X79884706Y-48615011D01*
X79873500Y-48563500D01*
X79873500Y-47938242D01*
X79875224Y-47922622D01*
X79874939Y-47922595D01*
X79875673Y-47914833D01*
X79873531Y-47846639D01*
X79873500Y-47844692D01*
X79873500Y-47816156D01*
X79873500Y-47816150D01*
X79872631Y-47809279D01*
X79872173Y-47803452D01*
X79871421Y-47779522D01*
X79870710Y-47756873D01*
X79865119Y-47737630D01*
X79861173Y-47718578D01*
X79858664Y-47698708D01*
X79841504Y-47655367D01*
X79839624Y-47649879D01*
X79826618Y-47605110D01*
X79816422Y-47587870D01*
X79807861Y-47570394D01*
X79800487Y-47551770D01*
X79800486Y-47551768D01*
X79773079Y-47514045D01*
X79769888Y-47509186D01*
X79746172Y-47469083D01*
X79746165Y-47469074D01*
X79732006Y-47454915D01*
X79719368Y-47440119D01*
X79707594Y-47423913D01*
X79671688Y-47394209D01*
X79667376Y-47390286D01*
X76630522Y-44353431D01*
X76597037Y-44292108D01*
X76594845Y-44253147D01*
X76599938Y-44203302D01*
X76601500Y-44188009D01*
X76601499Y-43187992D01*
X76598786Y-43161438D01*
X76590999Y-43085203D01*
X76590998Y-43085200D01*
X76582859Y-43060637D01*
X76535814Y-42918666D01*
X76443712Y-42769344D01*
X76434049Y-42759681D01*
X76400564Y-42698358D01*
X76405548Y-42628666D01*
X76434049Y-42584319D01*
X76443712Y-42574656D01*
X76535814Y-42425334D01*
X76590999Y-42258797D01*
X76601500Y-42156009D01*
X76601499Y-41155992D01*
X76600459Y-41145815D01*
X76590999Y-41053203D01*
X76590998Y-41053200D01*
X76572988Y-40998849D01*
X76535814Y-40886666D01*
X76443712Y-40737344D01*
X76434049Y-40727681D01*
X76400564Y-40666362D01*
X76405546Y-40596670D01*
X76434049Y-40552318D01*
X76443712Y-40542656D01*
X76535814Y-40393334D01*
X76590999Y-40226797D01*
X76601500Y-40124009D01*
X76601499Y-39123992D01*
X76598476Y-39094403D01*
X76590999Y-39021203D01*
X76590998Y-39021200D01*
X76584155Y-39000550D01*
X76535814Y-38854666D01*
X76443712Y-38705344D01*
X76319656Y-38581288D01*
X76221130Y-38520517D01*
X76170336Y-38489187D01*
X76170331Y-38489185D01*
X76167672Y-38488304D01*
X76003797Y-38434001D01*
X76003795Y-38434000D01*
X75901010Y-38423500D01*
X75275998Y-38423500D01*
X75275980Y-38423501D01*
X75173203Y-38434000D01*
X75173200Y-38434001D01*
X75006668Y-38489185D01*
X75006663Y-38489187D01*
X74857342Y-38581289D01*
X74763681Y-38674951D01*
X74702358Y-38708436D01*
X74632666Y-38703452D01*
X74588319Y-38674951D01*
X74494657Y-38581289D01*
X74494656Y-38581289D01*
X74494656Y-38581288D01*
X74396130Y-38520517D01*
X74345336Y-38489187D01*
X74345331Y-38489185D01*
X74342672Y-38488304D01*
X74178797Y-38434001D01*
X74178795Y-38434000D01*
X74076010Y-38423500D01*
X73450998Y-38423500D01*
X73450980Y-38423501D01*
X73348203Y-38434000D01*
X73348200Y-38434001D01*
X73181668Y-38489185D01*
X73181663Y-38489187D01*
X73032342Y-38581289D01*
X72908289Y-38705342D01*
X72816187Y-38854663D01*
X72816185Y-38854668D01*
X72788349Y-38938670D01*
X72761001Y-39021203D01*
X72761001Y-39021204D01*
X72761000Y-39021204D01*
X72750500Y-39123983D01*
X72750500Y-39123991D01*
X72750500Y-39440000D01*
X72750501Y-39636500D01*
X72730817Y-39703539D01*
X72678013Y-39749294D01*
X72626501Y-39760500D01*
X72604650Y-39760500D01*
X72603929Y-39760590D01*
X72597757Y-39761369D01*
X72591945Y-39761826D01*
X72545378Y-39763290D01*
X72545367Y-39763292D01*
X72526134Y-39768879D01*
X72507094Y-39772822D01*
X72487217Y-39775334D01*
X72487210Y-39775335D01*
X72487208Y-39775336D01*
X72487206Y-39775336D01*
X72487205Y-39775337D01*
X72443868Y-39792494D01*
X72438342Y-39794386D01*
X72393611Y-39807382D01*
X72393608Y-39807383D01*
X72376363Y-39817581D01*
X72358901Y-39826135D01*
X72340272Y-39833511D01*
X72340267Y-39833513D01*
X72302564Y-39860906D01*
X72297682Y-39864112D01*
X72257580Y-39887828D01*
X72243408Y-39902000D01*
X72228623Y-39914628D01*
X72212412Y-39926407D01*
X72182709Y-39962310D01*
X72178777Y-39966631D01*
X71181611Y-40963796D01*
X71120288Y-40997281D01*
X71050596Y-40992297D01*
X71043494Y-40989394D01*
X70891807Y-40921857D01*
X70891802Y-40921855D01*
X70726255Y-40886668D01*
X70706646Y-40882500D01*
X70517354Y-40882500D01*
X70497745Y-40886668D01*
X70332197Y-40921855D01*
X70332192Y-40921857D01*
X70159270Y-40998848D01*
X70159265Y-40998851D01*
X70010316Y-41107070D01*
X69944510Y-41130550D01*
X69937431Y-41130752D01*
X69743192Y-41130752D01*
X69676153Y-41111067D01*
X69630398Y-41058263D01*
X69620454Y-40989105D01*
X69636459Y-40943632D01*
X69647340Y-40925233D01*
X69664244Y-40896650D01*
X69710098Y-40738821D01*
X69713000Y-40701946D01*
X69713000Y-40270558D01*
X69710098Y-40233683D01*
X69708097Y-40226797D01*
X69664245Y-40075858D01*
X69664244Y-40075855D01*
X69664244Y-40075854D01*
X69580581Y-39934387D01*
X69580578Y-39934384D01*
X69575798Y-39928221D01*
X69578135Y-39926407D01*
X69551298Y-39877302D01*
X69556256Y-39807608D01*
X69577054Y-39775250D01*
X69575403Y-39773969D01*
X69580186Y-39767802D01*
X69663781Y-39626450D01*
X69709600Y-39468738D01*
X69709795Y-39466253D01*
X69709795Y-39466252D01*
X68111500Y-39466252D01*
X68044461Y-39446567D01*
X67998706Y-39393763D01*
X67987500Y-39342252D01*
X67987500Y-38416252D01*
X68487500Y-38416252D01*
X68487500Y-38966252D01*
X69709795Y-38966252D01*
X69709795Y-38966250D01*
X69709600Y-38963765D01*
X69663781Y-38806053D01*
X69580185Y-38664699D01*
X69580178Y-38664690D01*
X69464061Y-38548573D01*
X69464052Y-38548566D01*
X69322696Y-38464969D01*
X69322693Y-38464968D01*
X69164995Y-38419152D01*
X69164989Y-38419151D01*
X69128149Y-38416252D01*
X68487500Y-38416252D01*
X67987500Y-38416252D01*
X67415700Y-38416252D01*
X67348661Y-38396567D01*
X67302906Y-38343763D01*
X67292962Y-38274605D01*
X67321987Y-38211049D01*
X67328004Y-38204585D01*
X67439792Y-38092797D01*
X67452042Y-38082985D01*
X67451859Y-38082764D01*
X67457868Y-38077791D01*
X67457877Y-38077786D01*
X67504607Y-38028022D01*
X67505846Y-38026743D01*
X67526120Y-38006471D01*
X67530379Y-38000978D01*
X67534152Y-37996561D01*
X67566062Y-37962582D01*
X67575715Y-37945020D01*
X67586389Y-37928770D01*
X67598673Y-37912936D01*
X67617180Y-37870167D01*
X67619749Y-37864924D01*
X67642196Y-37824093D01*
X67642197Y-37824092D01*
X67647177Y-37804691D01*
X67653478Y-37786288D01*
X67661438Y-37767896D01*
X67668730Y-37721849D01*
X67669911Y-37716152D01*
X67681500Y-37671019D01*
X67681500Y-37650982D01*
X67683027Y-37631582D01*
X67686160Y-37611804D01*
X67681775Y-37565415D01*
X67681500Y-37559577D01*
X67681500Y-37470226D01*
X67701185Y-37403187D01*
X67734374Y-37368654D01*
X67927401Y-37233495D01*
X68049717Y-37111178D01*
X68111036Y-37077696D01*
X68180728Y-37082680D01*
X68236662Y-37124551D01*
X68253577Y-37155528D01*
X68302646Y-37287088D01*
X68302649Y-37287093D01*
X68388809Y-37402187D01*
X68388812Y-37402190D01*
X68503906Y-37488350D01*
X68503913Y-37488354D01*
X68638620Y-37538596D01*
X68638627Y-37538598D01*
X68698155Y-37544999D01*
X68698172Y-37545000D01*
X69346000Y-37545000D01*
X69346000Y-36630501D01*
X69453685Y-36679680D01*
X69560237Y-36695000D01*
X69631763Y-36695000D01*
X69738315Y-36679680D01*
X69846000Y-36630501D01*
X69846000Y-37545000D01*
X70493828Y-37545000D01*
X70493844Y-37544999D01*
X70553372Y-37538598D01*
X70553379Y-37538596D01*
X70688086Y-37488354D01*
X70688093Y-37488350D01*
X70803187Y-37402190D01*
X70803190Y-37402187D01*
X70889350Y-37287093D01*
X70889354Y-37287086D01*
X70939596Y-37152379D01*
X70939598Y-37152372D01*
X70945999Y-37092844D01*
X70946000Y-37092827D01*
X70946000Y-36445000D01*
X70029686Y-36445000D01*
X70055493Y-36404844D01*
X70096000Y-36266889D01*
X70096000Y-36123111D01*
X70055493Y-35985156D01*
X70029686Y-35945000D01*
X70946000Y-35945000D01*
X70946000Y-35297172D01*
X70945999Y-35297155D01*
X70939598Y-35237627D01*
X70939596Y-35237620D01*
X70889354Y-35102913D01*
X70889350Y-35102906D01*
X70803190Y-34987812D01*
X70803187Y-34987809D01*
X70688093Y-34901649D01*
X70688086Y-34901645D01*
X70553379Y-34851403D01*
X70553372Y-34851401D01*
X70493844Y-34845000D01*
X69846000Y-34845000D01*
X69846000Y-35759498D01*
X69738315Y-35710320D01*
X69631763Y-35695000D01*
X69560237Y-35695000D01*
X69453685Y-35710320D01*
X69346000Y-35759498D01*
X69346000Y-34845000D01*
X68698155Y-34845000D01*
X68638627Y-34851401D01*
X68638620Y-34851403D01*
X68503913Y-34901645D01*
X68503906Y-34901649D01*
X68388812Y-34987809D01*
X68388809Y-34987812D01*
X68302649Y-35102906D01*
X68302645Y-35102913D01*
X68253578Y-35234470D01*
X68211707Y-35290404D01*
X68146242Y-35314821D01*
X68077969Y-35299969D01*
X68049715Y-35278819D01*
X68005366Y-35234470D01*
X67927401Y-35156505D01*
X67927397Y-35156502D01*
X67927396Y-35156501D01*
X67733834Y-35020967D01*
X67733830Y-35020965D01*
X67733829Y-35020964D01*
X67519663Y-34921097D01*
X67519659Y-34921096D01*
X67519655Y-34921094D01*
X67291413Y-34859938D01*
X67291403Y-34859936D01*
X67056001Y-34839341D01*
X67055999Y-34839341D01*
X66820596Y-34859936D01*
X66820586Y-34859938D01*
X66592344Y-34921094D01*
X66592335Y-34921098D01*
X66378171Y-35020964D01*
X66378169Y-35020965D01*
X66184597Y-35156505D01*
X66017508Y-35323594D01*
X65887574Y-35509160D01*
X65832997Y-35552784D01*
X65763498Y-35559977D01*
X65701144Y-35528455D01*
X65684429Y-35509164D01*
X65554495Y-35323599D01*
X65554493Y-35323596D01*
X65387402Y-35156506D01*
X65387395Y-35156501D01*
X65193834Y-35020967D01*
X65193830Y-35020965D01*
X65193829Y-35020964D01*
X64979663Y-34921097D01*
X64979659Y-34921096D01*
X64979655Y-34921094D01*
X64751413Y-34859938D01*
X64751403Y-34859936D01*
X64516001Y-34839341D01*
X64515999Y-34839341D01*
X64280596Y-34859936D01*
X64280586Y-34859938D01*
X64052344Y-34921094D01*
X64052335Y-34921098D01*
X63838171Y-35020964D01*
X63838169Y-35020965D01*
X63644597Y-35156505D01*
X63477505Y-35323597D01*
X63341965Y-35517169D01*
X63341964Y-35517171D01*
X63242098Y-35731335D01*
X63242094Y-35731344D01*
X63180938Y-35959586D01*
X63180936Y-35959596D01*
X63160341Y-36194999D01*
X63160341Y-36195000D01*
X63180936Y-36430403D01*
X63180938Y-36430413D01*
X63242094Y-36658655D01*
X63242096Y-36658659D01*
X63242097Y-36658663D01*
X63280651Y-36741342D01*
X63341965Y-36872830D01*
X63341967Y-36872834D01*
X63354455Y-36890668D01*
X63477505Y-37066401D01*
X63644599Y-37233495D01*
X63741384Y-37301265D01*
X63838165Y-37369032D01*
X63838167Y-37369033D01*
X63838170Y-37369035D01*
X63849221Y-37374188D01*
X63890404Y-37393392D01*
X63942844Y-37439564D01*
X63962000Y-37505774D01*
X63962000Y-38291752D01*
X63942315Y-38358791D01*
X63889511Y-38404546D01*
X63838000Y-38415752D01*
X63422952Y-38415752D01*
X63355913Y-38396067D01*
X63335271Y-38379433D01*
X62221818Y-37265979D01*
X62188333Y-37204656D01*
X62185499Y-37178298D01*
X62185499Y-37159998D01*
X62185498Y-37159981D01*
X62174999Y-37057203D01*
X62174998Y-37057200D01*
X62119814Y-36890666D01*
X62027712Y-36741344D01*
X61903656Y-36617288D01*
X61900342Y-36615243D01*
X61898546Y-36613248D01*
X61897989Y-36612807D01*
X61898064Y-36612711D01*
X61853618Y-36563297D01*
X61842397Y-36494334D01*
X61870240Y-36430252D01*
X61900348Y-36404165D01*
X61903342Y-36402318D01*
X62027315Y-36278345D01*
X62119356Y-36129124D01*
X62119358Y-36129119D01*
X62174505Y-35962697D01*
X62174506Y-35962690D01*
X62184999Y-35859986D01*
X62185000Y-35859973D01*
X62185000Y-35810000D01*
X59735001Y-35810000D01*
X59735001Y-35859986D01*
X59745494Y-35962697D01*
X59800641Y-36129119D01*
X59800643Y-36129124D01*
X59887169Y-36269403D01*
X59905609Y-36336795D01*
X59884687Y-36403459D01*
X59831045Y-36448229D01*
X59781630Y-36458500D01*
X47326737Y-36458500D01*
X47311120Y-36456776D01*
X47311093Y-36457062D01*
X47303331Y-36456327D01*
X47244894Y-36458164D01*
X47177269Y-36440594D01*
X47129879Y-36389253D01*
X47117000Y-36334225D01*
X47117000Y-35309999D01*
X59734999Y-35309999D01*
X59735000Y-35310000D01*
X60710000Y-35310000D01*
X60710000Y-34560000D01*
X61210000Y-34560000D01*
X61210000Y-35310000D01*
X62184999Y-35310000D01*
X62184999Y-35260028D01*
X62184998Y-35260013D01*
X62174505Y-35157302D01*
X62119358Y-34990880D01*
X62119356Y-34990875D01*
X62027315Y-34841654D01*
X61903345Y-34717684D01*
X61754124Y-34625643D01*
X61754119Y-34625641D01*
X61587697Y-34570494D01*
X61587690Y-34570493D01*
X61484986Y-34560000D01*
X61210000Y-34560000D01*
X60710000Y-34560000D01*
X60435029Y-34560000D01*
X60435012Y-34560001D01*
X60332302Y-34570494D01*
X60165880Y-34625641D01*
X60165875Y-34625643D01*
X60016654Y-34717684D01*
X59892684Y-34841654D01*
X59800643Y-34990875D01*
X59800641Y-34990880D01*
X59745494Y-35157302D01*
X59745493Y-35157309D01*
X59735000Y-35260013D01*
X59735000Y-35260026D01*
X59734999Y-35309999D01*
X47117000Y-35309999D01*
X47117000Y-26158577D01*
X47136685Y-26091538D01*
X47189489Y-26045783D01*
X47240575Y-26034578D01*
X74423029Y-25941804D01*
X74490132Y-25961259D01*
G37*
%TD.AperFunction*%
%TA.AperFunction,Conductor*%
G36*
X61282858Y-73562245D02*
G01*
X61338791Y-73604117D01*
X61363208Y-73669581D01*
X61351909Y-73730825D01*
X61349188Y-73736660D01*
X61349186Y-73736665D01*
X61349186Y-73736666D01*
X61294001Y-73903203D01*
X61294001Y-73903204D01*
X61294000Y-73903204D01*
X61283500Y-74005983D01*
X61283500Y-74631001D01*
X61283501Y-74631019D01*
X61294000Y-74733796D01*
X61294001Y-74733799D01*
X61349185Y-74900331D01*
X61349187Y-74900336D01*
X61373601Y-74939918D01*
X61441288Y-75049656D01*
X61565344Y-75173712D01*
X61714666Y-75265814D01*
X61773502Y-75285310D01*
X61830947Y-75325081D01*
X61857771Y-75389596D01*
X61858499Y-75403015D01*
X61858500Y-75504887D01*
X61838816Y-75571926D01*
X61786013Y-75617682D01*
X61716854Y-75627626D01*
X61671380Y-75611621D01*
X61624194Y-75583716D01*
X61466494Y-75537900D01*
X61466497Y-75537900D01*
X61464000Y-75537703D01*
X61464000Y-78582295D01*
X61464001Y-78582295D01*
X61466486Y-78582100D01*
X61624198Y-78536281D01*
X61765550Y-78452686D01*
X61771717Y-78447903D01*
X61773630Y-78450369D01*
X61822222Y-78423802D01*
X61891917Y-78428749D01*
X61924762Y-78449853D01*
X61925969Y-78448298D01*
X61932132Y-78453078D01*
X61932135Y-78453081D01*
X62073602Y-78536744D01*
X62115224Y-78548836D01*
X62231426Y-78582597D01*
X62231429Y-78582597D01*
X62231431Y-78582598D01*
X62268306Y-78585500D01*
X62268314Y-78585500D01*
X62699686Y-78585500D01*
X62699694Y-78585500D01*
X62736569Y-78582598D01*
X62736571Y-78582597D01*
X62736573Y-78582597D01*
X62809704Y-78561350D01*
X62894398Y-78536744D01*
X63035865Y-78453081D01*
X63035870Y-78453076D01*
X63042026Y-78448301D01*
X63043927Y-78450752D01*
X63092579Y-78424154D01*
X63162274Y-78429103D01*
X63194700Y-78449942D01*
X63195974Y-78448301D01*
X63202139Y-78453084D01*
X63249095Y-78480853D01*
X63343602Y-78536744D01*
X63385224Y-78548836D01*
X63501426Y-78582597D01*
X63501429Y-78582597D01*
X63501431Y-78582598D01*
X63538306Y-78585500D01*
X63538314Y-78585500D01*
X63969686Y-78585500D01*
X63969694Y-78585500D01*
X64006569Y-78582598D01*
X64006571Y-78582597D01*
X64006573Y-78582597D01*
X64079704Y-78561350D01*
X64164398Y-78536744D01*
X64305865Y-78453081D01*
X64305870Y-78453076D01*
X64312026Y-78448301D01*
X64313927Y-78450752D01*
X64362579Y-78424154D01*
X64432274Y-78429103D01*
X64464700Y-78449942D01*
X64465974Y-78448301D01*
X64472139Y-78453084D01*
X64519095Y-78480853D01*
X64613602Y-78536744D01*
X64655224Y-78548836D01*
X64771426Y-78582597D01*
X64771429Y-78582597D01*
X64771431Y-78582598D01*
X64808306Y-78585500D01*
X64808314Y-78585500D01*
X65239686Y-78585500D01*
X65239694Y-78585500D01*
X65276569Y-78582598D01*
X65276571Y-78582597D01*
X65276573Y-78582597D01*
X65349704Y-78561350D01*
X65434398Y-78536744D01*
X65575865Y-78453081D01*
X65575870Y-78453076D01*
X65582026Y-78448301D01*
X65583927Y-78450752D01*
X65632579Y-78424154D01*
X65702274Y-78429103D01*
X65734700Y-78449942D01*
X65735974Y-78448301D01*
X65742139Y-78453084D01*
X65789095Y-78480853D01*
X65883602Y-78536744D01*
X65925224Y-78548836D01*
X66041426Y-78582597D01*
X66041429Y-78582597D01*
X66041431Y-78582598D01*
X66078306Y-78585500D01*
X66078314Y-78585500D01*
X66509686Y-78585500D01*
X66509694Y-78585500D01*
X66546569Y-78582598D01*
X66546571Y-78582597D01*
X66546573Y-78582597D01*
X66619704Y-78561350D01*
X66704398Y-78536744D01*
X66845865Y-78453081D01*
X66845870Y-78453076D01*
X66852026Y-78448301D01*
X66853927Y-78450752D01*
X66902579Y-78424154D01*
X66972274Y-78429103D01*
X67004700Y-78449942D01*
X67005974Y-78448301D01*
X67012139Y-78453084D01*
X67059095Y-78480853D01*
X67153602Y-78536744D01*
X67195224Y-78548836D01*
X67311426Y-78582597D01*
X67311429Y-78582597D01*
X67311431Y-78582598D01*
X67348306Y-78585500D01*
X67348314Y-78585500D01*
X67779686Y-78585500D01*
X67779694Y-78585500D01*
X67814705Y-78582744D01*
X67883081Y-78597108D01*
X67932838Y-78646158D01*
X67948178Y-78714323D01*
X67924230Y-78779960D01*
X67912116Y-78794043D01*
X67762048Y-78944112D01*
X67611977Y-79094182D01*
X67550656Y-79127666D01*
X67524298Y-79130500D01*
X60762452Y-79130500D01*
X60695413Y-79110815D01*
X60674771Y-79094181D01*
X60374633Y-78794043D01*
X60055388Y-78474797D01*
X60040512Y-78456816D01*
X60035923Y-78450063D01*
X60033924Y-78448301D01*
X59992870Y-78412106D01*
X59990046Y-78409455D01*
X59977471Y-78396880D01*
X59977470Y-78396880D01*
X59960031Y-78379440D01*
X59960028Y-78379438D01*
X59843818Y-78263228D01*
X59810333Y-78201905D01*
X59807499Y-78175547D01*
X59807499Y-77310000D01*
X60414000Y-77310000D01*
X60414000Y-78000649D01*
X60416899Y-78037489D01*
X60416900Y-78037495D01*
X60462716Y-78195193D01*
X60462717Y-78195196D01*
X60546314Y-78336552D01*
X60546321Y-78336561D01*
X60662438Y-78452678D01*
X60662447Y-78452685D01*
X60803801Y-78536281D01*
X60961514Y-78582100D01*
X60961511Y-78582100D01*
X60963998Y-78582295D01*
X60964000Y-78582295D01*
X60964000Y-77310000D01*
X60414000Y-77310000D01*
X59807499Y-77310000D01*
X59807499Y-76810000D01*
X60414000Y-76810000D01*
X60963999Y-76810000D01*
X60964000Y-75537703D01*
X60961503Y-75537900D01*
X60803806Y-75583716D01*
X60803803Y-75583717D01*
X60662447Y-75667314D01*
X60662438Y-75667321D01*
X60546321Y-75783438D01*
X60546314Y-75783447D01*
X60462717Y-75924803D01*
X60462716Y-75924806D01*
X60416900Y-76082504D01*
X60416899Y-76082510D01*
X60414000Y-76119350D01*
X60414000Y-76810000D01*
X59807499Y-76810000D01*
X59807499Y-76685505D01*
X59807499Y-74986448D01*
X59827184Y-74919413D01*
X59843813Y-74898776D01*
X61151845Y-73590744D01*
X61213166Y-73557261D01*
X61282858Y-73562245D01*
G37*
%TD.AperFunction*%
%TA.AperFunction,Conductor*%
G36*
X54671812Y-73289185D02*
G01*
X54706348Y-73322377D01*
X54841501Y-73515396D01*
X54841506Y-73515402D01*
X55008597Y-73682493D01*
X55008603Y-73682498D01*
X55194158Y-73812425D01*
X55237783Y-73867002D01*
X55244977Y-73936500D01*
X55213454Y-73998855D01*
X55194158Y-74015575D01*
X55008597Y-74145505D01*
X54841505Y-74312597D01*
X54705965Y-74506169D01*
X54705964Y-74506171D01*
X54606098Y-74720335D01*
X54606094Y-74720344D01*
X54544938Y-74948586D01*
X54544936Y-74948596D01*
X54524341Y-75183999D01*
X54524341Y-75184000D01*
X54544936Y-75419403D01*
X54544938Y-75419413D01*
X54606094Y-75647655D01*
X54606096Y-75647659D01*
X54606097Y-75647663D01*
X54676985Y-75799683D01*
X54705965Y-75861830D01*
X54705967Y-75861834D01*
X54841501Y-76055395D01*
X54841506Y-76055402D01*
X55008597Y-76222493D01*
X55008603Y-76222498D01*
X55194158Y-76352425D01*
X55237783Y-76407002D01*
X55244977Y-76476500D01*
X55213454Y-76538855D01*
X55194158Y-76555575D01*
X55008597Y-76685505D01*
X54841505Y-76852597D01*
X54705965Y-77046169D01*
X54705964Y-77046171D01*
X54606098Y-77260335D01*
X54606094Y-77260344D01*
X54544938Y-77488586D01*
X54544936Y-77488596D01*
X54524341Y-77723999D01*
X54524341Y-77724000D01*
X54544936Y-77959403D01*
X54544938Y-77959413D01*
X54606094Y-78187655D01*
X54606096Y-78187659D01*
X54606097Y-78187663D01*
X54624398Y-78226909D01*
X54705964Y-78401829D01*
X54705965Y-78401830D01*
X54723356Y-78426667D01*
X54723853Y-78427376D01*
X54746180Y-78493582D01*
X54729170Y-78561350D01*
X54678222Y-78609163D01*
X54622278Y-78622500D01*
X53523453Y-78622500D01*
X53456414Y-78602815D01*
X53435772Y-78586181D01*
X52618319Y-77768727D01*
X52584834Y-77707404D01*
X52582000Y-77681046D01*
X52582000Y-76892000D01*
X53082000Y-76892000D01*
X53082000Y-77641999D01*
X53356972Y-77641999D01*
X53356986Y-77641998D01*
X53459697Y-77631505D01*
X53626119Y-77576358D01*
X53626124Y-77576356D01*
X53775345Y-77484315D01*
X53899315Y-77360345D01*
X53991356Y-77211124D01*
X53991358Y-77211119D01*
X54046505Y-77044697D01*
X54046506Y-77044690D01*
X54056999Y-76941986D01*
X54057000Y-76941973D01*
X54057000Y-76892000D01*
X53082000Y-76892000D01*
X52582000Y-76892000D01*
X52582000Y-76516000D01*
X52601685Y-76448961D01*
X52654489Y-76403206D01*
X52706000Y-76392000D01*
X54056999Y-76392000D01*
X54056999Y-76342028D01*
X54056998Y-76342013D01*
X54046505Y-76239302D01*
X53991358Y-76072880D01*
X53991356Y-76072875D01*
X53899315Y-75923654D01*
X53775344Y-75799683D01*
X53775341Y-75799681D01*
X53772339Y-75797829D01*
X53770713Y-75796021D01*
X53769677Y-75795202D01*
X53769817Y-75795024D01*
X53725617Y-75745880D01*
X53714397Y-75676917D01*
X53742243Y-75612836D01*
X53772344Y-75586754D01*
X53775656Y-75584712D01*
X53899712Y-75460656D01*
X53991814Y-75311334D01*
X54046999Y-75144797D01*
X54057500Y-75042009D01*
X54057499Y-74441992D01*
X54046999Y-74339203D01*
X53991814Y-74172666D01*
X53899712Y-74023344D01*
X53775656Y-73899288D01*
X53775655Y-73899287D01*
X53756477Y-73887458D01*
X53739304Y-73876866D01*
X53692580Y-73824920D01*
X53681357Y-73755957D01*
X53709200Y-73691875D01*
X53716698Y-73683669D01*
X53837712Y-73562656D01*
X53929814Y-73413334D01*
X53949311Y-73354493D01*
X53989084Y-73297051D01*
X54053600Y-73270228D01*
X54067017Y-73269500D01*
X54604773Y-73269500D01*
X54671812Y-73289185D01*
G37*
%TD.AperFunction*%
%TA.AperFunction,Conductor*%
G36*
X61797595Y-59280503D02*
G01*
X61846293Y-59330606D01*
X61860566Y-59384582D01*
X61861290Y-59407624D01*
X61861291Y-59407627D01*
X61866880Y-59426867D01*
X61870824Y-59445911D01*
X61873336Y-59465792D01*
X61890490Y-59509119D01*
X61892382Y-59514647D01*
X61903379Y-59552499D01*
X61905382Y-59559390D01*
X61908736Y-59565062D01*
X61915580Y-59576634D01*
X61924136Y-59594100D01*
X61929690Y-59608125D01*
X61931514Y-59612732D01*
X61958898Y-59650423D01*
X61962106Y-59655307D01*
X61985827Y-59695416D01*
X61985833Y-59695424D01*
X61999990Y-59709580D01*
X62012627Y-59724375D01*
X62024406Y-59740587D01*
X62058089Y-59768452D01*
X62060309Y-59770288D01*
X62064620Y-59774210D01*
X62129558Y-59839148D01*
X62168194Y-59877784D01*
X62178019Y-59890048D01*
X62178240Y-59889866D01*
X62183210Y-59895874D01*
X62232949Y-59942582D01*
X62234316Y-59943906D01*
X62254530Y-59964120D01*
X62260004Y-59968366D01*
X62264442Y-59972156D01*
X62298418Y-60004062D01*
X62298422Y-60004064D01*
X62315973Y-60013713D01*
X62332231Y-60024392D01*
X62348064Y-60036674D01*
X62367303Y-60044999D01*
X62390837Y-60055183D01*
X62396081Y-60057752D01*
X62436908Y-60080197D01*
X62456312Y-60085179D01*
X62474710Y-60091478D01*
X62493105Y-60099438D01*
X62539129Y-60106726D01*
X62544832Y-60107907D01*
X62589981Y-60119500D01*
X62610016Y-60119500D01*
X62629413Y-60121026D01*
X62649196Y-60124160D01*
X62695583Y-60119775D01*
X62701422Y-60119500D01*
X64310000Y-60119500D01*
X64377039Y-60139185D01*
X64415037Y-60183037D01*
X64434000Y-60202000D01*
X65785000Y-60202000D01*
X65852039Y-60221685D01*
X65897794Y-60274489D01*
X65909000Y-60326000D01*
X65908999Y-61451998D01*
X65909000Y-61451999D01*
X66183972Y-61451999D01*
X66183986Y-61451998D01*
X66286695Y-61441506D01*
X66365032Y-61415547D01*
X66434860Y-61413145D01*
X66494902Y-61448876D01*
X66521742Y-61494248D01*
X66531638Y-61524113D01*
X66531643Y-61524124D01*
X66623684Y-61673345D01*
X66747654Y-61797315D01*
X66896875Y-61889356D01*
X66896880Y-61889358D01*
X67063302Y-61944505D01*
X67063309Y-61944506D01*
X67166019Y-61954999D01*
X67440999Y-61954999D01*
X67441000Y-61954998D01*
X67441000Y-60829000D01*
X67460685Y-60761961D01*
X67513489Y-60716206D01*
X67565000Y-60705000D01*
X67817000Y-60705000D01*
X67884039Y-60724685D01*
X67929794Y-60777489D01*
X67941000Y-60829000D01*
X67941000Y-61954999D01*
X68211500Y-61954999D01*
X68278539Y-61974684D01*
X68324294Y-62027488D01*
X68335500Y-62078999D01*
X68335500Y-70428546D01*
X68315815Y-70495585D01*
X68299181Y-70516227D01*
X63841948Y-74973459D01*
X63780625Y-75006944D01*
X63710933Y-75001960D01*
X63655000Y-74960088D01*
X63630583Y-74894624D01*
X63636560Y-74846779D01*
X63673999Y-74733797D01*
X63684500Y-74631009D01*
X63684499Y-74005992D01*
X63673999Y-73903203D01*
X63618814Y-73736666D01*
X63526712Y-73587344D01*
X63433048Y-73493681D01*
X63399564Y-73432358D01*
X63404548Y-73362666D01*
X63433049Y-73318319D01*
X63479695Y-73271673D01*
X63526712Y-73224656D01*
X63618814Y-73075334D01*
X63673999Y-72908797D01*
X63684500Y-72806009D01*
X63684499Y-72180992D01*
X63673999Y-72078203D01*
X63618814Y-71911666D01*
X63526712Y-71762344D01*
X63402656Y-71638288D01*
X63253334Y-71546186D01*
X63086797Y-71491001D01*
X63086795Y-71491000D01*
X62984010Y-71480500D01*
X61983998Y-71480500D01*
X61983980Y-71480501D01*
X61881203Y-71491000D01*
X61881200Y-71491001D01*
X61714668Y-71546185D01*
X61714663Y-71546187D01*
X61565342Y-71638289D01*
X61441289Y-71762342D01*
X61349187Y-71911663D01*
X61349185Y-71911666D01*
X61349186Y-71911666D01*
X61316851Y-72009248D01*
X61294001Y-72078204D01*
X61294000Y-72078205D01*
X61285532Y-72161102D01*
X61259136Y-72225794D01*
X61201955Y-72265945D01*
X61162174Y-72272500D01*
X61042743Y-72272500D01*
X61027122Y-72270775D01*
X61027095Y-72271061D01*
X61019333Y-72270326D01*
X60951140Y-72272469D01*
X60949193Y-72272500D01*
X60920649Y-72272500D01*
X60913778Y-72273367D01*
X60907959Y-72273825D01*
X60861374Y-72275289D01*
X60861368Y-72275290D01*
X60842126Y-72280880D01*
X60823087Y-72284823D01*
X60803217Y-72287334D01*
X60803203Y-72287337D01*
X60759883Y-72304488D01*
X60754358Y-72306380D01*
X60709613Y-72319380D01*
X60709610Y-72319381D01*
X60692366Y-72329579D01*
X60674905Y-72338133D01*
X60656274Y-72345510D01*
X60656262Y-72345517D01*
X60618570Y-72372902D01*
X60613687Y-72376109D01*
X60573580Y-72399829D01*
X60559414Y-72413995D01*
X60544624Y-72426627D01*
X60528414Y-72438404D01*
X60528411Y-72438407D01*
X60498710Y-72474309D01*
X60494777Y-72478631D01*
X58798208Y-74175199D01*
X58785951Y-74185020D01*
X58786134Y-74185241D01*
X58780122Y-74190214D01*
X58733432Y-74239932D01*
X58732079Y-74241329D01*
X58711889Y-74261519D01*
X58711877Y-74261532D01*
X58707621Y-74267017D01*
X58703837Y-74271447D01*
X58671937Y-74305418D01*
X58671936Y-74305420D01*
X58662284Y-74322976D01*
X58651610Y-74339226D01*
X58639329Y-74355061D01*
X58639324Y-74355068D01*
X58620815Y-74397838D01*
X58618245Y-74403084D01*
X58595803Y-74443906D01*
X58590822Y-74463307D01*
X58584521Y-74481710D01*
X58576562Y-74500102D01*
X58576561Y-74500105D01*
X58569271Y-74546127D01*
X58568087Y-74551846D01*
X58556501Y-74596972D01*
X58556500Y-74596982D01*
X58556500Y-74617016D01*
X58554973Y-74636415D01*
X58551840Y-74656194D01*
X58551840Y-74656195D01*
X58556225Y-74702583D01*
X58556500Y-74708421D01*
X58556500Y-78403255D01*
X58554775Y-78418872D01*
X58555061Y-78418899D01*
X58554326Y-78426666D01*
X58556469Y-78494846D01*
X58556500Y-78496793D01*
X58556500Y-78498500D01*
X58536815Y-78565539D01*
X58484011Y-78611294D01*
X58432500Y-78622500D01*
X57137722Y-78622500D01*
X57070683Y-78602815D01*
X57024928Y-78550011D01*
X57014984Y-78480853D01*
X57036147Y-78427376D01*
X57054035Y-78401830D01*
X57153903Y-78187663D01*
X57215063Y-77959408D01*
X57235659Y-77724000D01*
X57215063Y-77488592D01*
X57164207Y-77298794D01*
X57153905Y-77260344D01*
X57153904Y-77260343D01*
X57153903Y-77260337D01*
X57054035Y-77046171D01*
X56981085Y-76941986D01*
X56918494Y-76852597D01*
X56751402Y-76685506D01*
X56751401Y-76685505D01*
X56565842Y-76555575D01*
X56565841Y-76555574D01*
X56522216Y-76500997D01*
X56515024Y-76431498D01*
X56546546Y-76369144D01*
X56565836Y-76352428D01*
X56751401Y-76222495D01*
X56918495Y-76055401D01*
X57054035Y-75861830D01*
X57153903Y-75647663D01*
X57215063Y-75419408D01*
X57235659Y-75184000D01*
X57215063Y-74948592D01*
X57157509Y-74733796D01*
X57153905Y-74720344D01*
X57153904Y-74720343D01*
X57153903Y-74720337D01*
X57054035Y-74506171D01*
X57053467Y-74505359D01*
X56918494Y-74312597D01*
X56751402Y-74145506D01*
X56751401Y-74145505D01*
X56629746Y-74060321D01*
X56565841Y-74015574D01*
X56522216Y-73960997D01*
X56515024Y-73891498D01*
X56546546Y-73829144D01*
X56565836Y-73812428D01*
X56751401Y-73682495D01*
X56918495Y-73515401D01*
X57053651Y-73322377D01*
X57108229Y-73278752D01*
X57155227Y-73269500D01*
X58083257Y-73269500D01*
X58098877Y-73271224D01*
X58098904Y-73270939D01*
X58106666Y-73271673D01*
X58106666Y-73271672D01*
X58106667Y-73271673D01*
X58109999Y-73271568D01*
X58174847Y-73269531D01*
X58176794Y-73269500D01*
X58205347Y-73269500D01*
X58205350Y-73269500D01*
X58212228Y-73268630D01*
X58218041Y-73268172D01*
X58264627Y-73266709D01*
X58283869Y-73261117D01*
X58302912Y-73257174D01*
X58322792Y-73254664D01*
X58366122Y-73237507D01*
X58371646Y-73235617D01*
X58375396Y-73234527D01*
X58416390Y-73222618D01*
X58433629Y-73212422D01*
X58451103Y-73203862D01*
X58469727Y-73196488D01*
X58469727Y-73196487D01*
X58469732Y-73196486D01*
X58507449Y-73169082D01*
X58512305Y-73165892D01*
X58552420Y-73142170D01*
X58566589Y-73127999D01*
X58581379Y-73115368D01*
X58597587Y-73103594D01*
X58627299Y-73067676D01*
X58631212Y-73063376D01*
X58907771Y-72786818D01*
X58969094Y-72753333D01*
X58995452Y-72750499D01*
X59580002Y-72750499D01*
X59580008Y-72750499D01*
X59682797Y-72739999D01*
X59849334Y-72684814D01*
X59998656Y-72592712D01*
X60122712Y-72468656D01*
X60214814Y-72319334D01*
X60269999Y-72152797D01*
X60280500Y-72050009D01*
X60280499Y-71465450D01*
X60300183Y-71398412D01*
X60316813Y-71377775D01*
X63867786Y-67826802D01*
X63880048Y-67816980D01*
X63879865Y-67816759D01*
X63885873Y-67811788D01*
X63885877Y-67811786D01*
X63932649Y-67761977D01*
X63933891Y-67760697D01*
X63954120Y-67740470D01*
X63958373Y-67734986D01*
X63962150Y-67730563D01*
X63994062Y-67696582D01*
X64003714Y-67679023D01*
X64014389Y-67662772D01*
X64026674Y-67646936D01*
X64045186Y-67604152D01*
X64047742Y-67598935D01*
X64066949Y-67564000D01*
X64070194Y-67558098D01*
X64070194Y-67558097D01*
X64070197Y-67558092D01*
X64075180Y-67538680D01*
X64081477Y-67520291D01*
X64089438Y-67501895D01*
X64096729Y-67455853D01*
X64097908Y-67450162D01*
X64109500Y-67405019D01*
X64109500Y-67384982D01*
X64111027Y-67365582D01*
X64112499Y-67356288D01*
X64114160Y-67345804D01*
X64109775Y-67299415D01*
X64109500Y-67293577D01*
X64109500Y-61543348D01*
X64109499Y-61543326D01*
X64109499Y-60988129D01*
X64109498Y-60988123D01*
X64109497Y-60988116D01*
X64103091Y-60928517D01*
X64097332Y-60913077D01*
X64052797Y-60793671D01*
X64052793Y-60793664D01*
X63984173Y-60702000D01*
X64434001Y-60702000D01*
X64434001Y-60751986D01*
X64444494Y-60854697D01*
X64499641Y-61021119D01*
X64499643Y-61021124D01*
X64591684Y-61170345D01*
X64715654Y-61294315D01*
X64864875Y-61386356D01*
X64864880Y-61386358D01*
X65031302Y-61441505D01*
X65031309Y-61441506D01*
X65134019Y-61451999D01*
X65408999Y-61451999D01*
X65409000Y-61451998D01*
X65409000Y-60702000D01*
X64434001Y-60702000D01*
X63984173Y-60702000D01*
X63966547Y-60678455D01*
X63966544Y-60678452D01*
X63851335Y-60592206D01*
X63851328Y-60592202D01*
X63716486Y-60541910D01*
X63716485Y-60541909D01*
X63716483Y-60541909D01*
X63656873Y-60535500D01*
X63656863Y-60535500D01*
X63311130Y-60535500D01*
X63311120Y-60535501D01*
X63247248Y-60542367D01*
X63220742Y-60542367D01*
X63216483Y-60541909D01*
X63156873Y-60535500D01*
X63156865Y-60535500D01*
X62811130Y-60535500D01*
X62811125Y-60535501D01*
X62763160Y-60540657D01*
X62751517Y-60541909D01*
X62751516Y-60541909D01*
X62744904Y-60542620D01*
X62718393Y-60542619D01*
X62656842Y-60536000D01*
X62609000Y-60536000D01*
X62608947Y-60536052D01*
X62589313Y-60602916D01*
X62559383Y-60635087D01*
X62558384Y-60635836D01*
X62492938Y-60660301D01*
X62424654Y-60645500D01*
X62409664Y-60635872D01*
X62408664Y-60635123D01*
X62366807Y-60579178D01*
X62359027Y-60536027D01*
X62359000Y-60536000D01*
X62311166Y-60536000D01*
X62249595Y-60542619D01*
X62223088Y-60542619D01*
X62213818Y-60541622D01*
X62156873Y-60535500D01*
X62156865Y-60535500D01*
X61811130Y-60535500D01*
X61811120Y-60535501D01*
X61747248Y-60542367D01*
X61720742Y-60542367D01*
X61716483Y-60541909D01*
X61656873Y-60535500D01*
X61656865Y-60535500D01*
X61311130Y-60535500D01*
X61311123Y-60535501D01*
X61251516Y-60541908D01*
X61116671Y-60592202D01*
X61116664Y-60592206D01*
X61001455Y-60678452D01*
X61001452Y-60678455D01*
X60915206Y-60793664D01*
X60915202Y-60793671D01*
X60864908Y-60928517D01*
X60859105Y-60982498D01*
X60858501Y-60988123D01*
X60858500Y-60988135D01*
X60858500Y-61275546D01*
X60838815Y-61342585D01*
X60822181Y-61363227D01*
X60355228Y-61830181D01*
X60293905Y-61863666D01*
X60267547Y-61866500D01*
X58119094Y-61866500D01*
X58103473Y-61864775D01*
X58103447Y-61865061D01*
X58095684Y-61864326D01*
X58027504Y-61866469D01*
X58025557Y-61866500D01*
X57997000Y-61866500D01*
X57990117Y-61867369D01*
X57984300Y-61867826D01*
X57937724Y-61869290D01*
X57918480Y-61874881D01*
X57899430Y-61878825D01*
X57879562Y-61881334D01*
X57836235Y-61898488D01*
X57830709Y-61900379D01*
X57785965Y-61913379D01*
X57785961Y-61913381D01*
X57768717Y-61923579D01*
X57751256Y-61932133D01*
X57732625Y-61939510D01*
X57732613Y-61939517D01*
X57694921Y-61966902D01*
X57690038Y-61970109D01*
X57649931Y-61993829D01*
X57635765Y-62007995D01*
X57620975Y-62020627D01*
X57604765Y-62032404D01*
X57604762Y-62032407D01*
X57575061Y-62068309D01*
X57571128Y-62072631D01*
X57404991Y-62238768D01*
X57343668Y-62272252D01*
X57273976Y-62267268D01*
X57218043Y-62225396D01*
X57197535Y-62183177D01*
X57188143Y-62148123D01*
X57189807Y-62078274D01*
X57220235Y-62028353D01*
X59849271Y-59399319D01*
X59910595Y-59365834D01*
X59936953Y-59363000D01*
X61274757Y-59363000D01*
X61290377Y-59364724D01*
X61290404Y-59364439D01*
X61298166Y-59365173D01*
X61298166Y-59365172D01*
X61298167Y-59365173D01*
X61301499Y-59365068D01*
X61366347Y-59363031D01*
X61368294Y-59363000D01*
X61396847Y-59363000D01*
X61396850Y-59363000D01*
X61403728Y-59362130D01*
X61409541Y-59361672D01*
X61456127Y-59360209D01*
X61475369Y-59354617D01*
X61494412Y-59350674D01*
X61514292Y-59348164D01*
X61557622Y-59331007D01*
X61563146Y-59329117D01*
X61566896Y-59328027D01*
X61607890Y-59316118D01*
X61625129Y-59305922D01*
X61642603Y-59297362D01*
X61661229Y-59289987D01*
X61661228Y-59289987D01*
X61661232Y-59289986D01*
X61663736Y-59288166D01*
X61666032Y-59287347D01*
X61668066Y-59286229D01*
X61668246Y-59286557D01*
X61729540Y-59264683D01*
X61797595Y-59280503D01*
G37*
%TD.AperFunction*%
%TA.AperFunction,Conductor*%
G36*
X70807703Y-70041739D02*
G01*
X70814181Y-70047771D01*
X71744729Y-70978319D01*
X71778214Y-71039642D01*
X71773230Y-71109334D01*
X71731358Y-71165267D01*
X71665894Y-71189684D01*
X71657048Y-71190000D01*
X71624000Y-71190000D01*
X71624000Y-72316000D01*
X71604315Y-72383039D01*
X71551511Y-72428794D01*
X71500000Y-72440000D01*
X70149001Y-72440000D01*
X70149001Y-72489986D01*
X70159494Y-72592697D01*
X70214641Y-72759119D01*
X70214643Y-72759124D01*
X70306684Y-72908345D01*
X70430655Y-73032316D01*
X70430659Y-73032319D01*
X70433656Y-73034168D01*
X70435279Y-73035972D01*
X70436323Y-73036798D01*
X70436181Y-73036976D01*
X70480381Y-73086116D01*
X70491602Y-73155079D01*
X70463759Y-73219161D01*
X70433661Y-73245241D01*
X70430349Y-73247283D01*
X70430343Y-73247288D01*
X70306288Y-73371343D01*
X70306285Y-73371347D01*
X70286780Y-73402969D01*
X70234831Y-73449693D01*
X70189030Y-73461625D01*
X70044862Y-73470696D01*
X70044859Y-73470696D01*
X69894558Y-73519533D01*
X69761123Y-73604214D01*
X69652937Y-73719419D01*
X69652934Y-73719422D01*
X69576804Y-73857904D01*
X69576801Y-73857912D01*
X69537500Y-74010978D01*
X69537500Y-74109016D01*
X69535973Y-74128413D01*
X69535787Y-74129588D01*
X69532840Y-74148194D01*
X69532840Y-74148195D01*
X69537225Y-74194583D01*
X69537500Y-74200421D01*
X69537500Y-75539781D01*
X69517815Y-75606820D01*
X69465011Y-75652575D01*
X69395853Y-75662519D01*
X69350379Y-75646513D01*
X69244196Y-75583717D01*
X69244193Y-75583716D01*
X69086494Y-75537900D01*
X69086497Y-75537900D01*
X69084000Y-75537703D01*
X69084000Y-77186000D01*
X69064315Y-77253039D01*
X69011511Y-77298794D01*
X68960000Y-77310000D01*
X68708000Y-77310000D01*
X68640961Y-77290315D01*
X68595206Y-77237511D01*
X68584000Y-77186000D01*
X68584000Y-75537703D01*
X68581503Y-75537900D01*
X68423806Y-75583716D01*
X68423805Y-75583716D01*
X68376620Y-75611621D01*
X68308895Y-75628802D01*
X68242633Y-75606642D01*
X68198871Y-75552176D01*
X68189500Y-75504888D01*
X68189500Y-73719243D01*
X68209185Y-73652204D01*
X68225814Y-73631567D01*
X69945513Y-71911868D01*
X70006832Y-71878386D01*
X70076524Y-71883370D01*
X70120871Y-71911871D01*
X70149000Y-71940000D01*
X71124000Y-71940000D01*
X71124000Y-71190000D01*
X70849029Y-71190000D01*
X70849012Y-71190001D01*
X70739569Y-71201182D01*
X70739267Y-71198231D01*
X70682551Y-71193873D01*
X70626840Y-71151706D01*
X70602771Y-71086113D01*
X70602500Y-71077923D01*
X70602500Y-71054775D01*
X70604027Y-71035374D01*
X70607160Y-71015596D01*
X70602775Y-70969207D01*
X70602500Y-70963369D01*
X70602500Y-70135452D01*
X70622185Y-70068413D01*
X70674989Y-70022658D01*
X70744147Y-70012714D01*
X70807703Y-70041739D01*
G37*
%TD.AperFunction*%
%TA.AperFunction,Conductor*%
G36*
X62295472Y-63657376D02*
G01*
X62344168Y-63707480D01*
X62358500Y-63765350D01*
X62358500Y-66372546D01*
X62338815Y-66439585D01*
X62322181Y-66460227D01*
X59916852Y-68865555D01*
X59855529Y-68899040D01*
X59790167Y-68895580D01*
X59682797Y-68860001D01*
X59682795Y-68860000D01*
X59580010Y-68849500D01*
X58529998Y-68849500D01*
X58529980Y-68849501D01*
X58427203Y-68860000D01*
X58427200Y-68860001D01*
X58260668Y-68915185D01*
X58260663Y-68915187D01*
X58111342Y-69007289D01*
X57987289Y-69131342D01*
X57895187Y-69280663D01*
X57895185Y-69280668D01*
X57857795Y-69393504D01*
X57818022Y-69450949D01*
X57753506Y-69477772D01*
X57740089Y-69478500D01*
X57155227Y-69478500D01*
X57088188Y-69458815D01*
X57053652Y-69425623D01*
X56918494Y-69232597D01*
X56751402Y-69065506D01*
X56751401Y-69065505D01*
X56565842Y-68935575D01*
X56565841Y-68935574D01*
X56522216Y-68880997D01*
X56515024Y-68811498D01*
X56546546Y-68749144D01*
X56565836Y-68732428D01*
X56751401Y-68602495D01*
X56918495Y-68435401D01*
X57054035Y-68241830D01*
X57153903Y-68027663D01*
X57215063Y-67799408D01*
X57235659Y-67564000D01*
X57215063Y-67328592D01*
X57191118Y-67239228D01*
X57188143Y-67228125D01*
X57189806Y-67158276D01*
X57220235Y-67108353D01*
X58549787Y-65778802D01*
X58562042Y-65768986D01*
X58561859Y-65768764D01*
X58567868Y-65763791D01*
X58567877Y-65763786D01*
X58614607Y-65714022D01*
X58615846Y-65712743D01*
X58636120Y-65692471D01*
X58640379Y-65686978D01*
X58644152Y-65682561D01*
X58676062Y-65648582D01*
X58685713Y-65631024D01*
X58696396Y-65614761D01*
X58708673Y-65598936D01*
X58727185Y-65556153D01*
X58729738Y-65550941D01*
X58752197Y-65510092D01*
X58757180Y-65490680D01*
X58763481Y-65472280D01*
X58771437Y-65453896D01*
X58778729Y-65407852D01*
X58779906Y-65402171D01*
X58791500Y-65357019D01*
X58791500Y-65336982D01*
X58793027Y-65317582D01*
X58795308Y-65303181D01*
X58796160Y-65297804D01*
X58791775Y-65251415D01*
X58791500Y-65245577D01*
X58791500Y-63868500D01*
X58811185Y-63801461D01*
X58863989Y-63755706D01*
X58915500Y-63744500D01*
X61766257Y-63744500D01*
X61781877Y-63746224D01*
X61781904Y-63745939D01*
X61789666Y-63746673D01*
X61789666Y-63746672D01*
X61789667Y-63746673D01*
X61792999Y-63746568D01*
X61857847Y-63744531D01*
X61859794Y-63744500D01*
X61888347Y-63744500D01*
X61888350Y-63744500D01*
X61895228Y-63743630D01*
X61901041Y-63743172D01*
X61947627Y-63741709D01*
X61966869Y-63736117D01*
X61985912Y-63732174D01*
X62005792Y-63729664D01*
X62049122Y-63712507D01*
X62054646Y-63710617D01*
X62058396Y-63709527D01*
X62099390Y-63697618D01*
X62116629Y-63687422D01*
X62134103Y-63678862D01*
X62152729Y-63671487D01*
X62152730Y-63671487D01*
X62152730Y-63671486D01*
X62152732Y-63671486D01*
X62161612Y-63665033D01*
X62227418Y-63641552D01*
X62295472Y-63657376D01*
G37*
%TD.AperFunction*%
%TA.AperFunction,Conductor*%
G36*
X50358039Y-60094685D02*
G01*
X50403794Y-60147489D01*
X50415000Y-60199000D01*
X50415000Y-61154807D01*
X50436688Y-61194526D01*
X50435627Y-61251719D01*
X50428500Y-61279476D01*
X50428500Y-61299516D01*
X50426973Y-61318915D01*
X50423840Y-61338694D01*
X50423840Y-61338695D01*
X50428225Y-61385083D01*
X50428500Y-61390921D01*
X50428500Y-66364546D01*
X50408815Y-66431585D01*
X50392181Y-66452227D01*
X49605181Y-67239228D01*
X49543858Y-67272713D01*
X49474167Y-67267729D01*
X49418233Y-67225857D01*
X49393816Y-67160393D01*
X49393500Y-67151547D01*
X49393500Y-61269000D01*
X49413185Y-61201961D01*
X49465989Y-61156206D01*
X49517500Y-61145000D01*
X49915000Y-61145000D01*
X49915000Y-60199000D01*
X49934685Y-60131961D01*
X49987489Y-60086206D01*
X50039000Y-60075000D01*
X50291000Y-60075000D01*
X50358039Y-60094685D01*
G37*
%TD.AperFunction*%
%TA.AperFunction,Conductor*%
G36*
X52913014Y-55509185D02*
G01*
X52958769Y-55561989D01*
X52968713Y-55631147D01*
X52939688Y-55694703D01*
X52896413Y-55726778D01*
X52891876Y-55728797D01*
X52887267Y-55730850D01*
X52887265Y-55730851D01*
X52734129Y-55842111D01*
X52607466Y-55982785D01*
X52512821Y-56146715D01*
X52512818Y-56146722D01*
X52457201Y-56317895D01*
X52454326Y-56326744D01*
X52447437Y-56392294D01*
X52434565Y-56514766D01*
X52434540Y-56515000D01*
X52454326Y-56703256D01*
X52454327Y-56703259D01*
X52512818Y-56883277D01*
X52512821Y-56883284D01*
X52607467Y-57047216D01*
X52702282Y-57152518D01*
X52734129Y-57187888D01*
X52887265Y-57299148D01*
X52887270Y-57299151D01*
X53060192Y-57376142D01*
X53060197Y-57376144D01*
X53245354Y-57415500D01*
X53245355Y-57415500D01*
X53352500Y-57415500D01*
X53419539Y-57435185D01*
X53465294Y-57487989D01*
X53476500Y-57539500D01*
X53476500Y-65175000D01*
X53456815Y-65242039D01*
X53404011Y-65287794D01*
X53352500Y-65299000D01*
X53082000Y-65299000D01*
X53082000Y-66425000D01*
X53062315Y-66492039D01*
X53009511Y-66537794D01*
X52958000Y-66549000D01*
X52706000Y-66549000D01*
X52638961Y-66529315D01*
X52593206Y-66476511D01*
X52582000Y-66425000D01*
X52582000Y-65299000D01*
X52307029Y-65299000D01*
X52307010Y-65299001D01*
X52266100Y-65303181D01*
X52197407Y-65290411D01*
X52146523Y-65242530D01*
X52129500Y-65179826D01*
X52129500Y-61855347D01*
X52149185Y-61788308D01*
X52165819Y-61767666D01*
X52320886Y-61612599D01*
X52522786Y-61410698D01*
X52535048Y-61400876D01*
X52534865Y-61400655D01*
X52540873Y-61395684D01*
X52540877Y-61395682D01*
X52587649Y-61345873D01*
X52588891Y-61344593D01*
X52609120Y-61324366D01*
X52613373Y-61318882D01*
X52617150Y-61314459D01*
X52649062Y-61280478D01*
X52658714Y-61262919D01*
X52669389Y-61246668D01*
X52681674Y-61230832D01*
X52700186Y-61188048D01*
X52702742Y-61182831D01*
X52725197Y-61141988D01*
X52730180Y-61122576D01*
X52736477Y-61104187D01*
X52744438Y-61085791D01*
X52751729Y-61039749D01*
X52752908Y-61034058D01*
X52764500Y-60988915D01*
X52764500Y-60968878D01*
X52766027Y-60949478D01*
X52769160Y-60929700D01*
X52764775Y-60883311D01*
X52764500Y-60877473D01*
X52764500Y-59209237D01*
X52766224Y-59193623D01*
X52765938Y-59193596D01*
X52766672Y-59185833D01*
X52764531Y-59117670D01*
X52764500Y-59115723D01*
X52764500Y-59087151D01*
X52764500Y-59087150D01*
X52763629Y-59080259D01*
X52763172Y-59074445D01*
X52761709Y-59027874D01*
X52761709Y-59027872D01*
X52756120Y-59008637D01*
X52752174Y-58989584D01*
X52749664Y-58969708D01*
X52732501Y-58926359D01*
X52730614Y-58920846D01*
X52717617Y-58876110D01*
X52717616Y-58876108D01*
X52707421Y-58858869D01*
X52698860Y-58841393D01*
X52691486Y-58822769D01*
X52691486Y-58822767D01*
X52681474Y-58808988D01*
X52664083Y-58785050D01*
X52660900Y-58780205D01*
X52637170Y-58740079D01*
X52637165Y-58740073D01*
X52623005Y-58725913D01*
X52610370Y-58711120D01*
X52598593Y-58694912D01*
X52562693Y-58665213D01*
X52558381Y-58661290D01*
X51654318Y-57757227D01*
X51620833Y-57695904D01*
X51617999Y-57669546D01*
X51617999Y-57417129D01*
X51617998Y-57417123D01*
X51617954Y-57416716D01*
X51611591Y-57357517D01*
X51602490Y-57333115D01*
X51561297Y-57222670D01*
X51557047Y-57214888D01*
X51558679Y-57213996D01*
X51538108Y-57158860D01*
X51552952Y-57090585D01*
X51560311Y-57079133D01*
X51561297Y-57077329D01*
X51592689Y-56993161D01*
X51611591Y-56942483D01*
X51618000Y-56882873D01*
X51617999Y-56147128D01*
X51611591Y-56087517D01*
X51605635Y-56071547D01*
X51602897Y-56064206D01*
X51597912Y-55994515D01*
X51631393Y-55933195D01*
X52038770Y-55525819D01*
X52100094Y-55492334D01*
X52126452Y-55489500D01*
X52845975Y-55489500D01*
X52913014Y-55509185D01*
G37*
%TD.AperFunction*%
%TA.AperFunction,Conductor*%
G36*
X79327539Y-51408184D02*
G01*
X79373294Y-51460988D01*
X79384500Y-51512499D01*
X79384500Y-57601547D01*
X79364815Y-57668586D01*
X79348181Y-57689228D01*
X78241227Y-58796181D01*
X78179904Y-58829666D01*
X78153546Y-58832500D01*
X75541129Y-58832500D01*
X75541123Y-58832501D01*
X75481516Y-58838908D01*
X75346671Y-58889202D01*
X75346664Y-58889206D01*
X75231455Y-58975452D01*
X75231452Y-58975455D01*
X75145206Y-59090664D01*
X75145202Y-59090671D01*
X75094908Y-59225517D01*
X75088501Y-59285116D01*
X75088500Y-59285135D01*
X75088500Y-60083500D01*
X75068815Y-60150539D01*
X75016011Y-60196294D01*
X74964500Y-60207500D01*
X73107737Y-60207500D01*
X73092120Y-60205776D01*
X73092093Y-60206062D01*
X73084331Y-60205327D01*
X73016171Y-60207469D01*
X73014224Y-60207500D01*
X72985650Y-60207500D01*
X72984929Y-60207590D01*
X72978757Y-60208369D01*
X72972945Y-60208826D01*
X72926373Y-60210290D01*
X72926372Y-60210290D01*
X72907129Y-60215881D01*
X72888079Y-60219825D01*
X72868211Y-60222334D01*
X72868209Y-60222335D01*
X72824884Y-60239488D01*
X72819357Y-60241380D01*
X72774610Y-60254381D01*
X72774609Y-60254382D01*
X72757367Y-60264579D01*
X72739899Y-60273137D01*
X72721269Y-60280513D01*
X72721267Y-60280514D01*
X72683576Y-60307898D01*
X72678694Y-60311105D01*
X72638579Y-60334830D01*
X72624408Y-60349000D01*
X72609623Y-60361628D01*
X72593412Y-60373407D01*
X72563709Y-60409310D01*
X72559777Y-60413631D01*
X70814181Y-62159227D01*
X70752858Y-62192712D01*
X70683166Y-62187728D01*
X70627233Y-62145856D01*
X70602816Y-62080392D01*
X70602500Y-62071546D01*
X70602500Y-60051055D01*
X70622185Y-59984016D01*
X70674989Y-59938261D01*
X70700720Y-59929765D01*
X70764803Y-59916144D01*
X70764806Y-59916142D01*
X70764808Y-59916142D01*
X70856092Y-59875499D01*
X70937730Y-59839151D01*
X71090871Y-59727888D01*
X71217533Y-59587216D01*
X71312179Y-59423284D01*
X71370674Y-59243256D01*
X71390460Y-59055000D01*
X71370674Y-58866744D01*
X71312179Y-58686716D01*
X71217533Y-58522784D01*
X71199693Y-58502971D01*
X71169464Y-58439981D01*
X71178089Y-58370646D01*
X71199694Y-58337028D01*
X71217533Y-58317216D01*
X71312179Y-58153284D01*
X71370674Y-57973256D01*
X71390460Y-57785000D01*
X71370674Y-57596744D01*
X71312179Y-57416716D01*
X71217533Y-57252784D01*
X71090871Y-57112112D01*
X71061242Y-57090585D01*
X70937734Y-57000851D01*
X70937729Y-57000848D01*
X70764807Y-56923857D01*
X70764802Y-56923855D01*
X70619001Y-56892865D01*
X70579646Y-56884500D01*
X70390354Y-56884500D01*
X70357897Y-56891398D01*
X70205197Y-56923855D01*
X70205192Y-56923857D01*
X70032270Y-57000848D01*
X70032265Y-57000851D01*
X69879135Y-57112106D01*
X69879123Y-57112117D01*
X69872319Y-57119673D01*
X69812830Y-57156318D01*
X69742973Y-57154983D01*
X69688025Y-57119667D01*
X69681222Y-57112112D01*
X69566871Y-56985112D01*
X69553706Y-56975547D01*
X69413734Y-56873851D01*
X69413729Y-56873848D01*
X69240807Y-56796857D01*
X69240802Y-56796855D01*
X69071651Y-56760902D01*
X69055646Y-56757500D01*
X68866354Y-56757500D01*
X68850349Y-56760902D01*
X68681197Y-56796855D01*
X68681192Y-56796857D01*
X68508270Y-56873848D01*
X68508265Y-56873851D01*
X68355129Y-56985111D01*
X68228466Y-57125785D01*
X68133821Y-57289715D01*
X68133818Y-57289722D01*
X68075327Y-57469740D01*
X68075326Y-57469744D01*
X68055540Y-57658000D01*
X68075326Y-57846256D01*
X68075327Y-57846259D01*
X68090248Y-57892182D01*
X68092243Y-57962024D01*
X68056162Y-58021856D01*
X67993461Y-58052684D01*
X67972317Y-58054500D01*
X67213450Y-58054500D01*
X67146411Y-58034815D01*
X67100656Y-57982011D01*
X67090712Y-57912853D01*
X67119737Y-57849297D01*
X67125753Y-57842835D01*
X71220771Y-53747819D01*
X71282095Y-53714334D01*
X71308453Y-53711500D01*
X76117257Y-53711500D01*
X76132877Y-53713224D01*
X76132904Y-53712939D01*
X76140662Y-53713672D01*
X76140662Y-53713671D01*
X76140667Y-53713673D01*
X76162178Y-53712996D01*
X76229801Y-53730563D01*
X76277193Y-53781903D01*
X76289306Y-53850714D01*
X76262294Y-53915151D01*
X76225501Y-53945767D01*
X76004961Y-54066191D01*
X76004953Y-54066196D01*
X75862437Y-54172882D01*
X75862436Y-54172883D01*
X76755252Y-55065699D01*
X76745591Y-55069216D01*
X76597156Y-55166843D01*
X76475236Y-55296070D01*
X76403231Y-55420784D01*
X75508883Y-54526436D01*
X75508882Y-54526437D01*
X75402196Y-54668953D01*
X75402191Y-54668961D01*
X75265091Y-54920041D01*
X75165109Y-55188104D01*
X75104300Y-55467637D01*
X75083891Y-55752998D01*
X75083891Y-55753001D01*
X75104300Y-56038362D01*
X75165109Y-56317895D01*
X75265091Y-56585958D01*
X75402191Y-56837038D01*
X75402196Y-56837046D01*
X75508882Y-56979561D01*
X75508883Y-56979562D01*
X76404195Y-56084250D01*
X76426340Y-56135587D01*
X76532433Y-56278094D01*
X76668530Y-56392294D01*
X76758216Y-56437335D01*
X75862436Y-57333115D01*
X76004960Y-57439807D01*
X76004961Y-57439808D01*
X76256042Y-57576908D01*
X76256041Y-57576908D01*
X76524104Y-57676890D01*
X76803637Y-57737699D01*
X77088999Y-57758109D01*
X77089001Y-57758109D01*
X77374362Y-57737699D01*
X77653895Y-57676890D01*
X77921958Y-57576908D01*
X78173047Y-57439803D01*
X78315561Y-57333116D01*
X78315562Y-57333115D01*
X77422748Y-56440300D01*
X77432409Y-56436784D01*
X77580844Y-56339157D01*
X77702764Y-56209930D01*
X77774768Y-56085215D01*
X78669115Y-56979562D01*
X78669116Y-56979561D01*
X78775803Y-56837047D01*
X78912908Y-56585958D01*
X79012890Y-56317895D01*
X79073699Y-56038362D01*
X79094109Y-55753001D01*
X79094109Y-55752998D01*
X79073699Y-55467637D01*
X79012890Y-55188104D01*
X78912908Y-54920041D01*
X78775808Y-54668961D01*
X78775807Y-54668960D01*
X78669115Y-54526436D01*
X77773803Y-55421747D01*
X77751660Y-55370413D01*
X77645567Y-55227906D01*
X77509470Y-55113706D01*
X77419782Y-55068663D01*
X78315562Y-54172883D01*
X78315561Y-54172882D01*
X78173046Y-54066196D01*
X78173038Y-54066191D01*
X77921957Y-53929091D01*
X77921958Y-53929091D01*
X77653895Y-53829109D01*
X77374362Y-53768300D01*
X77089001Y-53747891D01*
X77088999Y-53747891D01*
X76803637Y-53768300D01*
X76703362Y-53790114D01*
X76633670Y-53785130D01*
X76577737Y-53743258D01*
X76553320Y-53677794D01*
X76568172Y-53609521D01*
X76589315Y-53581275D01*
X76590370Y-53580219D01*
X76600582Y-53570007D01*
X76615379Y-53557368D01*
X76631587Y-53545594D01*
X76661299Y-53509676D01*
X76665212Y-53505376D01*
X78745771Y-51424818D01*
X78807094Y-51391333D01*
X78833452Y-51388499D01*
X79260500Y-51388499D01*
X79327539Y-51408184D01*
G37*
%TD.AperFunction*%
%TA.AperFunction,Conductor*%
G36*
X61801539Y-53604185D02*
G01*
X61847294Y-53656989D01*
X61858500Y-53708500D01*
X61858500Y-54229814D01*
X61838815Y-54296853D01*
X61786011Y-54342608D01*
X61716853Y-54352552D01*
X61673572Y-54335005D01*
X61672363Y-54337101D01*
X61666729Y-54333848D01*
X61493807Y-54256857D01*
X61493802Y-54256855D01*
X61348001Y-54225865D01*
X61308646Y-54217500D01*
X61119354Y-54217500D01*
X61086897Y-54224398D01*
X60934197Y-54256855D01*
X60934192Y-54256857D01*
X60761270Y-54333848D01*
X60761265Y-54333851D01*
X60608129Y-54445111D01*
X60481466Y-54585785D01*
X60386821Y-54749715D01*
X60386818Y-54749722D01*
X60329692Y-54925539D01*
X60328326Y-54929744D01*
X60320626Y-55003004D01*
X60313410Y-55071661D01*
X60286825Y-55136276D01*
X60240526Y-55171978D01*
X60126267Y-55222850D01*
X60126265Y-55222851D01*
X59973129Y-55334111D01*
X59846466Y-55474785D01*
X59751821Y-55638715D01*
X59751818Y-55638722D01*
X59693327Y-55818740D01*
X59693326Y-55818744D01*
X59679130Y-55953818D01*
X59673757Y-56004940D01*
X59673540Y-56007000D01*
X59693326Y-56195256D01*
X59693327Y-56195259D01*
X59751818Y-56375277D01*
X59751823Y-56375289D01*
X59809103Y-56474501D01*
X59825576Y-56542401D01*
X59802723Y-56608428D01*
X59747802Y-56651618D01*
X59701716Y-56660500D01*
X58620743Y-56660500D01*
X58605122Y-56658775D01*
X58605095Y-56659061D01*
X58597333Y-56658326D01*
X58529140Y-56660469D01*
X58527193Y-56660500D01*
X58498649Y-56660500D01*
X58491778Y-56661367D01*
X58485959Y-56661825D01*
X58439374Y-56663289D01*
X58439368Y-56663290D01*
X58420126Y-56668880D01*
X58401087Y-56672823D01*
X58381217Y-56675334D01*
X58381203Y-56675337D01*
X58337883Y-56692488D01*
X58332358Y-56694380D01*
X58287613Y-56707380D01*
X58287610Y-56707381D01*
X58270366Y-56717579D01*
X58252905Y-56726133D01*
X58234274Y-56733510D01*
X58234262Y-56733517D01*
X58196570Y-56760902D01*
X58191687Y-56764109D01*
X58151580Y-56787829D01*
X58137414Y-56801995D01*
X58122624Y-56814627D01*
X58106414Y-56826404D01*
X58106411Y-56826407D01*
X58076710Y-56862309D01*
X58072777Y-56866631D01*
X57321727Y-57617681D01*
X57260404Y-57651166D01*
X57234046Y-57654000D01*
X56313686Y-57654000D01*
X56339493Y-57613844D01*
X56380000Y-57475889D01*
X56380000Y-57332111D01*
X56339493Y-57194156D01*
X56313686Y-57154000D01*
X57210636Y-57154000D01*
X57210635Y-57153999D01*
X57153432Y-56940513D01*
X57153429Y-56940507D01*
X57053600Y-56726422D01*
X57053599Y-56726420D01*
X56918113Y-56532926D01*
X56918108Y-56532920D01*
X56796053Y-56410865D01*
X56762568Y-56349542D01*
X56767552Y-56279850D01*
X56809424Y-56223917D01*
X56840400Y-56207002D01*
X56972331Y-56157796D01*
X57087546Y-56071546D01*
X57173796Y-55956331D01*
X57224091Y-55821483D01*
X57230500Y-55761873D01*
X57230499Y-54449452D01*
X57250184Y-54382414D01*
X57266818Y-54361772D01*
X58007772Y-53620819D01*
X58069095Y-53587334D01*
X58095453Y-53584500D01*
X61734500Y-53584500D01*
X61801539Y-53604185D01*
G37*
%TD.AperFunction*%
%TA.AperFunction,Conductor*%
G36*
X48703729Y-39712176D02*
G01*
X48735822Y-39767762D01*
X48746423Y-39807326D01*
X48746424Y-39807329D01*
X48838897Y-40005638D01*
X48857514Y-40032225D01*
X48964402Y-40184877D01*
X49119123Y-40339598D01*
X49298361Y-40465102D01*
X49496670Y-40557575D01*
X49708023Y-40614207D01*
X49890926Y-40630208D01*
X49925998Y-40633277D01*
X49926000Y-40633277D01*
X49926002Y-40633277D01*
X49954254Y-40630805D01*
X50143977Y-40614207D01*
X50355330Y-40557575D01*
X50553639Y-40465102D01*
X50732877Y-40339598D01*
X50887598Y-40184877D01*
X51013102Y-40005639D01*
X51077618Y-39867285D01*
X51102887Y-39813095D01*
X51149059Y-39760656D01*
X51215269Y-39741500D01*
X51574500Y-39741500D01*
X51641539Y-39761185D01*
X51687294Y-39813989D01*
X51698500Y-39865500D01*
X51698500Y-45651483D01*
X51678815Y-45718522D01*
X51626011Y-45764277D01*
X51613510Y-45769186D01*
X51554666Y-45788685D01*
X51554666Y-45788686D01*
X51554663Y-45788687D01*
X51405342Y-45880789D01*
X51281289Y-46004842D01*
X51189187Y-46154163D01*
X51189185Y-46154168D01*
X51173583Y-46201252D01*
X51134001Y-46320703D01*
X51134001Y-46320704D01*
X51134000Y-46320704D01*
X51123500Y-46423483D01*
X51123500Y-47048501D01*
X51123501Y-47048519D01*
X51134000Y-47151296D01*
X51134001Y-47151299D01*
X51189185Y-47317831D01*
X51189187Y-47317836D01*
X51210084Y-47351715D01*
X51281288Y-47467156D01*
X51374953Y-47560821D01*
X51408436Y-47622140D01*
X51403452Y-47691832D01*
X51374952Y-47736180D01*
X51281287Y-47829845D01*
X51189187Y-47979163D01*
X51189185Y-47979166D01*
X51189186Y-47979166D01*
X51134001Y-48145703D01*
X51134001Y-48145704D01*
X51134000Y-48145704D01*
X51123500Y-48248483D01*
X51123500Y-48873501D01*
X51123501Y-48873519D01*
X51134000Y-48976296D01*
X51134001Y-48976299D01*
X51189185Y-49142831D01*
X51189187Y-49142836D01*
X51206424Y-49170782D01*
X51281288Y-49292156D01*
X51405344Y-49416212D01*
X51554666Y-49508314D01*
X51721203Y-49563499D01*
X51823991Y-49574000D01*
X52824008Y-49573999D01*
X52824016Y-49573998D01*
X52824019Y-49573998D01*
X52880302Y-49568248D01*
X52926797Y-49563499D01*
X53093334Y-49508314D01*
X53242656Y-49416212D01*
X53242659Y-49416209D01*
X53248061Y-49411938D01*
X53312856Y-49385796D01*
X53381498Y-49398836D01*
X53406460Y-49417012D01*
X53406681Y-49416734D01*
X53412341Y-49421209D01*
X53412344Y-49421212D01*
X53561666Y-49513314D01*
X53728203Y-49568499D01*
X53830991Y-49579000D01*
X54420547Y-49578999D01*
X54487586Y-49598683D01*
X54508227Y-49615317D01*
X57288479Y-52395570D01*
X57321963Y-52456891D01*
X57316979Y-52526583D01*
X57288478Y-52570930D01*
X56382227Y-53477181D01*
X56320904Y-53510666D01*
X56294546Y-53513500D01*
X54982129Y-53513500D01*
X54982123Y-53513501D01*
X54922516Y-53519908D01*
X54787671Y-53570202D01*
X54787664Y-53570206D01*
X54672455Y-53656452D01*
X54672452Y-53656455D01*
X54586206Y-53771664D01*
X54586202Y-53771671D01*
X54535908Y-53906517D01*
X54529501Y-53966116D01*
X54529500Y-53966135D01*
X54529500Y-54114500D01*
X54509815Y-54181539D01*
X54457011Y-54227294D01*
X54405500Y-54238500D01*
X53292499Y-54238500D01*
X53225460Y-54218815D01*
X53179705Y-54166011D01*
X53169714Y-54120087D01*
X53168659Y-54120141D01*
X53168498Y-54116981D01*
X53157999Y-54014203D01*
X53157998Y-54014200D01*
X53142068Y-53966127D01*
X53102814Y-53847666D01*
X53010712Y-53698344D01*
X52886656Y-53574288D01*
X52883342Y-53572243D01*
X52881546Y-53570248D01*
X52880989Y-53569807D01*
X52881064Y-53569711D01*
X52836618Y-53520297D01*
X52825397Y-53451334D01*
X52853240Y-53387252D01*
X52883348Y-53361165D01*
X52886342Y-53359318D01*
X53010315Y-53235345D01*
X53102356Y-53086124D01*
X53102358Y-53086119D01*
X53157505Y-52919697D01*
X53157506Y-52919690D01*
X53167999Y-52816986D01*
X53168000Y-52816973D01*
X53168000Y-52767000D01*
X50718001Y-52767000D01*
X50718001Y-52816986D01*
X50728494Y-52919697D01*
X50783641Y-53086119D01*
X50783643Y-53086124D01*
X50875684Y-53235345D01*
X50999655Y-53359316D01*
X50999659Y-53359319D01*
X51002656Y-53361168D01*
X51004279Y-53362972D01*
X51005323Y-53363798D01*
X51005181Y-53363976D01*
X51049381Y-53413116D01*
X51060602Y-53482079D01*
X51032759Y-53546161D01*
X51002661Y-53572241D01*
X50999349Y-53574283D01*
X50999343Y-53574288D01*
X50875289Y-53698342D01*
X50783187Y-53847663D01*
X50783185Y-53847666D01*
X50783186Y-53847666D01*
X50728001Y-54014203D01*
X50728001Y-54014204D01*
X50728000Y-54014204D01*
X50717500Y-54116983D01*
X50717500Y-54717001D01*
X50717501Y-54717019D01*
X50728000Y-54819796D01*
X50728001Y-54819799D01*
X50765571Y-54933176D01*
X50767973Y-55003004D01*
X50735546Y-55059861D01*
X50137226Y-55658181D01*
X50075903Y-55691666D01*
X50049545Y-55694500D01*
X49164629Y-55694500D01*
X49164623Y-55694501D01*
X49105016Y-55700908D01*
X48970171Y-55751202D01*
X48970164Y-55751206D01*
X48854957Y-55837451D01*
X48854952Y-55837455D01*
X48853192Y-55839808D01*
X48850837Y-55841570D01*
X48848680Y-55843728D01*
X48848369Y-55843417D01*
X48797260Y-55881681D01*
X48753923Y-55889500D01*
X48697453Y-55889500D01*
X48630414Y-55869815D01*
X48609772Y-55853181D01*
X47920256Y-55163665D01*
X47886771Y-55102342D01*
X47891755Y-55032650D01*
X47933627Y-54976717D01*
X47999091Y-54952300D01*
X48067364Y-54967152D01*
X48073034Y-54970446D01*
X48132869Y-55007353D01*
X48132880Y-55007358D01*
X48299302Y-55062505D01*
X48299309Y-55062506D01*
X48402019Y-55072999D01*
X48451998Y-55072998D01*
X48451999Y-55072998D01*
X48452000Y-54098000D01*
X48952000Y-54098000D01*
X48952000Y-55072999D01*
X49001972Y-55072999D01*
X49001986Y-55072998D01*
X49104697Y-55062505D01*
X49271119Y-55007358D01*
X49271124Y-55007356D01*
X49420345Y-54915315D01*
X49544315Y-54791345D01*
X49636356Y-54642124D01*
X49636358Y-54642119D01*
X49691505Y-54475697D01*
X49691506Y-54475690D01*
X49701999Y-54372986D01*
X49702000Y-54372973D01*
X49702000Y-54098000D01*
X48952000Y-54098000D01*
X48452000Y-54098000D01*
X48451999Y-52623000D01*
X48952000Y-52623000D01*
X48952000Y-53598000D01*
X49701999Y-53598000D01*
X49701999Y-53323028D01*
X49701998Y-53323013D01*
X49691505Y-53220302D01*
X49636358Y-53053880D01*
X49636356Y-53053875D01*
X49544315Y-52904654D01*
X49420345Y-52780684D01*
X49271124Y-52688643D01*
X49271119Y-52688641D01*
X49104697Y-52633494D01*
X49104690Y-52633493D01*
X49001986Y-52623000D01*
X48952000Y-52623000D01*
X48451999Y-52623000D01*
X48451998Y-52622999D01*
X48402029Y-52623000D01*
X48402011Y-52623001D01*
X48299302Y-52633494D01*
X48132880Y-52688641D01*
X48132875Y-52688643D01*
X47983654Y-52780684D01*
X47859683Y-52904655D01*
X47859679Y-52904660D01*
X47857826Y-52907665D01*
X47856018Y-52909290D01*
X47855202Y-52910323D01*
X47855025Y-52910183D01*
X47805874Y-52954385D01*
X47736911Y-52965601D01*
X47672831Y-52937752D01*
X47646753Y-52907653D01*
X47646737Y-52907628D01*
X47644712Y-52904344D01*
X47520656Y-52780288D01*
X47371334Y-52688186D01*
X47204797Y-52633001D01*
X47204796Y-52633000D01*
X47201996Y-52632073D01*
X47144551Y-52592300D01*
X47117728Y-52527784D01*
X47117000Y-52514367D01*
X47117000Y-52267000D01*
X50718000Y-52267000D01*
X51693000Y-52267000D01*
X51693000Y-51517000D01*
X52193000Y-51517000D01*
X52193000Y-52267000D01*
X53167999Y-52267000D01*
X53167999Y-52217028D01*
X53167998Y-52217013D01*
X53157505Y-52114302D01*
X53102358Y-51947880D01*
X53102356Y-51947875D01*
X53010315Y-51798654D01*
X52886345Y-51674684D01*
X52737124Y-51582643D01*
X52737119Y-51582641D01*
X52570697Y-51527494D01*
X52570690Y-51527493D01*
X52467986Y-51517000D01*
X52193000Y-51517000D01*
X51693000Y-51517000D01*
X51418029Y-51517000D01*
X51418012Y-51517001D01*
X51315302Y-51527494D01*
X51148880Y-51582641D01*
X51148875Y-51582643D01*
X50999654Y-51674684D01*
X50875684Y-51798654D01*
X50783643Y-51947875D01*
X50783641Y-51947880D01*
X50728494Y-52114302D01*
X50728493Y-52114309D01*
X50718000Y-52217013D01*
X50718000Y-52267000D01*
X47117000Y-52267000D01*
X47117000Y-49170782D01*
X47136685Y-49103743D01*
X47189489Y-49057988D01*
X47258647Y-49048044D01*
X47269924Y-49050927D01*
X47270070Y-49050313D01*
X47277627Y-49052098D01*
X47337155Y-49058499D01*
X47337172Y-49058500D01*
X48010000Y-49058500D01*
X48009999Y-47910553D01*
X48043846Y-47931136D01*
X48186122Y-47971000D01*
X48296764Y-47971000D01*
X48406379Y-47955934D01*
X48510000Y-47910925D01*
X48510000Y-49058500D01*
X49182828Y-49058500D01*
X49182844Y-49058499D01*
X49242372Y-49052098D01*
X49242379Y-49052096D01*
X49377086Y-49001854D01*
X49377093Y-49001850D01*
X49492187Y-48915690D01*
X49492190Y-48915687D01*
X49578350Y-48800593D01*
X49578354Y-48800586D01*
X49628596Y-48665879D01*
X49628598Y-48665872D01*
X49634999Y-48606344D01*
X49635000Y-48606327D01*
X49635000Y-47683500D01*
X48741450Y-47683500D01*
X48741725Y-47683110D01*
X48791205Y-47543886D01*
X48801288Y-47396475D01*
X48771226Y-47251810D01*
X48735831Y-47183500D01*
X49635000Y-47183500D01*
X49635000Y-46260672D01*
X49634999Y-46260655D01*
X49628598Y-46201127D01*
X49628596Y-46201120D01*
X49578354Y-46066413D01*
X49578350Y-46066406D01*
X49492190Y-45951312D01*
X49492187Y-45951309D01*
X49377093Y-45865149D01*
X49377086Y-45865145D01*
X49242379Y-45814903D01*
X49242372Y-45814901D01*
X49182844Y-45808500D01*
X48729424Y-45808500D01*
X48662385Y-45788815D01*
X48616630Y-45736011D01*
X48606686Y-45666853D01*
X48619130Y-45632521D01*
X48617304Y-45631670D01*
X48620358Y-45625119D01*
X48675505Y-45458697D01*
X48675506Y-45458690D01*
X48685999Y-45355986D01*
X48686000Y-45355973D01*
X48686000Y-45081000D01*
X47560000Y-45081000D01*
X47492961Y-45061315D01*
X47447206Y-45008511D01*
X47436000Y-44957000D01*
X47436000Y-43606000D01*
X47936000Y-43606000D01*
X47936000Y-44581000D01*
X48685999Y-44581000D01*
X48685999Y-44306028D01*
X48685998Y-44306013D01*
X48675505Y-44203302D01*
X48620358Y-44036880D01*
X48620356Y-44036875D01*
X48528315Y-43887654D01*
X48404345Y-43763684D01*
X48255124Y-43671643D01*
X48255119Y-43671641D01*
X48088697Y-43616494D01*
X48088690Y-43616493D01*
X47985986Y-43606000D01*
X47936000Y-43606000D01*
X47436000Y-43606000D01*
X47435999Y-43605999D01*
X47386029Y-43606000D01*
X47386011Y-43606001D01*
X47283303Y-43616494D01*
X47280002Y-43617588D01*
X47277843Y-43617662D01*
X47276681Y-43617911D01*
X47276636Y-43617703D01*
X47210173Y-43619988D01*
X47150132Y-43584255D01*
X47118941Y-43521734D01*
X47117000Y-43499881D01*
X47117000Y-42987118D01*
X47136685Y-42920079D01*
X47189489Y-42874324D01*
X47258647Y-42864380D01*
X47280005Y-42869412D01*
X47283305Y-42870505D01*
X47283309Y-42870506D01*
X47386019Y-42880999D01*
X47435999Y-42880998D01*
X47436000Y-42880998D01*
X47436000Y-41906000D01*
X47936000Y-41906000D01*
X47936000Y-42880999D01*
X47985972Y-42880999D01*
X47985986Y-42880998D01*
X48088697Y-42870505D01*
X48255119Y-42815358D01*
X48255124Y-42815356D01*
X48404345Y-42723315D01*
X48528315Y-42599345D01*
X48620356Y-42450124D01*
X48620358Y-42450119D01*
X48675505Y-42283697D01*
X48675506Y-42283690D01*
X48685999Y-42180986D01*
X48686000Y-42180973D01*
X48686000Y-41906000D01*
X47936000Y-41906000D01*
X47436000Y-41906000D01*
X47436000Y-41530000D01*
X47455685Y-41462961D01*
X47508489Y-41417206D01*
X47560000Y-41406000D01*
X48685999Y-41406000D01*
X48685999Y-41131028D01*
X48685998Y-41131013D01*
X48675505Y-41028302D01*
X48620358Y-40861880D01*
X48620356Y-40861875D01*
X48528316Y-40712656D01*
X48521004Y-40705343D01*
X48487522Y-40644018D01*
X48492509Y-40574327D01*
X48534383Y-40518395D01*
X48556285Y-40505282D01*
X48643389Y-40464665D01*
X48705572Y-40421124D01*
X48060401Y-39775953D01*
X48141148Y-39763165D01*
X48254045Y-39705641D01*
X48343641Y-39616045D01*
X48401165Y-39503148D01*
X48413953Y-39422400D01*
X48703729Y-39712176D01*
G37*
%TD.AperFunction*%
%TA.AperFunction,Conductor*%
G36*
X74418000Y-51368633D02*
G01*
X74631483Y-51311433D01*
X74631492Y-51311429D01*
X74845578Y-51211600D01*
X75039082Y-51076105D01*
X75206105Y-50909082D01*
X75336119Y-50723405D01*
X75390696Y-50679781D01*
X75460195Y-50672588D01*
X75522549Y-50704110D01*
X75539269Y-50723405D01*
X75669505Y-50909401D01*
X75836599Y-51076495D01*
X75905249Y-51124564D01*
X76030165Y-51212032D01*
X76030167Y-51212033D01*
X76030170Y-51212035D01*
X76244337Y-51311903D01*
X76472592Y-51373063D01*
X76660918Y-51389539D01*
X76707999Y-51393659D01*
X76708387Y-51393659D01*
X76708551Y-51393707D01*
X76713394Y-51394131D01*
X76713308Y-51395104D01*
X76775426Y-51413344D01*
X76821181Y-51466148D01*
X76831125Y-51535306D01*
X76802100Y-51598862D01*
X76796068Y-51605340D01*
X75977228Y-52424181D01*
X75915905Y-52457666D01*
X75889547Y-52460500D01*
X71080737Y-52460500D01*
X71065120Y-52458776D01*
X71065093Y-52459062D01*
X71057331Y-52458327D01*
X70989171Y-52460469D01*
X70987224Y-52460500D01*
X70958650Y-52460500D01*
X70957929Y-52460590D01*
X70951757Y-52461369D01*
X70945945Y-52461826D01*
X70899378Y-52463290D01*
X70899367Y-52463292D01*
X70880134Y-52468879D01*
X70861094Y-52472822D01*
X70841217Y-52475334D01*
X70841210Y-52475335D01*
X70841208Y-52475336D01*
X70841206Y-52475336D01*
X70841205Y-52475337D01*
X70797868Y-52492494D01*
X70792342Y-52494386D01*
X70747611Y-52507382D01*
X70747608Y-52507383D01*
X70730363Y-52517581D01*
X70712901Y-52526135D01*
X70694272Y-52533511D01*
X70694267Y-52533513D01*
X70656564Y-52560906D01*
X70651682Y-52564112D01*
X70611580Y-52587828D01*
X70597408Y-52602000D01*
X70582623Y-52614628D01*
X70566572Y-52626291D01*
X70566412Y-52626407D01*
X70536709Y-52662310D01*
X70532777Y-52666631D01*
X68273868Y-54925539D01*
X68212545Y-54959024D01*
X68142853Y-54954040D01*
X68086920Y-54912168D01*
X68062503Y-54846704D01*
X68067630Y-54804682D01*
X68067322Y-54804617D01*
X68068066Y-54801114D01*
X68068259Y-54799531D01*
X68068674Y-54798256D01*
X68088460Y-54610000D01*
X68068674Y-54421744D01*
X68010179Y-54241716D01*
X67915533Y-54077784D01*
X67905095Y-54066191D01*
X67840350Y-53994284D01*
X67810120Y-53931292D01*
X67808500Y-53911312D01*
X67808500Y-53295738D01*
X67810224Y-53280124D01*
X67809938Y-53280097D01*
X67810672Y-53272334D01*
X67808531Y-53204171D01*
X67808500Y-53202224D01*
X67808500Y-53173651D01*
X67808500Y-53173650D01*
X67807629Y-53166759D01*
X67807172Y-53160945D01*
X67805709Y-53114372D01*
X67800122Y-53095144D01*
X67796174Y-53076084D01*
X67793663Y-53056204D01*
X67776512Y-53012887D01*
X67774619Y-53007358D01*
X67761618Y-52962609D01*
X67761616Y-52962606D01*
X67751423Y-52945371D01*
X67742861Y-52927894D01*
X67735487Y-52909270D01*
X67734321Y-52907665D01*
X67708079Y-52871545D01*
X67704888Y-52866686D01*
X67703670Y-52864627D01*
X67681170Y-52826580D01*
X67681168Y-52826578D01*
X67681165Y-52826574D01*
X67667006Y-52812415D01*
X67654368Y-52797619D01*
X67642594Y-52781413D01*
X67641235Y-52780289D01*
X67606688Y-52751709D01*
X67602376Y-52747786D01*
X66459931Y-51605340D01*
X66426446Y-51544017D01*
X66431430Y-51474325D01*
X66473302Y-51418392D01*
X66538766Y-51393975D01*
X66547612Y-51393659D01*
X66548001Y-51393659D01*
X66587234Y-51390226D01*
X66783408Y-51373063D01*
X67011663Y-51311903D01*
X67225830Y-51212035D01*
X67419401Y-51076495D01*
X67586495Y-50909401D01*
X67716424Y-50723842D01*
X67771002Y-50680217D01*
X67840500Y-50673023D01*
X67902855Y-50704546D01*
X67919575Y-50723842D01*
X68049281Y-50909082D01*
X68049505Y-50909401D01*
X68216599Y-51076495D01*
X68285249Y-51124564D01*
X68410165Y-51212032D01*
X68410167Y-51212033D01*
X68410170Y-51212035D01*
X68624337Y-51311903D01*
X68852592Y-51373063D01*
X69040918Y-51389539D01*
X69087999Y-51393659D01*
X69088000Y-51393659D01*
X69088001Y-51393659D01*
X69127234Y-51390226D01*
X69323408Y-51373063D01*
X69551663Y-51311903D01*
X69765830Y-51212035D01*
X69959401Y-51076495D01*
X70126495Y-50909401D01*
X70256424Y-50723842D01*
X70311002Y-50680217D01*
X70380500Y-50673023D01*
X70442855Y-50704546D01*
X70459575Y-50723842D01*
X70589281Y-50909082D01*
X70589505Y-50909401D01*
X70756599Y-51076495D01*
X70825249Y-51124564D01*
X70950165Y-51212032D01*
X70950167Y-51212033D01*
X70950170Y-51212035D01*
X71164337Y-51311903D01*
X71392592Y-51373063D01*
X71580918Y-51389539D01*
X71627999Y-51393659D01*
X71628000Y-51393659D01*
X71628001Y-51393659D01*
X71667234Y-51390226D01*
X71863408Y-51373063D01*
X72091663Y-51311903D01*
X72305830Y-51212035D01*
X72499401Y-51076495D01*
X72666495Y-50909401D01*
X72796730Y-50723405D01*
X72851307Y-50679781D01*
X72920805Y-50672587D01*
X72983160Y-50704110D01*
X72999879Y-50723405D01*
X73129890Y-50909078D01*
X73296917Y-51076105D01*
X73490421Y-51211600D01*
X73704507Y-51311429D01*
X73704516Y-51311433D01*
X73918000Y-51368634D01*
X73918000Y-50473501D01*
X74025685Y-50522680D01*
X74132237Y-50538000D01*
X74203763Y-50538000D01*
X74310315Y-50522680D01*
X74418000Y-50473501D01*
X74418000Y-51368633D01*
G37*
%TD.AperFunction*%
%TA.AperFunction,Conductor*%
G36*
X59684402Y-37729185D02*
G01*
X59730157Y-37781989D01*
X59740721Y-37820899D01*
X59745000Y-37862796D01*
X59745001Y-37862799D01*
X59778067Y-37962583D01*
X59800186Y-38029334D01*
X59892288Y-38178656D01*
X60016344Y-38302712D01*
X60165666Y-38394814D01*
X60332203Y-38449999D01*
X60434991Y-38460500D01*
X61485008Y-38460499D01*
X61573511Y-38451458D01*
X61642203Y-38464228D01*
X61673793Y-38487135D01*
X61841706Y-38655048D01*
X61875191Y-38716371D01*
X61870207Y-38786063D01*
X61860768Y-38805831D01*
X61860760Y-38805843D01*
X61860754Y-38805858D01*
X61814902Y-38963678D01*
X61814901Y-38963684D01*
X61812000Y-39000550D01*
X61812000Y-39431953D01*
X61814901Y-39468819D01*
X61814902Y-39468825D01*
X61860754Y-39626645D01*
X61860755Y-39626648D01*
X61944417Y-39768114D01*
X61949202Y-39774283D01*
X61946756Y-39776179D01*
X61973357Y-39824894D01*
X61968373Y-39894586D01*
X61947569Y-39926955D01*
X61949202Y-39928221D01*
X61944417Y-39934389D01*
X61860755Y-40075855D01*
X61860754Y-40075858D01*
X61827194Y-40191372D01*
X61789588Y-40250258D01*
X61726115Y-40279464D01*
X61656929Y-40269718D01*
X61603994Y-40224114D01*
X61584760Y-40169378D01*
X61581499Y-40137455D01*
X61581498Y-40137452D01*
X61577043Y-40124009D01*
X61526314Y-39970918D01*
X61434212Y-39821596D01*
X61310156Y-39697540D01*
X61160834Y-39605438D01*
X60994297Y-39550253D01*
X60994295Y-39550252D01*
X60891510Y-39539752D01*
X60266498Y-39539752D01*
X60266480Y-39539753D01*
X60163703Y-39550252D01*
X60163700Y-39550253D01*
X59997168Y-39605437D01*
X59997163Y-39605439D01*
X59847842Y-39697541D01*
X59754181Y-39791203D01*
X59692858Y-39824688D01*
X59623166Y-39819704D01*
X59578819Y-39791203D01*
X59485157Y-39697541D01*
X59485156Y-39697540D01*
X59335834Y-39605438D01*
X59169297Y-39550253D01*
X59169295Y-39550252D01*
X59066510Y-39539752D01*
X58441498Y-39539752D01*
X58441480Y-39539753D01*
X58338703Y-39550252D01*
X58338700Y-39550253D01*
X58172168Y-39605437D01*
X58172163Y-39605439D01*
X58022845Y-39697539D01*
X57894341Y-39826043D01*
X57833018Y-39859527D01*
X57763326Y-39854543D01*
X57707393Y-39812671D01*
X57701129Y-39803469D01*
X57649026Y-39718997D01*
X57526003Y-39595974D01*
X57525999Y-39595971D01*
X57377933Y-39504642D01*
X57377927Y-39504639D01*
X57377925Y-39504638D01*
X57373428Y-39503148D01*
X57212776Y-39449913D01*
X57110855Y-39439500D01*
X57110848Y-39439500D01*
X56524152Y-39439500D01*
X56524144Y-39439500D01*
X56422223Y-39449913D01*
X56257077Y-39504637D01*
X56257066Y-39504642D01*
X56109000Y-39595971D01*
X56108996Y-39595974D01*
X55985974Y-39718996D01*
X55985967Y-39719005D01*
X55985234Y-39720194D01*
X55984519Y-39720836D01*
X55981493Y-39724664D01*
X55980838Y-39724146D01*
X55933280Y-39766911D01*
X55864316Y-39778123D01*
X55800238Y-39750271D01*
X55778238Y-39724877D01*
X55778112Y-39724977D01*
X55775885Y-39722161D01*
X55774163Y-39720173D01*
X55773630Y-39719309D01*
X55650691Y-39596370D01*
X55502714Y-39505096D01*
X55502709Y-39505094D01*
X55337673Y-39450407D01*
X55235815Y-39440000D01*
X55192500Y-39440000D01*
X55192500Y-41840000D01*
X55235803Y-41840000D01*
X55235815Y-41839999D01*
X55337673Y-41829592D01*
X55502709Y-41774905D01*
X55502714Y-41774903D01*
X55650691Y-41683629D01*
X55773628Y-41560692D01*
X55774159Y-41559832D01*
X55774680Y-41559363D01*
X55778112Y-41555023D01*
X55778853Y-41555608D01*
X55826101Y-41513102D01*
X55895063Y-41501872D01*
X55959148Y-41529708D01*
X55981413Y-41555398D01*
X55981493Y-41555336D01*
X55982890Y-41557103D01*
X55985238Y-41559812D01*
X55985968Y-41560995D01*
X55985974Y-41561003D01*
X56108996Y-41684025D01*
X56109000Y-41684028D01*
X56257066Y-41775357D01*
X56257069Y-41775358D01*
X56257075Y-41775362D01*
X56422225Y-41830087D01*
X56524152Y-41840500D01*
X56524157Y-41840500D01*
X57110843Y-41840500D01*
X57110848Y-41840500D01*
X57212775Y-41830087D01*
X57377925Y-41775362D01*
X57526003Y-41684026D01*
X57649026Y-41561003D01*
X57649026Y-41561002D01*
X57654133Y-41555896D01*
X57656138Y-41557901D01*
X57702532Y-41525012D01*
X57772329Y-41521835D01*
X57832764Y-41556898D01*
X57848377Y-41577178D01*
X57898788Y-41658908D01*
X58022844Y-41782964D01*
X58172166Y-41875066D01*
X58338703Y-41930251D01*
X58441491Y-41940752D01*
X59066508Y-41940751D01*
X59066516Y-41940750D01*
X59066519Y-41940750D01*
X59122802Y-41935000D01*
X59169297Y-41930251D01*
X59335834Y-41875066D01*
X59485156Y-41782964D01*
X59578822Y-41689297D01*
X59640141Y-41655815D01*
X59709833Y-41660799D01*
X59754176Y-41689296D01*
X59847844Y-41782964D01*
X59997166Y-41875066D01*
X60163703Y-41930251D01*
X60266491Y-41940752D01*
X60843547Y-41940751D01*
X60910586Y-41960435D01*
X60931228Y-41977070D01*
X61775681Y-42821523D01*
X61809166Y-42882846D01*
X61812000Y-42909204D01*
X61812000Y-43241953D01*
X61814901Y-43278819D01*
X61814902Y-43278825D01*
X61860754Y-43436645D01*
X61860754Y-43436646D01*
X61888541Y-43483632D01*
X61905722Y-43551356D01*
X61883562Y-43617618D01*
X61829096Y-43661381D01*
X61781808Y-43670752D01*
X61663517Y-43670752D01*
X61596478Y-43651067D01*
X61550723Y-43598263D01*
X61545811Y-43585757D01*
X61526314Y-43526918D01*
X61434212Y-43377596D01*
X61310156Y-43253540D01*
X61160834Y-43161438D01*
X60994297Y-43106253D01*
X60994295Y-43106252D01*
X60891510Y-43095752D01*
X60266498Y-43095752D01*
X60266480Y-43095753D01*
X60163703Y-43106252D01*
X60163700Y-43106253D01*
X59997168Y-43161437D01*
X59997163Y-43161439D01*
X59847842Y-43253541D01*
X59754181Y-43347203D01*
X59692858Y-43380688D01*
X59623166Y-43375704D01*
X59578819Y-43347203D01*
X59485157Y-43253541D01*
X59485156Y-43253540D01*
X59335834Y-43161438D01*
X59169297Y-43106253D01*
X59169295Y-43106252D01*
X59066510Y-43095752D01*
X58441498Y-43095752D01*
X58441480Y-43095753D01*
X58338703Y-43106252D01*
X58338700Y-43106253D01*
X58172168Y-43161437D01*
X58172163Y-43161439D01*
X58022845Y-43253539D01*
X57894341Y-43382043D01*
X57833018Y-43415527D01*
X57763326Y-43410543D01*
X57707393Y-43368671D01*
X57701129Y-43359469D01*
X57649026Y-43274997D01*
X57526003Y-43151974D01*
X57525999Y-43151971D01*
X57377933Y-43060642D01*
X57377927Y-43060639D01*
X57377925Y-43060638D01*
X57377922Y-43060637D01*
X57212776Y-43005913D01*
X57110855Y-42995500D01*
X57110848Y-42995500D01*
X56524152Y-42995500D01*
X56524144Y-42995500D01*
X56422223Y-43005913D01*
X56257077Y-43060637D01*
X56257066Y-43060642D01*
X56109000Y-43151971D01*
X56108996Y-43151974D01*
X55985974Y-43274996D01*
X55985967Y-43275005D01*
X55985234Y-43276194D01*
X55984519Y-43276836D01*
X55981493Y-43280664D01*
X55980838Y-43280146D01*
X55933280Y-43322911D01*
X55864316Y-43334123D01*
X55800238Y-43306271D01*
X55778238Y-43280877D01*
X55778112Y-43280977D01*
X55775885Y-43278161D01*
X55774163Y-43276173D01*
X55773630Y-43275309D01*
X55650691Y-43152370D01*
X55502714Y-43061096D01*
X55502709Y-43061094D01*
X55337673Y-43006407D01*
X55235815Y-42996000D01*
X55192500Y-42996000D01*
X55192500Y-45396000D01*
X55235803Y-45396000D01*
X55235815Y-45395999D01*
X55337673Y-45385592D01*
X55502709Y-45330905D01*
X55502714Y-45330903D01*
X55650691Y-45239629D01*
X55773628Y-45116692D01*
X55774159Y-45115832D01*
X55774680Y-45115363D01*
X55778112Y-45111023D01*
X55778853Y-45111608D01*
X55826101Y-45069102D01*
X55895063Y-45057872D01*
X55959148Y-45085708D01*
X55981413Y-45111398D01*
X55981493Y-45111336D01*
X55982890Y-45113103D01*
X55985238Y-45115812D01*
X55985968Y-45116995D01*
X55985974Y-45117003D01*
X56108996Y-45240025D01*
X56109000Y-45240028D01*
X56257066Y-45331357D01*
X56257069Y-45331358D01*
X56257075Y-45331362D01*
X56422225Y-45386087D01*
X56524152Y-45396500D01*
X56524157Y-45396500D01*
X57110843Y-45396500D01*
X57110848Y-45396500D01*
X57212775Y-45386087D01*
X57377925Y-45331362D01*
X57526003Y-45240026D01*
X57649026Y-45117003D01*
X57649026Y-45117002D01*
X57654133Y-45111896D01*
X57656138Y-45113901D01*
X57702532Y-45081012D01*
X57772329Y-45077835D01*
X57832764Y-45112898D01*
X57848377Y-45133178D01*
X57898788Y-45214908D01*
X58022844Y-45338964D01*
X58172166Y-45431066D01*
X58338703Y-45486251D01*
X58441491Y-45496752D01*
X59066508Y-45496751D01*
X59066516Y-45496750D01*
X59066519Y-45496750D01*
X59122802Y-45491000D01*
X59169297Y-45486251D01*
X59335834Y-45431066D01*
X59485156Y-45338964D01*
X59578819Y-45245301D01*
X59640142Y-45211816D01*
X59709834Y-45216800D01*
X59754181Y-45245301D01*
X59847844Y-45338964D01*
X59997166Y-45431066D01*
X60163703Y-45486251D01*
X60266491Y-45496752D01*
X60891508Y-45496751D01*
X60891516Y-45496750D01*
X60891519Y-45496750D01*
X60947802Y-45491000D01*
X60994297Y-45486251D01*
X61160834Y-45431066D01*
X61310156Y-45338964D01*
X61434212Y-45214908D01*
X61526314Y-45065586D01*
X61545811Y-45006745D01*
X61585584Y-44949303D01*
X61650100Y-44922480D01*
X61663517Y-44921752D01*
X61781808Y-44921752D01*
X61848847Y-44941437D01*
X61894602Y-44994241D01*
X61904546Y-45063399D01*
X61888541Y-45108872D01*
X61860754Y-45155857D01*
X61860754Y-45155858D01*
X61814902Y-45313678D01*
X61814901Y-45313684D01*
X61812000Y-45350550D01*
X61812000Y-45456046D01*
X61792315Y-45523085D01*
X61775681Y-45543727D01*
X61084208Y-46235199D01*
X61071951Y-46245020D01*
X61072134Y-46245241D01*
X61066122Y-46250214D01*
X61019432Y-46299932D01*
X61018079Y-46301329D01*
X60997889Y-46321519D01*
X60997877Y-46321532D01*
X60993621Y-46327017D01*
X60989837Y-46331447D01*
X60957937Y-46365418D01*
X60957936Y-46365420D01*
X60948284Y-46382976D01*
X60937610Y-46399226D01*
X60925329Y-46415061D01*
X60925324Y-46415068D01*
X60906815Y-46457838D01*
X60904245Y-46463084D01*
X60881803Y-46503906D01*
X60876822Y-46523307D01*
X60870521Y-46541710D01*
X60862562Y-46560102D01*
X60862561Y-46560105D01*
X60855271Y-46606127D01*
X60854087Y-46611846D01*
X60842501Y-46656972D01*
X60842500Y-46656982D01*
X60842500Y-46677016D01*
X60840973Y-46696415D01*
X60837840Y-46716194D01*
X60837839Y-46716197D01*
X60842224Y-46762585D01*
X60842499Y-46768421D01*
X60842500Y-48762773D01*
X60822815Y-48829812D01*
X60789623Y-48864348D01*
X60596597Y-48999505D01*
X60429508Y-49166594D01*
X60299574Y-49352159D01*
X60244997Y-49395784D01*
X60175498Y-49402976D01*
X60113144Y-49371454D01*
X60096424Y-49352158D01*
X60083617Y-49333868D01*
X59969424Y-49170782D01*
X59966494Y-49166597D01*
X59799402Y-48999506D01*
X59799395Y-48999501D01*
X59605834Y-48863967D01*
X59605830Y-48863965D01*
X59553500Y-48839563D01*
X59391663Y-48764097D01*
X59391659Y-48764096D01*
X59391655Y-48764094D01*
X59163413Y-48702938D01*
X59163403Y-48702936D01*
X58928001Y-48682341D01*
X58927999Y-48682341D01*
X58692596Y-48702936D01*
X58692586Y-48702938D01*
X58464344Y-48764094D01*
X58464335Y-48764098D01*
X58250171Y-48863964D01*
X58250169Y-48863965D01*
X58056597Y-48999505D01*
X57889505Y-49166597D01*
X57753965Y-49360169D01*
X57753964Y-49360171D01*
X57654098Y-49574335D01*
X57654094Y-49574344D01*
X57592938Y-49802586D01*
X57592936Y-49802596D01*
X57572341Y-50037999D01*
X57572341Y-50038000D01*
X57592936Y-50273403D01*
X57592938Y-50273413D01*
X57654094Y-50501655D01*
X57654096Y-50501659D01*
X57654097Y-50501663D01*
X57733801Y-50672588D01*
X57753965Y-50715830D01*
X57753967Y-50715834D01*
X57819326Y-50809176D01*
X57841653Y-50875382D01*
X57824643Y-50943149D01*
X57773695Y-50990962D01*
X57704985Y-51003640D01*
X57640328Y-50977158D01*
X57630070Y-50967980D01*
X55617818Y-48955728D01*
X55584333Y-48894405D01*
X55581499Y-48868056D01*
X55581499Y-48278492D01*
X55578434Y-48248491D01*
X55570999Y-48175703D01*
X55570998Y-48175700D01*
X55515814Y-48009166D01*
X55423712Y-47859844D01*
X55299656Y-47735788D01*
X55296342Y-47733743D01*
X55294546Y-47731748D01*
X55293989Y-47731307D01*
X55294064Y-47731211D01*
X55249618Y-47681797D01*
X55238397Y-47612834D01*
X55266240Y-47548752D01*
X55296348Y-47522665D01*
X55299342Y-47520818D01*
X55423315Y-47396845D01*
X55515356Y-47247624D01*
X55515358Y-47247619D01*
X55570505Y-47081197D01*
X55570506Y-47081190D01*
X55580999Y-46978486D01*
X55581000Y-46978473D01*
X55581000Y-46928500D01*
X54230000Y-46928500D01*
X54162961Y-46908815D01*
X54117206Y-46856011D01*
X54106000Y-46804500D01*
X54106000Y-45678500D01*
X54606000Y-45678500D01*
X54606000Y-46428500D01*
X55580999Y-46428500D01*
X55580999Y-46378528D01*
X55580998Y-46378513D01*
X55570505Y-46275802D01*
X55515358Y-46109380D01*
X55515356Y-46109375D01*
X55423315Y-45960154D01*
X55299345Y-45836184D01*
X55150124Y-45744143D01*
X55150119Y-45744141D01*
X54983697Y-45688994D01*
X54983690Y-45688993D01*
X54880986Y-45678500D01*
X54606000Y-45678500D01*
X54106000Y-45678500D01*
X53831029Y-45678500D01*
X53831012Y-45678501D01*
X53728302Y-45688994D01*
X53561880Y-45744141D01*
X53561875Y-45744143D01*
X53412656Y-45836182D01*
X53389541Y-45859298D01*
X53328217Y-45892782D01*
X53258525Y-45887796D01*
X53236765Y-45877154D01*
X53093340Y-45788689D01*
X53093336Y-45788687D01*
X53093334Y-45788686D01*
X53034493Y-45769188D01*
X52977051Y-45729416D01*
X52950228Y-45664900D01*
X52949500Y-45651483D01*
X52949500Y-44446000D01*
X53955000Y-44446000D01*
X53955000Y-44701815D01*
X53965407Y-44803673D01*
X54020094Y-44968709D01*
X54020096Y-44968714D01*
X54111370Y-45116691D01*
X54234308Y-45239629D01*
X54382285Y-45330903D01*
X54382290Y-45330905D01*
X54547326Y-45385592D01*
X54649184Y-45395999D01*
X54649197Y-45396000D01*
X54692500Y-45396000D01*
X54692500Y-44446000D01*
X53955000Y-44446000D01*
X52949500Y-44446000D01*
X52949500Y-43946000D01*
X53955000Y-43946000D01*
X54692500Y-43946000D01*
X54692500Y-42996000D01*
X54649184Y-42996000D01*
X54547326Y-43006407D01*
X54382290Y-43061094D01*
X54382285Y-43061096D01*
X54234308Y-43152370D01*
X54111370Y-43275308D01*
X54020096Y-43423285D01*
X54020094Y-43423290D01*
X53965407Y-43588326D01*
X53955000Y-43690184D01*
X53955000Y-43946000D01*
X52949500Y-43946000D01*
X52949500Y-40890000D01*
X53955000Y-40890000D01*
X53955000Y-41145815D01*
X53965407Y-41247673D01*
X54020094Y-41412709D01*
X54020096Y-41412714D01*
X54111370Y-41560691D01*
X54234308Y-41683629D01*
X54382285Y-41774903D01*
X54382290Y-41774905D01*
X54547326Y-41829592D01*
X54649184Y-41839999D01*
X54649197Y-41840000D01*
X54692500Y-41840000D01*
X54692500Y-40890000D01*
X53955000Y-40890000D01*
X52949500Y-40890000D01*
X52949500Y-40390000D01*
X53955000Y-40390000D01*
X54692500Y-40390000D01*
X54692500Y-39440000D01*
X54649184Y-39440000D01*
X54547326Y-39450407D01*
X54382290Y-39505094D01*
X54382285Y-39505096D01*
X54234308Y-39596370D01*
X54111370Y-39719308D01*
X54020096Y-39867285D01*
X54020094Y-39867290D01*
X53965407Y-40032326D01*
X53955000Y-40134184D01*
X53955000Y-40390000D01*
X52949500Y-40390000D01*
X52949500Y-39186844D01*
X52951697Y-39163606D01*
X52953227Y-39155588D01*
X52949621Y-39098275D01*
X52949500Y-39094403D01*
X52949500Y-39076650D01*
X52947270Y-39059002D01*
X52946910Y-39055191D01*
X52943304Y-38997862D01*
X52940779Y-38990092D01*
X52935687Y-38967314D01*
X52934664Y-38959208D01*
X52913520Y-38905806D01*
X52912211Y-38902170D01*
X52894467Y-38847559D01*
X52890089Y-38840661D01*
X52879495Y-38819868D01*
X52876486Y-38812268D01*
X52842736Y-38765815D01*
X52840545Y-38762592D01*
X52832783Y-38750361D01*
X52809786Y-38714123D01*
X52803833Y-38708533D01*
X52788398Y-38691025D01*
X52783594Y-38684413D01*
X52783591Y-38684411D01*
X52783591Y-38684410D01*
X52739361Y-38647820D01*
X52736438Y-38645243D01*
X52694585Y-38605940D01*
X52694577Y-38605934D01*
X52687415Y-38601997D01*
X52668114Y-38588880D01*
X52661824Y-38583676D01*
X52609878Y-38559232D01*
X52606417Y-38557469D01*
X52556092Y-38529803D01*
X52556089Y-38529802D01*
X52556085Y-38529800D01*
X52548174Y-38527769D01*
X52526222Y-38519866D01*
X52518825Y-38516385D01*
X52518821Y-38516384D01*
X52462444Y-38505630D01*
X52458644Y-38504780D01*
X52403023Y-38490500D01*
X52403019Y-38490500D01*
X52394847Y-38490500D01*
X52371615Y-38488304D01*
X52363588Y-38486773D01*
X52363586Y-38486773D01*
X52354633Y-38487336D01*
X52306275Y-38490378D01*
X52302403Y-38490500D01*
X50858337Y-38490500D01*
X50791298Y-38470815D01*
X50770656Y-38454181D01*
X50732881Y-38416406D01*
X50732877Y-38416402D01*
X50570508Y-38302710D01*
X50553638Y-38290897D01*
X50438951Y-38237418D01*
X50355330Y-38198425D01*
X50355326Y-38198424D01*
X50355322Y-38198422D01*
X50143977Y-38141793D01*
X49926002Y-38122723D01*
X49925998Y-38122723D01*
X49798140Y-38133909D01*
X49708023Y-38141793D01*
X49708020Y-38141793D01*
X49496677Y-38198422D01*
X49496670Y-38198424D01*
X49496670Y-38198425D01*
X49490464Y-38201319D01*
X49298361Y-38290898D01*
X49298357Y-38290900D01*
X49119121Y-38416402D01*
X48964402Y-38571121D01*
X48838900Y-38750357D01*
X48838898Y-38750361D01*
X48746425Y-38948669D01*
X48735822Y-38988238D01*
X48703729Y-39043822D01*
X48413953Y-39333598D01*
X48401165Y-39252852D01*
X48343641Y-39139955D01*
X48254045Y-39050359D01*
X48141148Y-38992835D01*
X48060400Y-38980046D01*
X48705572Y-38334874D01*
X48705571Y-38334873D01*
X48643391Y-38291335D01*
X48445159Y-38198898D01*
X48445150Y-38198894D01*
X48233894Y-38142289D01*
X48233884Y-38142287D01*
X48016001Y-38123225D01*
X48015999Y-38123225D01*
X47798115Y-38142287D01*
X47798105Y-38142289D01*
X47586849Y-38198894D01*
X47586840Y-38198898D01*
X47388614Y-38291332D01*
X47388609Y-38291335D01*
X47382401Y-38295682D01*
X47316193Y-38318005D01*
X47248427Y-38300989D01*
X47220516Y-38276018D01*
X47219813Y-38276722D01*
X47213548Y-38270457D01*
X47213546Y-38270454D01*
X47172889Y-38240018D01*
X47131018Y-38184084D01*
X47126034Y-38114392D01*
X47159516Y-38053073D01*
X47466774Y-37745816D01*
X47528095Y-37712334D01*
X47554453Y-37709500D01*
X59617363Y-37709500D01*
X59684402Y-37729185D01*
G37*
%TD.AperFunction*%
%TA.AperFunction,Conductor*%
G36*
X73053847Y-44941437D02*
G01*
X73099602Y-44994241D01*
X73109546Y-45063399D01*
X73104515Y-45084750D01*
X73081501Y-45154203D01*
X73081501Y-45154204D01*
X73081500Y-45154204D01*
X73071000Y-45256983D01*
X73071000Y-45882001D01*
X73071001Y-45882019D01*
X73081500Y-45984796D01*
X73081501Y-45984799D01*
X73136685Y-46151331D01*
X73136687Y-46151336D01*
X73167394Y-46201120D01*
X73228341Y-46299932D01*
X73228789Y-46300657D01*
X73322451Y-46394319D01*
X73355936Y-46455642D01*
X73350952Y-46525334D01*
X73322451Y-46569681D01*
X73228789Y-46663342D01*
X73136687Y-46812663D01*
X73136685Y-46812666D01*
X73136686Y-46812666D01*
X73081501Y-46979203D01*
X73081501Y-46979204D01*
X73081500Y-46979204D01*
X73071000Y-47081983D01*
X73071000Y-47707001D01*
X73071001Y-47707019D01*
X73081500Y-47809796D01*
X73081501Y-47809799D01*
X73129926Y-47955934D01*
X73136686Y-47976334D01*
X73228788Y-48125656D01*
X73352844Y-48249712D01*
X73502166Y-48341814D01*
X73668703Y-48396999D01*
X73771491Y-48407500D01*
X74141547Y-48407499D01*
X74208586Y-48427183D01*
X74229228Y-48443818D01*
X74381681Y-48596271D01*
X74415166Y-48657594D01*
X74418000Y-48683952D01*
X74418000Y-49602498D01*
X74310315Y-49553320D01*
X74203763Y-49538000D01*
X74132237Y-49538000D01*
X74025685Y-49553320D01*
X73918000Y-49602498D01*
X73918000Y-48707364D01*
X73917999Y-48707364D01*
X73704513Y-48764567D01*
X73704507Y-48764570D01*
X73490422Y-48864399D01*
X73490420Y-48864400D01*
X73296926Y-48999886D01*
X73296920Y-48999891D01*
X73129891Y-49166920D01*
X73129890Y-49166922D01*
X72999880Y-49352595D01*
X72945303Y-49396219D01*
X72875804Y-49403412D01*
X72813450Y-49371890D01*
X72796730Y-49352594D01*
X72666494Y-49166597D01*
X72499402Y-48999506D01*
X72499401Y-48999505D01*
X72311660Y-48868047D01*
X72306376Y-48864347D01*
X72262751Y-48809770D01*
X72253500Y-48762772D01*
X72253500Y-46564737D01*
X72255224Y-46549123D01*
X72254938Y-46549096D01*
X72255672Y-46541333D01*
X72253531Y-46473171D01*
X72253500Y-46471224D01*
X72253500Y-46442651D01*
X72253500Y-46442650D01*
X72252629Y-46435759D01*
X72252172Y-46429945D01*
X72252043Y-46425854D01*
X72250709Y-46383373D01*
X72245122Y-46364144D01*
X72241174Y-46345084D01*
X72238664Y-46325208D01*
X72221507Y-46281875D01*
X72219619Y-46276359D01*
X72206619Y-46231612D01*
X72196418Y-46214363D01*
X72187860Y-46196894D01*
X72180486Y-46178268D01*
X72180483Y-46178264D01*
X72180483Y-46178263D01*
X72153098Y-46140571D01*
X72149890Y-46135687D01*
X72126172Y-46095582D01*
X72126163Y-46095571D01*
X72112005Y-46081413D01*
X72099370Y-46066620D01*
X72087593Y-46050412D01*
X72051693Y-46020713D01*
X72047381Y-46016790D01*
X71213055Y-45182464D01*
X71203232Y-45170202D01*
X71203011Y-45170386D01*
X71198037Y-45164374D01*
X71167975Y-45136143D01*
X71132581Y-45075902D01*
X71135375Y-45006088D01*
X71175469Y-44948867D01*
X71240134Y-44922407D01*
X71252860Y-44921752D01*
X72986808Y-44921752D01*
X73053847Y-44941437D01*
G37*
%TD.AperFunction*%
%TD*%
%TA.AperFunction,Conductor*%
%TO.N,Net-(J4-Pin_1)*%
G36*
X71063039Y-7760685D02*
G01*
X71108794Y-7813489D01*
X71120000Y-7865000D01*
X71120000Y-21587000D01*
X71100315Y-21654039D01*
X71047511Y-21699794D01*
X70996000Y-21711000D01*
X48892000Y-21711000D01*
X48824961Y-21691315D01*
X48779206Y-21638511D01*
X48768000Y-21587000D01*
X48768000Y-7865000D01*
X48787685Y-7797961D01*
X48840489Y-7752206D01*
X48892000Y-7741000D01*
X70996000Y-7741000D01*
X71063039Y-7760685D01*
G37*
%TD.AperFunction*%
%TD*%
%TA.AperFunction,Conductor*%
%TO.N,Net-(J5-Pin_1)*%
G36*
X47441039Y-7760685D02*
G01*
X47486794Y-7813489D01*
X47498000Y-7865000D01*
X47498000Y-21587000D01*
X47478315Y-21654039D01*
X47425511Y-21699794D01*
X47374000Y-21711000D01*
X24254000Y-21711000D01*
X24186961Y-21691315D01*
X24141206Y-21638511D01*
X24130000Y-21587000D01*
X24130000Y-7865000D01*
X24149685Y-7797961D01*
X24202489Y-7752206D01*
X24254000Y-7741000D01*
X47374000Y-7741000D01*
X47441039Y-7760685D01*
G37*
%TD.AperFunction*%
%TD*%
M02*
